<svg xmlns="http://www.w3.org/2000/svg" xmlns:xlink="http://www.w3.org/1999/xlink" width="1360" height="1760"><g transform="translate(0 0)"><path d="M520 160h320v1460H520z" stroke="#000" stroke-width="4" fill="#fff"/><use xlink:href="#a" transform="matrix(1,0,0,1,528,168) translate(86.6 15.6)"/><use xlink:href="#b" transform="matrix(1,0,0,1,528,168) translate(129.55 15.6)"/><path d="M760 1100c0 33.14-35.82 60-80 60s-80-26.86-80-60 35.82-60 80-60 80 26.86 80 60z" stroke="#000" stroke-width="2" fill="#fff"/><use xlink:href="#c" transform="matrix(1,0,0,1,600,1040) translate(32.055 51.9)"/><use xlink:href="#d" transform="matrix(1,0,0,1,600,1040) translate(79.055 51.9)"/><use xlink:href="#e" transform="matrix(1,0,0,1,600,1040) translate(43.529999999999994 73.5)"/><path d="M760 1300c0 33.14-35.82 60-80 60s-80-26.86-80-60 35.82-60 80-60 80 26.86 80 60z" stroke="#000" stroke-width="2" fill="#fff"/><use xlink:href="#c" transform="matrix(1,0,0,1,600,1240) translate(28.555 51.9)"/><use xlink:href="#f" transform="matrix(1,0,0,1,600,1240) translate(75.555 51.9)"/><use xlink:href="#e" transform="matrix(1,0,0,1,600,1240) translate(43.529999999999994 73.5)"/><path d="M440 1100h159" stroke="#000" stroke-width="2" fill="none"/><path d="M600 1100v.38l.03.62H599v-2h1.03z"/><path d="M360 1100h119.5v200H599" stroke="#000" stroke-width="2" fill="none"/><path d="M600 1300v.38l.03.62H599v-2h1.03z"/><path d="M760 1500c0 33.14-35.82 60-80 60s-80-26.86-80-60 35.82-60 80-60 80 26.86 80 60z" stroke="#000" stroke-width="2" fill="#fff"/><use xlink:href="#g" transform="matrix(1,0,0,1,600,1440) translate(46.57999999999999 51.9)"/><use xlink:href="#h" transform="matrix(1,0,0,1,600,1440) translate(26.029999999999994 73.5)"/><use xlink:href="#i" transform="matrix(1,0,0,1,600,1440) translate(103.98 73.5)"/><path d="M360 1100h119.5v400H599" stroke="#000" stroke-width="2" fill="none"/><path d="M600 1500v.38l.03.62H599v-2h1.03z"/><path d="M760 500c0 33.14-35.82 60-80 60s-80-26.86-80-60 35.82-60 80-60 80 26.86 80 60z" stroke="#000" stroke-width="2" fill="#fff"/><use xlink:href="#j" transform="matrix(1,0,0,1,600,440) translate(55.005 63.15)"/><use xlink:href="#k" transform="matrix(1,0,0,1,600,440) translate(90.005 63.15)"/><path d="M760 300c0 33.14-35.82 60-80 60s-80-26.86-80-60 35.82-60 80-60 80 26.86 80 60z" stroke="#000" stroke-width="2" fill="#fff"/><use xlink:href="#l" transform="matrix(1,0,0,1,600,240) translate(26.12999999999999 51.9)"/><use xlink:href="#m" transform="matrix(1,0,0,1,600,240) translate(97.98 51.9)"/><use xlink:href="#n" transform="matrix(1,0,0,1,600,240) translate(47.504999999999995 73.5)"/><path d="M760 700c0 33.14-35.82 60-80 60s-80-26.86-80-60 35.82-60 80-60 80 26.86 80 60z" stroke="#000" stroke-width="2" fill="#fff"/><use xlink:href="#j" transform="matrix(1,0,0,1,600,640) translate(48.005 63.15)"/><use xlink:href="#o" transform="matrix(1,0,0,1,600,640) translate(83.005 63.15)"/><path d="M419.75 229.75c0 10.9-8.84 19.75-19.75 19.75-10.9 0-19.75-8.84-19.75-19.75 0-10.9 8.84-19.75 19.75-19.75 10.9 0 19.75 8.84 19.75 19.75z" stroke="#000" stroke-width="2" fill="#fff"/><path d="M360 210h80v158h-80z" fill="none"/><path d="M400 249.5v55.3l40 63.2m-40-63.2L360 368m0-98.75h80" stroke="#000" stroke-width="2" fill="none"/><use xlink:href="#p" transform="matrix(1,0,0,1,280,368) translate(47.14999999999999 14.6)"/><use xlink:href="#q" transform="matrix(1,0,0,1,280,368) translate(154.95 14.6)"/><path d="M419.75 429.75c0 10.9-8.84 19.75-19.75 19.75-10.9 0-19.75-8.84-19.75-19.75 0-10.9 8.84-19.75 19.75-19.75 10.9 0 19.75 8.84 19.75 19.75z" stroke="#000" stroke-width="2" fill="#fff"/><path d="M360 410h80v158h-80z" fill="none"/><path d="M400 449.5v55.3l40 63.2m-40-63.2L360 568m0-98.75h80" stroke="#000" stroke-width="2" fill="none"/><use xlink:href="#r" transform="matrix(1,0,0,1,280,568) translate(55.125 14.6)"/><use xlink:href="#q" transform="matrix(1,0,0,1,280,568) translate(146.97500000000002 14.6)"/><path d="M360 1100h119.5V700H599" stroke="#000" stroke-width="2" fill="none"/><path d="M600 700v.38l.03.62H599v-2h1.03z"/><path d="M440 500h159" stroke="#000" stroke-width="2" fill="none"/><path d="M600 500v.38l.03.62H599v-2h1.03z"/><path d="M440 300h159" stroke="#000" stroke-width="2" fill="none"/><path d="M600 300v.38l.03.62H599v-2h1.03z"/><path d="M1000 900H880V500H760" stroke="#000" stroke-width="2" fill="none"/><path d="M760 501h-.03l.03-1v-.38l-.03-.62h.03z"/><path d="M1000 900H880V700H760" stroke="#000" stroke-width="2" fill="none"/><path d="M760 701h-.03l.03-1v-.38l-.03-.62h.03z"/><path d="M760 900c0 33.14-35.82 60-80 60s-80-26.86-80-60 35.82-60 80-60 80 26.86 80 60z" stroke="#000" stroke-width="2" fill="#fff"/><use xlink:href="#s" transform="matrix(1,0,0,1,600,840) translate(19.054999999999986 63.15)"/><use xlink:href="#n" transform="matrix(1,0,0,1,600,840) translate(75.955 63.15)"/><path d="M339.75 1029.75c0 10.9-8.84 19.75-19.75 19.75-10.9 0-19.75-8.84-19.75-19.75 0-10.9 8.84-19.75 19.75-19.75 10.9 0 19.75 8.84 19.75 19.75z" stroke="#000" stroke-width="2" fill="#fff"/><path d="M280 1010h80v158h-80z" fill="none"/><path d="M320 1049.5v55.3l40 63.2m-40-63.2l-40 63.2m0-98.75h80" stroke="#000" stroke-width="2" fill="none"/><use xlink:href="#t" transform="matrix(1,0,0,1,200,1168) translate(58.074999999999996 14.6)"/><use xlink:href="#q" transform="matrix(1,0,0,1,200,1168) translate(144.025 14.6)"/><path d="M360 1100h119.5V900H599" stroke="#000" stroke-width="2" fill="none"/><path d="M600 900v.38l.03.62H599v-2h1.03z"/><path d="M360 1100h239" stroke="#000" stroke-width="2" fill="none"/><path d="M600 1100v.38l.03.62H599v-2h1.03z"/><path d="M1059.75 829.75c0 10.9-8.84 19.75-19.75 19.75-10.9 0-19.75-8.84-19.75-19.75 0-10.9 8.84-19.75 19.75-19.75 10.9 0 19.75 8.84 19.75 19.75z" stroke="#000" stroke-width="2" fill="#fff"/><path d="M1000 810h80v158h-80z" fill="none"/><path d="M1040 849.5v55.3l40 63.2m-40-63.2l-40 63.2m0-98.75h80" stroke="#000" stroke-width="2" fill="none"/><g><use xlink:href="#u" transform="matrix(1,0,0,1,920,968) translate(16.14999999999999 14.6)"/><use xlink:href="#v" transform="matrix(1,0,0,1,920,968) translate(41.04999999999999 14.6)"/><use xlink:href="#w" transform="matrix(1,0,0,1,920,968) translate(90.99999999999999 14.6)"/><use xlink:href="#x" transform="matrix(1,0,0,1,920,968) translate(176.95 14.6)"/></g><path d="M1000 900H880.5V300H761" stroke="#000" stroke-width="2" fill="none"/><path d="M761 301h-1.03l.03-1v-.38l-.03-.62H761z"/><path d="M1000 900H761" stroke="#000" stroke-width="2" fill="none"/><path d="M761 901h-1.03l.03-1v-.38l-.03-.62H761z"/><path d="M1000 900H880v200H760" stroke="#000" stroke-width="2" fill="none"/><path d="M760 1101h-.03l.03-1v-.38l-.03-.62h.03z"/><path d="M1000 900H880v400H760" stroke="#000" stroke-width="2" fill="none"/><path d="M760 1301h-.03l.03-1v-.38l-.03-.62h.03z"/><path d="M1000 900H880v600H760" stroke="#000" stroke-width="2" fill="none"/><path d="M760 1501h-.03l.03-1v-.38l-.03-.62h.03z"/><defs><path d="M212-179c-10-28-35-45-73-45-59 0-87 40-87 99 0 60 29 101 89 101 43 0 62-24 78-52l27 14C228-24 195 4 139 4 59 4 22-46 18-125c-6-104 99-153 187-111 19 9 31 26 39 46" id="y"/><path d="M106-169C34-169 62-67 57 0H25v-261h32l-1 103c12-21 28-36 61-36 89 0 53 116 60 194h-32v-121c2-32-8-49-39-48" id="z"/><path d="M141-36C126-15 110 5 73 4 37 3 15-17 15-53c-1-64 63-63 125-63 3-35-9-54-41-54-24 1-41 7-42 31l-33-3c5-37 33-52 76-52 45 0 72 20 72 64v82c-1 20 7 32 28 27v20c-31 9-61-2-59-35zM48-53c0 20 12 33 32 33 41-3 63-29 60-74-43 2-92-5-92 41" id="A"/><path d="M59-47c-2 24 18 29 38 22v24C64 9 27 4 27-40v-127H5v-23h24l9-43h21v43h35v23H59v120" id="B"/><g id="a"><use transform="matrix(0.05,0,0,0.05,0,0)" xlink:href="#y"/><use transform="matrix(0.05,0,0,0.05,12.950000000000001,0)" xlink:href="#z"/><use transform="matrix(0.05,0,0,0.05,22.950000000000003,0)" xlink:href="#A"/><use transform="matrix(0.05,0,0,0.05,32.95,0)" xlink:href="#B"/></g><path d="M205 0l-28-72H64L36 0H1l101-248h38L239 0h-34zm-38-99l-47-123c-12 45-31 82-46 123h93" id="C"/><path d="M115-194c55 1 70 41 70 98S169 2 115 4C84 4 66-9 55-30l1 105H24l-1-265h31l2 30c10-21 28-34 59-34zm-8 174c40 0 45-34 45-75s-6-73-45-74c-42 0-51 32-51 76 0 43 10 73 51 73" id="D"/><path d="M24 0v-261h32V0H24" id="E"/><path d="M24-231v-30h32v30H24zM24 0v-190h32V0H24" id="F"/><path d="M96-169c-40 0-48 33-48 73s9 75 48 75c24 0 41-14 43-38l32 2c-6 37-31 61-74 61-59 0-76-41-82-99-10-93 101-131 147-64 4 7 5 14 7 22l-32 3c-4-21-16-35-41-35" id="G"/><path d="M100-194c62-1 85 37 85 99 1 63-27 99-86 99S16-35 15-95c0-66 28-99 85-99zM99-20c44 1 53-31 53-75 0-43-8-75-51-75s-53 32-53 75 10 74 51 75" id="H"/><path d="M117-194c89-4 53 116 60 194h-32v-121c0-31-8-49-39-48C34-167 62-67 57 0H25l-1-190h30c1 10-1 24 2 32 11-22 29-35 61-36" id="I"/><g id="b"><use transform="matrix(0.05,0,0,0.05,0,0)" xlink:href="#C"/><use transform="matrix(0.05,0,0,0.05,12,0)" xlink:href="#D"/><use transform="matrix(0.05,0,0,0.05,22,0)" xlink:href="#D"/><use transform="matrix(0.05,0,0,0.05,32,0)" xlink:href="#E"/><use transform="matrix(0.05,0,0,0.05,35.95,0)" xlink:href="#F"/><use transform="matrix(0.05,0,0,0.05,39.900000000000006,0)" xlink:href="#G"/><use transform="matrix(0.05,0,0,0.05,48.900000000000006,0)" xlink:href="#A"/><use transform="matrix(0.05,0,0,0.05,58.900000000000006,0)" xlink:href="#B"/><use transform="matrix(0.05,0,0,0.05,63.900000000000006,0)" xlink:href="#F"/><use transform="matrix(0.05,0,0,0.05,67.85000000000001,0)" xlink:href="#H"/><use transform="matrix(0.05,0,0,0.05,77.85000000000001,0)" xlink:href="#I"/></g><path d="M185-189c-5-48-123-54-124 2 14 75 158 14 163 119 3 78-121 87-175 55-17-10-28-26-33-46l33-7c5 56 141 63 141-1 0-78-155-14-162-118-5-82 145-84 179-34 5 7 8 16 11 25" id="J"/><path d="M100-194c63 0 86 42 84 106H49c0 40 14 67 53 68 26 1 43-12 49-29l28 8c-11 28-37 45-77 45C44 4 14-33 15-96c1-61 26-98 85-98zm52 81c6-60-76-77-97-28-3 7-6 17-6 28h103" id="K"/><path d="M85-194c31 0 48 13 60 33l-1-100h32l1 261h-30c-2-10 0-23-3-31C134-8 116 4 85 4 32 4 16-35 15-94c0-66 23-100 70-100zm9 24c-40 0-46 34-46 75 0 40 6 74 45 74 42 0 51-32 51-76 0-42-9-74-50-73" id="L"/><g id="c"><use transform="matrix(0.05,0,0,0.05,0,0)" xlink:href="#J"/><use transform="matrix(0.05,0,0,0.05,12,0)" xlink:href="#K"/><use transform="matrix(0.05,0,0,0.05,22,0)" xlink:href="#I"/><use transform="matrix(0.05,0,0,0.05,32,0)" xlink:href="#L"/></g><path d="M30-248c87 1 191-15 191 75 0 78-77 80-158 76V0H30v-248zm33 125c57 0 124 11 124-50 0-59-68-47-124-48v98" id="M"/><path d="M84 4C-5 8 30-112 23-190h32v120c0 31 7 50 39 49 72-2 45-101 50-169h31l1 190h-30c-1-10 1-25-2-33-11 22-28 36-60 37" id="N"/><path d="M115-194c53 0 69 39 70 98 0 66-23 100-70 100C84 3 66-7 56-30L54 0H23l1-261h32v101c10-23 28-34 59-34zm-8 174c40 0 45-34 45-75 0-40-5-75-45-74-42 0-51 32-51 76 0 43 10 73 51 73" id="O"/><g id="d"><use transform="matrix(0.05,0,0,0.05,0,0)" xlink:href="#M"/><use transform="matrix(0.05,0,0,0.05,12,0)" xlink:href="#N"/><use transform="matrix(0.05,0,0,0.05,22,0)" xlink:href="#O"/><use transform="matrix(0.05,0,0,0.05,32,0)" xlink:href="#E"/><use transform="matrix(0.05,0,0,0.05,35.95,0)" xlink:href="#F"/><use transform="matrix(0.05,0,0,0.05,39.900000000000006,0)" xlink:href="#G"/></g><path d="M240 0l2-218c-23 76-54 145-80 218h-23L58-218 59 0H30v-248h44l77 211c21-75 51-140 76-211h43V0h-30" id="P"/><path d="M135-143c-3-34-86-38-87 0 15 53 115 12 119 90S17 21 10-45l28-5c4 36 97 45 98 0-10-56-113-15-118-90-4-57 82-63 122-42 12 7 21 19 24 35" id="Q"/><path d="M177-190C167-65 218 103 67 71c-23-6-38-20-44-43l32-5c15 47 100 32 89-28v-30C133-14 115 1 83 1 29 1 15-40 15-95c0-56 16-97 71-98 29-1 48 16 59 35 1-10 0-23 2-32h30zM94-22c36 0 50-32 50-73 0-42-14-75-50-75-39 0-46 34-46 75s6 73 46 73" id="R"/><g id="e"><use transform="matrix(0.05,0,0,0.05,0,0)" xlink:href="#P"/><use transform="matrix(0.05,0,0,0.05,14.950000000000001,0)" xlink:href="#K"/><use transform="matrix(0.05,0,0,0.05,24.950000000000003,0)" xlink:href="#Q"/><use transform="matrix(0.05,0,0,0.05,33.95,0)" xlink:href="#Q"/><use transform="matrix(0.05,0,0,0.05,42.95,0)" xlink:href="#A"/><use transform="matrix(0.05,0,0,0.05,52.95,0)" xlink:href="#R"/><use transform="matrix(0.05,0,0,0.05,62.95,0)" xlink:href="#K"/></g><path d="M114-163C36-179 61-72 57 0H25l-1-190h30c1 12-1 29 2 39 6-27 23-49 58-41v29" id="S"/><path d="M108 0H70L1-190h34L89-25l56-165h34" id="T"/><g id="f"><use transform="matrix(0.05,0,0,0.05,0,0)" xlink:href="#M"/><use transform="matrix(0.05,0,0,0.05,12,0)" xlink:href="#S"/><use transform="matrix(0.05,0,0,0.05,17.95,0)" xlink:href="#F"/><use transform="matrix(0.05,0,0,0.05,21.9,0)" xlink:href="#T"/><use transform="matrix(0.05,0,0,0.05,30.899999999999995,0)" xlink:href="#A"/><use transform="matrix(0.05,0,0,0.05,40.9,0)" xlink:href="#B"/><use transform="matrix(0.05,0,0,0.05,45.9,0)" xlink:href="#K"/></g><path d="M233-177c-1 41-23 64-60 70L243 0h-38l-65-103H63V0H30v-248c88 3 205-21 203 71zM63-129c60-2 137 13 137-47 0-61-80-42-137-45v92" id="U"/><g id="g"><use transform="matrix(0.05,0,0,0.05,0,0)" xlink:href="#U"/><use transform="matrix(0.05,0,0,0.05,12.950000000000001,0)" xlink:href="#K"/><use transform="matrix(0.05,0,0,0.05,22.950000000000003,0)" xlink:href="#B"/><use transform="matrix(0.05,0,0,0.05,27.950000000000003,0)" xlink:href="#S"/><use transform="matrix(0.05,0,0,0.05,33.900000000000006,0)" xlink:href="#F"/><use transform="matrix(0.05,0,0,0.05,37.85000000000001,0)" xlink:href="#K"/><use transform="matrix(0.05,0,0,0.05,47.85000000000001,0)" xlink:href="#T"/><use transform="matrix(0.05,0,0,0.05,56.85,0)" xlink:href="#K"/></g><g id="h"><use transform="matrix(0.05,0,0,0.05,0,0)" xlink:href="#P"/><use transform="matrix(0.05,0,0,0.05,14.950000000000001,0)" xlink:href="#K"/><use transform="matrix(0.05,0,0,0.05,24.950000000000003,0)" xlink:href="#Q"/><use transform="matrix(0.05,0,0,0.05,33.95,0)" xlink:href="#Q"/><use transform="matrix(0.05,0,0,0.05,42.95,0)" xlink:href="#A"/><use transform="matrix(0.05,0,0,0.05,52.95,0)" xlink:href="#R"/><use transform="matrix(0.05,0,0,0.05,62.95,0)" xlink:href="#K"/></g><path d="M30 0v-248h33v221h125V0H30" id="V"/><g id="i"><use transform="matrix(0.05,0,0,0.05,0,0)" xlink:href="#V"/><use transform="matrix(0.05,0,0,0.05,10,0)" xlink:href="#H"/><use transform="matrix(0.05,0,0,0.05,20,0)" xlink:href="#R"/></g><g id="j"><use transform="matrix(0.05,0,0,0.05,0,0)" xlink:href="#V"/><use transform="matrix(0.05,0,0,0.05,10,0)" xlink:href="#H"/><use transform="matrix(0.05,0,0,0.05,20,0)" xlink:href="#R"/></g><path d="M33 0v-248h34V0H33" id="W"/><g id="k"><use transform="matrix(0.05,0,0,0.05,0,0)" xlink:href="#W"/><use transform="matrix(0.05,0,0,0.05,5,0)" xlink:href="#I"/></g><g id="l"><use transform="matrix(0.05,0,0,0.05,0,0)" xlink:href="#U"/><use transform="matrix(0.05,0,0,0.05,12.950000000000001,0)" xlink:href="#K"/><use transform="matrix(0.05,0,0,0.05,22.950000000000003,0)" xlink:href="#R"/><use transform="matrix(0.05,0,0,0.05,32.95,0)" xlink:href="#F"/><use transform="matrix(0.05,0,0,0.05,36.900000000000006,0)" xlink:href="#Q"/><use transform="matrix(0.05,0,0,0.05,45.900000000000006,0)" xlink:href="#B"/><use transform="matrix(0.05,0,0,0.05,50.900000000000006,0)" xlink:href="#K"/><use transform="matrix(0.05,0,0,0.05,60.900000000000006,0)" xlink:href="#S"/></g><path d="M190 0L58-211 59 0H30v-248h39L202-35l-2-213h31V0h-41" id="X"/><path d="M206 0h-36l-40-164L89 0H53L-1-190h32L70-26l43-164h34l41 164 42-164h31" id="Y"/><g id="m"><use transform="matrix(0.05,0,0,0.05,0,0)" xlink:href="#X"/><use transform="matrix(0.05,0,0,0.05,12.950000000000001,0)" xlink:href="#K"/><use transform="matrix(0.05,0,0,0.05,22.950000000000003,0)" xlink:href="#Y"/></g><g id="n"><use transform="matrix(0.05,0,0,0.05,0,0)" xlink:href="#C"/><use transform="matrix(0.05,0,0,0.05,12,0)" xlink:href="#G"/><use transform="matrix(0.05,0,0,0.05,21,0)" xlink:href="#G"/><use transform="matrix(0.05,0,0,0.05,30,0)" xlink:href="#H"/><use transform="matrix(0.05,0,0,0.05,40,0)" xlink:href="#N"/><use transform="matrix(0.05,0,0,0.05,50,0)" xlink:href="#I"/><use transform="matrix(0.05,0,0,0.05,60,0)" xlink:href="#B"/></g><path d="M140-251c81 0 123 46 123 126C263-46 219 4 140 4 59 4 17-45 17-125s42-126 123-126zm0 227c63 0 89-41 89-101s-29-99-89-99c-61 0-89 39-89 99S79-25 140-24" id="Z"/><g id="o"><use transform="matrix(0.05,0,0,0.05,0,0)" xlink:href="#Z"/><use transform="matrix(0.05,0,0,0.05,14,0)" xlink:href="#N"/><use transform="matrix(0.05,0,0,0.05,24,0)" xlink:href="#B"/></g><path d="M232-93c-1 65-40 97-104 97C67 4 28-28 28-90v-158h33c8 89-33 224 67 224 102 0 64-133 71-224h33v155" id="aa"/><g id="p"><use transform="matrix(0.05,0,0,0.05,0,0)" xlink:href="#aa"/><use transform="matrix(0.05,0,0,0.05,12.950000000000001,0)" xlink:href="#I"/><use transform="matrix(0.05,0,0,0.05,22.950000000000003,0)" xlink:href="#S"/><use transform="matrix(0.05,0,0,0.05,28.900000000000002,0)" xlink:href="#K"/><use transform="matrix(0.05,0,0,0.05,38.900000000000006,0)" xlink:href="#R"/><use transform="matrix(0.05,0,0,0.05,48.900000000000006,0)" xlink:href="#F"/><use transform="matrix(0.05,0,0,0.05,52.85,0)" xlink:href="#Q"/><use transform="matrix(0.05,0,0,0.05,61.85,0)" xlink:href="#B"/><use transform="matrix(0.05,0,0,0.05,66.85000000000001,0)" xlink:href="#K"/><use transform="matrix(0.05,0,0,0.05,76.85000000000001,0)" xlink:href="#S"/><use transform="matrix(0.05,0,0,0.05,82.80000000000001,0)" xlink:href="#K"/><use transform="matrix(0.05,0,0,0.05,92.80000000000001,0)" xlink:href="#L"/></g><g id="q"><use transform="matrix(0.05,0,0,0.05,0,0)" xlink:href="#aa"/><use transform="matrix(0.05,0,0,0.05,12.950000000000001,0)" xlink:href="#Q"/><use transform="matrix(0.05,0,0,0.05,21.950000000000003,0)" xlink:href="#K"/><use transform="matrix(0.05,0,0,0.05,31.950000000000003,0)" xlink:href="#S"/></g><g id="r"><use transform="matrix(0.05,0,0,0.05,0,0)" xlink:href="#U"/><use transform="matrix(0.05,0,0,0.05,12.950000000000001,0)" xlink:href="#K"/><use transform="matrix(0.05,0,0,0.05,22.950000000000003,0)" xlink:href="#R"/><use transform="matrix(0.05,0,0,0.05,32.95,0)" xlink:href="#F"/><use transform="matrix(0.05,0,0,0.05,36.900000000000006,0)" xlink:href="#Q"/><use transform="matrix(0.05,0,0,0.05,45.900000000000006,0)" xlink:href="#B"/><use transform="matrix(0.05,0,0,0.05,50.900000000000006,0)" xlink:href="#K"/><use transform="matrix(0.05,0,0,0.05,60.900000000000006,0)" xlink:href="#S"/><use transform="matrix(0.05,0,0,0.05,66.85000000000001,0)" xlink:href="#K"/><use transform="matrix(0.05,0,0,0.05,76.85000000000001,0)" xlink:href="#L"/></g><path d="M30-248c118-7 216 8 213 122C240-48 200 0 122 0H30v-248zM63-27c89 8 146-16 146-99s-60-101-146-95v194" id="ab"/><g id="s"><use transform="matrix(0.05,0,0,0.05,0,0)" xlink:href="#ab"/><use transform="matrix(0.05,0,0,0.05,12.950000000000001,0)" xlink:href="#K"/><use transform="matrix(0.05,0,0,0.05,22.950000000000003,0)" xlink:href="#E"/><use transform="matrix(0.05,0,0,0.05,26.900000000000002,0)" xlink:href="#K"/><use transform="matrix(0.05,0,0,0.05,36.900000000000006,0)" xlink:href="#B"/><use transform="matrix(0.05,0,0,0.05,41.900000000000006,0)" xlink:href="#K"/></g><path d="M16-82v-28h88v28H16" id="ac"/><g id="t"><use transform="matrix(0.05,0,0,0.05,0,0)" xlink:href="#V"/><use transform="matrix(0.05,0,0,0.05,10,0)" xlink:href="#H"/><use transform="matrix(0.05,0,0,0.05,20,0)" xlink:href="#R"/><use transform="matrix(0.05,0,0,0.05,30,0)" xlink:href="#R"/><use transform="matrix(0.05,0,0,0.05,40,0)" xlink:href="#K"/><use transform="matrix(0.05,0,0,0.05,50,0)" xlink:href="#L"/><use transform="matrix(0.05,0,0,0.05,60,0)" xlink:href="#ac"/><use transform="matrix(0.05,0,0,0.05,65.95,0)" xlink:href="#W"/><use transform="matrix(0.05,0,0,0.05,70.95,0)" xlink:href="#I"/></g><g id="u"><use transform="matrix(0.05,0,0,0.05,0,0)" xlink:href="#C"/><use transform="matrix(0.05,0,0,0.05,12,0)" xlink:href="#E"/><use transform="matrix(0.05,0,0,0.05,15.949999999999998,0)" xlink:href="#E"/></g><g id="v"><use transform="matrix(0.05,0,0,0.05,0,0)" xlink:href="#Z"/><use transform="matrix(0.05,0,0,0.05,14,0)" xlink:href="#B"/><use transform="matrix(0.05,0,0,0.05,19,0)" xlink:href="#z"/><use transform="matrix(0.05,0,0,0.05,29,0)" xlink:href="#K"/><use transform="matrix(0.05,0,0,0.05,39,0)" xlink:href="#S"/></g><g id="w"><use transform="matrix(0.05,0,0,0.05,0,0)" xlink:href="#V"/><use transform="matrix(0.05,0,0,0.05,10,0)" xlink:href="#H"/><use transform="matrix(0.05,0,0,0.05,20,0)" xlink:href="#R"/><use transform="matrix(0.05,0,0,0.05,30,0)" xlink:href="#R"/><use transform="matrix(0.05,0,0,0.05,40,0)" xlink:href="#K"/><use transform="matrix(0.05,0,0,0.05,50,0)" xlink:href="#L"/><use transform="matrix(0.05,0,0,0.05,60,0)" xlink:href="#ac"/><use transform="matrix(0.05,0,0,0.05,65.95,0)" xlink:href="#W"/><use transform="matrix(0.05,0,0,0.05,70.95,0)" xlink:href="#I"/></g><g id="x"><use transform="matrix(0.05,0,0,0.05,0,0)" xlink:href="#aa"/><use transform="matrix(0.05,0,0,0.05,12.950000000000001,0)" xlink:href="#Q"/><use transform="matrix(0.05,0,0,0.05,21.950000000000003,0)" xlink:href="#K"/><use transform="matrix(0.05,0,0,0.05,31.950000000000003,0)" xlink:href="#S"/><use transform="matrix(0.05,0,0,0.05,37.900000000000006,0)" xlink:href="#Q"/></g></defs></g></svg>