<svg xmlns="http://www.w3.org/2000/svg" xmlns:xlink="http://www.w3.org/1999/xlink" width="840" height="467"><g transform="translate(-260 -144)"><path d="M600 164h480v408H600z" stroke="#000" stroke-width="2" fill="none"/><path d="M600 164h480v40H600z" stroke="#000" stroke-width="2" fill="#fff"/><path d="M1044 168h32v32h-32zM1052 176l16 16m0-16l-16 16M1008 168h32v32h-32z" stroke="#000" stroke-width="2" fill="none"/><path d="M1016 176h16v16h-16zM972 168h32v32h-32zM996 192h-16" stroke="#000" stroke-width="2" fill="none"/><use xlink:href="#a" transform="matrix(1,0,0,1,620,164) translate(172.55 23.6)"/><path d="M620 272h120v46.67H620z" stroke="#000" stroke-width="2" fill="#fff"/><path d="M620 318.67h120v46.66H620z" stroke="#000" stroke-width="2" fill="#bfbfbf"/><path d="M620 365.33h120V412H620zM620 412h120v46.67H620zM620 458.67h120v46.66H620z" stroke="#000" stroke-width="2" fill="#bfbfbf"/><path d="M620 505.33h120V552H620z" stroke="#000" stroke-width="2" fill="#bfbfbf"/><use xlink:href="#b" transform="matrix(1,0,0,1,620,272) translate(35.05 27.1)"/><use xlink:href="#c" transform="matrix(1,0,0,1,620,318.6666666666667) translate(35.05 27.1)"/><use xlink:href="#d" transform="matrix(1,0,0,1,620,365.3333333333333) translate(34.574999999999996 27.1)"/><use xlink:href="#e" transform="matrix(1,0,0,1,620,412) translate(34.574999999999996 27.1)"/><use xlink:href="#f" transform="matrix(1,0,0,1,620,458.66666666666663) translate(35.05 27.1)"/><use xlink:href="#g" transform="matrix(1,0,0,1,620,505.3333333333333) translate(35.574999999999996 27.1)"/><path d="M760 272h300v216H760z" stroke="#000" stroke-width="2" fill="#fff"/><use xlink:href="#h" transform="matrix(1,0,0,1,770,293.6) translate(84.025 90.10000000000001)"/><use xlink:href="#i" transform="matrix(1,0,0,1,770,293.6) translate(121.97500000000001 90.10000000000001)"/><use xlink:href="#j" transform="matrix(1,0,0,1,770,293.6) translate(160.97500000000002 90.10000000000001)"/><path d="M760 512h220v40H760z" stroke="#000" stroke-width="2" fill="#fff"/><use xlink:href="#k" transform="matrix(1,0,0,1,770,516) translate(0 19.6)"/><use xlink:href="#l" transform="matrix(1,0,0,1,770,516) translate(43.95 19.6)"/><use xlink:href="#m" transform="matrix(1,0,0,1,770,516) translate(58.95 19.6)"/><path d="M1012 512c-6.63 0-12 5.37-12 12v16c0 6.63 5.37 12 12 12h36c6.63 0 12-5.37 12-12v-16c0-6.63-5.37-12-12-12z" stroke="#000" stroke-width="2" fill="#fff"/><use xlink:href="#n" transform="matrix(1,0,0,1,1010,516) translate(-1 19.6)"/><path d="M619 532.67h-99" stroke="#000" stroke-width="2" fill="none"/><path d="M620 532.1v1.14l-17.7 10.47-1.02-1.7 15.76-9.33-15.76-9.32 1-1.72zM520 533.67v-2z"/><path d="M280 473h240v118H280z" fill="none"/><use xlink:href="#o" transform="matrix(1,0,0,1,285,478) translate(40.57499999999999 14.899999999999993)"/><use xlink:href="#p" transform="matrix(1,0,0,1,285,478) translate(73.52499999999999 14.899999999999993)"/><use xlink:href="#q" transform="matrix(1,0,0,1,285,478) translate(93.52499999999999 14.899999999999993)"/><use xlink:href="#r" transform="matrix(1,0,0,1,285,478) translate(145.475 14.899999999999993)"/><use xlink:href="#s" transform="matrix(1,0,0,1,285,478) translate(4.125 36.49999999999999)"/><use xlink:href="#t" transform="matrix(1,0,0,1,285,478) translate(106.87500000000001 36.49999999999999)"/><use xlink:href="#u" transform="matrix(1,0,0,1,285,478) translate(131.875 36.49999999999999)"/><use xlink:href="#v" transform="matrix(1,0,0,1,285,478) translate(166.875 36.49999999999999)"/><use xlink:href="#w" transform="matrix(1,0,0,1,285,478) translate(186.875 36.49999999999999)"/><use xlink:href="#x" transform="matrix(1,0,0,1,285,478) translate(22.099999999999994 58.099999999999994)"/><use xlink:href="#y" transform="matrix(1,0,0,1,285,478) translate(81 58.099999999999994)"/><use xlink:href="#z" transform="matrix(1,0,0,1,285,478) translate(163.95 58.099999999999994)"/><use xlink:href="#A" transform="matrix(1,0,0,1,285,478) translate(29.075000000000003 79.70000000000002)"/><use xlink:href="#v" transform="matrix(1,0,0,1,285,478) translate(94.075 79.70000000000002)"/><use xlink:href="#B" transform="matrix(1,0,0,1,285,478) translate(114.075 79.70000000000002)"/><use xlink:href="#C" transform="matrix(1,0,0,1,285,478) translate(147.025 79.70000000000002)"/><use xlink:href="#D" transform="matrix(1,0,0,1,285,478) translate(53.55 101.30000000000001)"/><use xlink:href="#E" transform="matrix(1,0,0,1,285,478) translate(131.5 101.30000000000001)"/><path d="M620 212h440v20H620z" fill="none"/><g><use xlink:href="#F" transform="matrix(1,0,0,1,625,217) translate(0 14.4)"/></g><path d="M599 242h482M599 242h-3M1081 242h3" stroke="#000" fill="none"/><defs><path d="M212-179c-10-28-35-45-73-45-59 0-87 40-87 99 0 60 29 101 89 101 43 0 62-24 78-52l27 14C228-24 195 4 139 4 59 4 22-46 18-125c-6-104 99-153 187-111 19 9 31 26 39 46" id="G"/><path d="M106-169C34-169 62-67 57 0H25v-261h32l-1 103c12-21 28-36 61-36 89 0 53 116 60 194h-32v-121c2-32-8-49-39-48" id="H"/><path d="M141-36C126-15 110 5 73 4 37 3 15-17 15-53c-1-64 63-63 125-63 3-35-9-54-41-54-24 1-41 7-42 31l-33-3c5-37 33-52 76-52 45 0 72 20 72 64v82c-1 20 7 32 28 27v20c-31 9-61-2-59-35zM48-53c0 20 12 33 32 33 41-3 63-29 60-74-43 2-92-5-92 41" id="I"/><path d="M59-47c-2 24 18 29 38 22v24C64 9 27 4 27-40v-127H5v-23h24l9-43h21v43h35v23H59v120" id="J"/><path d="M185-189c-5-48-123-54-124 2 14 75 158 14 163 119 3 78-121 87-175 55-17-10-28-26-33-46l33-7c5 56 141 63 141-1 0-78-155-14-162-118-5-82 145-84 179-34 5 7 8 16 11 25" id="K"/><path d="M96-169c-40 0-48 33-48 73s9 75 48 75c24 0 41-14 43-38l32 2c-6 37-31 61-74 61-59 0-76-41-82-99-10-93 101-131 147-64 4 7 5 14 7 22l-32 3c-4-21-16-35-41-35" id="L"/><path d="M114-163C36-179 61-72 57 0H25l-1-190h30c1 12-1 29 2 39 6-27 23-49 58-41v29" id="M"/><path d="M100-194c63 0 86 42 84 106H49c0 40 14 67 53 68 26 1 43-12 49-29l28 8c-11 28-37 45-77 45C44 4 14-33 15-96c1-61 26-98 85-98zm52 81c6-60-76-77-97-28-3 7-6 17-6 28h103" id="N"/><path d="M117-194c89-4 53 116 60 194h-32v-121c0-31-8-49-39-48C34-167 62-67 57 0H25l-1-190h30c1 10-1 24 2 32 11-22 29-35 61-36" id="O"/><g id="a"><use transform="matrix(0.05,0,0,0.05,0,0)" xlink:href="#G"/><use transform="matrix(0.05,0,0,0.05,12.950000000000001,0)" xlink:href="#H"/><use transform="matrix(0.05,0,0,0.05,22.950000000000003,0)" xlink:href="#I"/><use transform="matrix(0.05,0,0,0.05,32.95,0)" xlink:href="#J"/><use transform="matrix(0.05,0,0,0.05,37.95,0)" xlink:href="#K"/><use transform="matrix(0.05,0,0,0.05,49.95,0)" xlink:href="#L"/><use transform="matrix(0.05,0,0,0.05,58.95,0)" xlink:href="#M"/><use transform="matrix(0.05,0,0,0.05,64.9,0)" xlink:href="#N"/><use transform="matrix(0.05,0,0,0.05,74.9,0)" xlink:href="#N"/><use transform="matrix(0.05,0,0,0.05,84.9,0)" xlink:href="#O"/></g><path d="M232-93c-1 65-40 97-104 97C67 4 28-28 28-90v-158h33c8 89-33 224 67 224 102 0 64-133 71-224h33v155" id="P"/><path d="M135-143c-3-34-86-38-87 0 15 53 115 12 119 90S17 21 10-45l28-5c4 36 97 45 98 0-10-56-113-15-118-90-4-57 82-63 122-42 12 7 21 19 24 35" id="Q"/><path d="M205 0l-28-72H64L36 0H1l101-248h38L239 0h-34zm-38-99l-47-123c-12 45-31 82-46 123h93" id="R"/><g id="b"><use transform="matrix(0.05,0,0,0.05,0,0)" xlink:href="#P"/><use transform="matrix(0.05,0,0,0.05,12.950000000000001,0)" xlink:href="#Q"/><use transform="matrix(0.05,0,0,0.05,21.950000000000003,0)" xlink:href="#N"/><use transform="matrix(0.05,0,0,0.05,31.950000000000003,0)" xlink:href="#M"/><use transform="matrix(0.05,0,0,0.05,37.900000000000006,0)" xlink:href="#R"/></g><path d="M160-131c35 5 61 23 61 61C221 17 115-2 30 0v-248c76 3 177-17 177 60 0 33-19 50-47 57zm-97-11c50-1 110 9 110-42 0-47-63-36-110-37v79zm0 115c55-2 124 14 124-45 0-56-70-42-124-44v89" id="S"/><g id="c"><use transform="matrix(0.05,0,0,0.05,0,0)" xlink:href="#P"/><use transform="matrix(0.05,0,0,0.05,12.950000000000001,0)" xlink:href="#Q"/><use transform="matrix(0.05,0,0,0.05,21.950000000000003,0)" xlink:href="#N"/><use transform="matrix(0.05,0,0,0.05,31.950000000000003,0)" xlink:href="#M"/><use transform="matrix(0.05,0,0,0.05,37.900000000000006,0)" xlink:href="#S"/></g><g id="d"><use transform="matrix(0.05,0,0,0.05,0,0)" xlink:href="#P"/><use transform="matrix(0.05,0,0,0.05,12.950000000000001,0)" xlink:href="#Q"/><use transform="matrix(0.05,0,0,0.05,21.950000000000003,0)" xlink:href="#N"/><use transform="matrix(0.05,0,0,0.05,31.950000000000003,0)" xlink:href="#M"/><use transform="matrix(0.05,0,0,0.05,37.900000000000006,0)" xlink:href="#G"/></g><path d="M30-248c118-7 216 8 213 122C240-48 200 0 122 0H30v-248zM63-27c89 8 146-16 146-99s-60-101-146-95v194" id="T"/><g id="e"><use transform="matrix(0.05,0,0,0.05,0,0)" xlink:href="#P"/><use transform="matrix(0.05,0,0,0.05,12.950000000000001,0)" xlink:href="#Q"/><use transform="matrix(0.05,0,0,0.05,21.950000000000003,0)" xlink:href="#N"/><use transform="matrix(0.05,0,0,0.05,31.950000000000003,0)" xlink:href="#M"/><use transform="matrix(0.05,0,0,0.05,37.900000000000006,0)" xlink:href="#T"/></g><path d="M30 0v-248h187v28H63v79h144v27H63v87h162V0H30" id="U"/><g id="f"><use transform="matrix(0.05,0,0,0.05,0,0)" xlink:href="#P"/><use transform="matrix(0.05,0,0,0.05,12.950000000000001,0)" xlink:href="#Q"/><use transform="matrix(0.05,0,0,0.05,21.950000000000003,0)" xlink:href="#N"/><use transform="matrix(0.05,0,0,0.05,31.950000000000003,0)" xlink:href="#M"/><use transform="matrix(0.05,0,0,0.05,37.900000000000006,0)" xlink:href="#U"/></g><path d="M63-220v92h138v28H63V0H30v-248h175v28H63" id="V"/><g id="g"><use transform="matrix(0.05,0,0,0.05,0,0)" xlink:href="#P"/><use transform="matrix(0.05,0,0,0.05,12.950000000000001,0)" xlink:href="#Q"/><use transform="matrix(0.05,0,0,0.05,21.950000000000003,0)" xlink:href="#N"/><use transform="matrix(0.05,0,0,0.05,31.950000000000003,0)" xlink:href="#M"/><use transform="matrix(0.05,0,0,0.05,37.900000000000006,0)" xlink:href="#V"/></g><path d="M30 0v-248h33v221h125V0H30" id="W"/><path d="M24-231v-30h32v30H24zM24 0v-190h32V0H24" id="X"/><path d="M108 0H70L1-190h34L89-25l56-165h34" id="Y"/><g id="h"><use transform="matrix(0.05,0,0,0.05,0,0)" xlink:href="#W"/><use transform="matrix(0.05,0,0,0.05,10,0)" xlink:href="#X"/><use transform="matrix(0.05,0,0,0.05,13.949999999999998,0)" xlink:href="#Y"/><use transform="matrix(0.05,0,0,0.05,22.95,0)" xlink:href="#N"/></g><g id="i"><use transform="matrix(0.05,0,0,0.05,0,0)" xlink:href="#L"/><use transform="matrix(0.05,0,0,0.05,9,0)" xlink:href="#H"/><use transform="matrix(0.05,0,0,0.05,19,0)" xlink:href="#I"/><use transform="matrix(0.05,0,0,0.05,29,0)" xlink:href="#J"/></g><path d="M101-234c-31-9-42 10-38 44h38v23H63V0H32v-167H5v-23h27c-7-52 17-82 69-68v24" id="Z"/><path d="M85-194c31 0 48 13 60 33l-1-100h32l1 261h-30c-2-10 0-23-3-31C134-8 116 4 85 4 32 4 16-35 15-94c0-66 23-100 70-100zm9 24c-40 0-46 34-46 75 0 40 6 74 45 74 42 0 51-32 51-76 0-42-9-74-50-73" id="aa"/><g id="j"><use transform="matrix(0.05,0,0,0.05,0,0)" xlink:href="#Z"/><use transform="matrix(0.05,0,0,0.05,5,0)" xlink:href="#N"/><use transform="matrix(0.05,0,0,0.05,15,0)" xlink:href="#N"/><use transform="matrix(0.05,0,0,0.05,25,0)" xlink:href="#aa"/></g><path d="M127-220V0H93v-220H8v-28h204v28h-85" id="ab"/><path d="M179-190L93 31C79 59 56 82 12 73V49c39 6 53-20 64-50L1-190h34L92-34l54-156h33" id="ac"/><path d="M115-194c55 1 70 41 70 98S169 2 115 4C84 4 66-9 55-30l1 105H24l-1-265h31l2 30c10-21 28-34 59-34zm-8 174c40 0 45-34 45-75s-6-73-45-74c-42 0-51 32-51 76 0 43 10 73 51 73" id="ad"/><g id="k"><use transform="matrix(0.05,0,0,0.05,0,0)" xlink:href="#ab"/><use transform="matrix(0.05,0,0,0.05,9.950000000000001,0)" xlink:href="#ac"/><use transform="matrix(0.05,0,0,0.05,18.950000000000003,0)" xlink:href="#ad"/><use transform="matrix(0.05,0,0,0.05,28.950000000000003,0)" xlink:href="#N"/></g><use transform="matrix(0.05,0,0,0.05,0,0)" xlink:href="#I" id="l"/><path d="M210-169c-67 3-38 105-44 169h-31v-121c0-29-5-50-35-48C34-165 62-65 56 0H25l-1-190h30c1 10-1 24 2 32 10-44 99-50 107 0 11-21 27-35 58-36 85-2 47 119 55 194h-31v-121c0-29-5-49-35-48" id="ae"/><path d="M177-190C167-65 218 103 67 71c-23-6-38-20-44-43l32-5c15 47 100 32 89-28v-30C133-14 115 1 83 1 29 1 15-40 15-95c0-56 16-97 71-98 29-1 48 16 59 35 1-10 0-23 2-32h30zM94-22c36 0 50-32 50-73 0-42-14-75-50-75-39 0-46 34-46 75s6 73 46 73" id="af"/><g id="m"><use transform="matrix(0.05,0,0,0.05,0,0)" xlink:href="#ae"/><use transform="matrix(0.05,0,0,0.05,14.950000000000001,0)" xlink:href="#N"/><use transform="matrix(0.05,0,0,0.05,24.950000000000003,0)" xlink:href="#Q"/><use transform="matrix(0.05,0,0,0.05,33.95,0)" xlink:href="#Q"/><use transform="matrix(0.05,0,0,0.05,42.95,0)" xlink:href="#I"/><use transform="matrix(0.05,0,0,0.05,52.95,0)" xlink:href="#af"/><use transform="matrix(0.05,0,0,0.05,62.95,0)" xlink:href="#N"/></g><g id="n"><use transform="matrix(0.05,0,0,0.05,0,0)" xlink:href="#K"/><use transform="matrix(0.05,0,0,0.05,12,0)" xlink:href="#N"/><use transform="matrix(0.05,0,0,0.05,22,0)" xlink:href="#O"/><use transform="matrix(0.05,0,0,0.05,32,0)" xlink:href="#aa"/></g><g id="o"><use transform="matrix(0.05,0,0,0.05,0,0)" xlink:href="#W"/><use transform="matrix(0.05,0,0,0.05,10,0)" xlink:href="#X"/><use transform="matrix(0.05,0,0,0.05,13.949999999999998,0)" xlink:href="#Q"/><use transform="matrix(0.05,0,0,0.05,22.95,0)" xlink:href="#J"/></g><path d="M100-194c62-1 85 37 85 99 1 63-27 99-86 99S16-35 15-95c0-66 28-99 85-99zM99-20c44 1 53-31 53-75 0-43-8-75-51-75s-53 32-53 75 10 74 51 75" id="ag"/><g id="p"><use transform="matrix(0.05,0,0,0.05,0,0)" xlink:href="#ag"/><use transform="matrix(0.05,0,0,0.05,10,0)" xlink:href="#Z"/></g><g id="q"><use transform="matrix(0.05,0,0,0.05,0,0)" xlink:href="#I"/><use transform="matrix(0.05,0,0,0.05,10,0)" xlink:href="#L"/><use transform="matrix(0.05,0,0,0.05,19,0)" xlink:href="#J"/><use transform="matrix(0.05,0,0,0.05,24,0)" xlink:href="#X"/><use transform="matrix(0.05,0,0,0.05,27.950000000000003,0)" xlink:href="#Y"/><use transform="matrix(0.05,0,0,0.05,36.95,0)" xlink:href="#N"/></g><path d="M84 4C-5 8 30-112 23-190h32v120c0 31 7 50 39 49 72-2 45-101 50-169h31l1 190h-30c-1-10 1-25-2-33-11 22-28 36-60 37" id="ah"/><g id="r"><use transform="matrix(0.05,0,0,0.05,0,0)" xlink:href="#ah"/><use transform="matrix(0.05,0,0,0.05,10,0)" xlink:href="#Q"/><use transform="matrix(0.05,0,0,0.05,19,0)" xlink:href="#N"/><use transform="matrix(0.05,0,0,0.05,29,0)" xlink:href="#M"/><use transform="matrix(0.05,0,0,0.05,34.95,0)" xlink:href="#Q"/></g><path d="M115-194c53 0 69 39 70 98 0 66-23 100-70 100C84 3 66-7 56-30L54 0H23l1-261h32v101c10-23 28-34 59-34zm-8 174c40 0 45-34 45-75 0-40-5-75-45-74-42 0-51 32-51 76 0 43 10 73 51 73" id="ai"/><path d="M24 0v-261h32V0H24" id="aj"/><path d="M16-82v-28h88v28H16" id="ak"/><path d="M143 0L79-87 56-68V0H24v-261h32v163l83-92h37l-77 82L181 0h-38" id="al"/><g id="s"><use transform="matrix(0.05,0,0,0.05,0,0)" xlink:href="#T"/><use transform="matrix(0.05,0,0,0.05,12.950000000000001,0)" xlink:href="#ag"/><use transform="matrix(0.05,0,0,0.05,22.950000000000003,0)" xlink:href="#ah"/><use transform="matrix(0.05,0,0,0.05,32.95,0)" xlink:href="#ai"/><use transform="matrix(0.05,0,0,0.05,42.95,0)" xlink:href="#aj"/><use transform="matrix(0.05,0,0,0.05,46.900000000000006,0)" xlink:href="#N"/><use transform="matrix(0.05,0,0,0.05,56.900000000000006,0)" xlink:href="#ak"/><use transform="matrix(0.05,0,0,0.05,62.85,0)" xlink:href="#L"/><use transform="matrix(0.05,0,0,0.05,71.85000000000001,0)" xlink:href="#aj"/><use transform="matrix(0.05,0,0,0.05,75.80000000000001,0)" xlink:href="#X"/><use transform="matrix(0.05,0,0,0.05,79.75000000000001,0)" xlink:href="#L"/><use transform="matrix(0.05,0,0,0.05,88.75000000000001,0)" xlink:href="#al"/></g><g id="t"><use transform="matrix(0.05,0,0,0.05,0,0)" xlink:href="#ag"/><use transform="matrix(0.05,0,0,0.05,10,0)" xlink:href="#O"/></g><g id="u"><use transform="matrix(0.05,0,0,0.05,0,0)" xlink:href="#ag"/><use transform="matrix(0.05,0,0,0.05,10,0)" xlink:href="#O"/><use transform="matrix(0.05,0,0,0.05,20,0)" xlink:href="#N"/></g><g id="v"><use transform="matrix(0.05,0,0,0.05,0,0)" xlink:href="#J"/><use transform="matrix(0.05,0,0,0.05,5,0)" xlink:href="#ag"/></g><g id="w"><use transform="matrix(0.05,0,0,0.05,0,0)" xlink:href="#Q"/><use transform="matrix(0.05,0,0,0.05,9,0)" xlink:href="#N"/><use transform="matrix(0.05,0,0,0.05,19,0)" xlink:href="#O"/><use transform="matrix(0.05,0,0,0.05,29,0)" xlink:href="#aa"/></g><g id="x"><use transform="matrix(0.05,0,0,0.05,0,0)" xlink:href="#ad"/><use transform="matrix(0.05,0,0,0.05,10,0)" xlink:href="#M"/><use transform="matrix(0.05,0,0,0.05,15.949999999999998,0)" xlink:href="#X"/><use transform="matrix(0.05,0,0,0.05,19.9,0)" xlink:href="#Y"/><use transform="matrix(0.05,0,0,0.05,28.899999999999995,0)" xlink:href="#I"/><use transform="matrix(0.05,0,0,0.05,38.9,0)" xlink:href="#J"/><use transform="matrix(0.05,0,0,0.05,43.9,0)" xlink:href="#N"/></g><path d="M68-38c1 34 0 65-14 84H32c9-13 17-26 17-46H33v-38h35" id="am"/><g id="y"><use transform="matrix(0.05,0,0,0.05,0,0)" xlink:href="#ae"/><use transform="matrix(0.05,0,0,0.05,14.950000000000001,0)" xlink:href="#N"/><use transform="matrix(0.05,0,0,0.05,24.950000000000003,0)" xlink:href="#Q"/><use transform="matrix(0.05,0,0,0.05,33.95,0)" xlink:href="#Q"/><use transform="matrix(0.05,0,0,0.05,42.95,0)" xlink:href="#I"/><use transform="matrix(0.05,0,0,0.05,52.95,0)" xlink:href="#af"/><use transform="matrix(0.05,0,0,0.05,62.95,0)" xlink:href="#N"/><use transform="matrix(0.05,0,0,0.05,72.95,0)" xlink:href="#am"/></g><g id="z"><use transform="matrix(0.05,0,0,0.05,0,0)" xlink:href="#ad"/><use transform="matrix(0.05,0,0,0.05,10,0)" xlink:href="#M"/><use transform="matrix(0.05,0,0,0.05,15.949999999999998,0)" xlink:href="#N"/><use transform="matrix(0.05,0,0,0.05,25.950000000000003,0)" xlink:href="#Q"/><use transform="matrix(0.05,0,0,0.05,34.95,0)" xlink:href="#Q"/></g><g id="A"><use transform="matrix(0.05,0,0,0.05,0,0)" xlink:href="#U"/><use transform="matrix(0.05,0,0,0.05,12,0)" xlink:href="#Q"/><use transform="matrix(0.05,0,0,0.05,21,0)" xlink:href="#L"/><use transform="matrix(0.05,0,0,0.05,30,0)" xlink:href="#I"/><use transform="matrix(0.05,0,0,0.05,40,0)" xlink:href="#ad"/><use transform="matrix(0.05,0,0,0.05,50,0)" xlink:href="#N"/></g><path d="M141 0L90-78 38 0H4l68-98-65-92h35l48 74 47-74h35l-64 92 68 98h-35" id="an"/><g id="B"><use transform="matrix(0.05,0,0,0.05,0,0)" xlink:href="#N"/><use transform="matrix(0.05,0,0,0.05,10,0)" xlink:href="#an"/><use transform="matrix(0.05,0,0,0.05,19,0)" xlink:href="#X"/><use transform="matrix(0.05,0,0,0.05,22.95,0)" xlink:href="#J"/></g><g id="C"><use transform="matrix(0.05,0,0,0.05,0,0)" xlink:href="#ad"/><use transform="matrix(0.05,0,0,0.05,10,0)" xlink:href="#M"/><use transform="matrix(0.05,0,0,0.05,15.949999999999998,0)" xlink:href="#X"/><use transform="matrix(0.05,0,0,0.05,19.9,0)" xlink:href="#Y"/><use transform="matrix(0.05,0,0,0.05,28.899999999999995,0)" xlink:href="#I"/><use transform="matrix(0.05,0,0,0.05,38.9,0)" xlink:href="#J"/><use transform="matrix(0.05,0,0,0.05,43.9,0)" xlink:href="#N"/></g><g id="D"><use transform="matrix(0.05,0,0,0.05,0,0)" xlink:href="#ae"/><use transform="matrix(0.05,0,0,0.05,14.950000000000001,0)" xlink:href="#N"/><use transform="matrix(0.05,0,0,0.05,24.950000000000003,0)" xlink:href="#Q"/><use transform="matrix(0.05,0,0,0.05,33.95,0)" xlink:href="#Q"/><use transform="matrix(0.05,0,0,0.05,42.95,0)" xlink:href="#I"/><use transform="matrix(0.05,0,0,0.05,52.95,0)" xlink:href="#af"/><use transform="matrix(0.05,0,0,0.05,62.95,0)" xlink:href="#N"/></g><g id="E"><use transform="matrix(0.05,0,0,0.05,0,0)" xlink:href="#ae"/><use transform="matrix(0.05,0,0,0.05,14.950000000000001,0)" xlink:href="#ag"/><use transform="matrix(0.05,0,0,0.05,24.950000000000003,0)" xlink:href="#aa"/><use transform="matrix(0.05,0,0,0.05,34.95,0)" xlink:href="#N"/></g><g id="F"><use transform="matrix(0.05,0,0,0.05,0,0)" xlink:href="#G"/><use transform="matrix(0.05,0,0,0.05,12.950000000000001,0)" xlink:href="#H"/><use transform="matrix(0.05,0,0,0.05,22.950000000000003,0)" xlink:href="#I"/><use transform="matrix(0.05,0,0,0.05,32.95,0)" xlink:href="#J"/></g></defs></g></svg>