<svg xmlns="http://www.w3.org/2000/svg" xmlns:xlink="http://www.w3.org/1999/xlink" width="960" height="940"><g transform="translate(-200 -60)"><path d="M260 140h360v240H260z" stroke="#000" stroke-width="2" fill="#fff"/><path d="M260 178h360m-360 85h360" stroke="#000" stroke-width="2" fill="none"/><use xlink:href="#a" transform="matrix(1,0,0,1,268,140) translate(130.1 22.6)"/><use xlink:href="#b" transform="matrix(1,0,0,1,272,185.6) translate(0 27.799999999999997)"/><use xlink:href="#c" transform="matrix(1,0,0,1,272,185.6) translate(15.5 27.799999999999997)"/><use xlink:href="#b" transform="matrix(1,0,0,1,272,185.6) translate(0 49.4)"/><use xlink:href="#d" transform="matrix(1,0,0,1,272,185.6) translate(15.5 49.4)"/><use xlink:href="#b" transform="matrix(1,0,0,1,272,271.1862857142857) translate(0 54.1)"/><use xlink:href="#e" transform="matrix(1,0,0,1,272,271.1862857142857) translate(15.5 54.1)"/><use xlink:href="#f" transform="matrix(1,0,0,1,272,271.1862857142857) translate(46.45 54.1)"/><use xlink:href="#g" transform="matrix(1,0,0,1,272,271.1862857142857) translate(57.400000000000006 54.1)"/><use xlink:href="#h" transform="matrix(1,0,0,1,272,271.1862857142857) translate(68.35000000000001 54.1)"/><use xlink:href="#i" transform="matrix(1,0,0,1,272,271.1862857142857) translate(78.35000000000001 54.1)"/><path d="M220 460h160v120H220z" stroke="#000" stroke-width="2" fill="#fff"/><use xlink:href="#j" transform="matrix(1,0,0,1,228,468) translate(21.549999999999997 55.6)"/><path d="M220 660h160v120H220z" stroke="#000" stroke-width="2" fill="#fff"/><use xlink:href="#k" transform="matrix(1,0,0,1,228,668) translate(-4.375 55.6)"/><path d="M940 460h160v120H940z" stroke="#000" stroke-width="2" fill="#fff"/><use xlink:href="#l" transform="matrix(1,0,0,1,948,468) translate(24.549999999999997 55.6)"/><path d="M940 660h160v120H940z" stroke="#000" stroke-width="2" fill="#fff"/><use xlink:href="#m" transform="matrix(1,0,0,1,948,668) translate(-3.375 55.6)"/><path d="M700 80h440v300H700z" stroke="#000" stroke-width="2" fill="#fff"/><path d="M700 139h440m-440 72h440" stroke="#000" stroke-width="2" fill="none"/><use xlink:href="#n" transform="matrix(1,0,0,1,708,80) translate(127.6 22.799999999999997)"/><use xlink:href="#o" transform="matrix(1,0,0,1,708,80) translate(233.4 22.799999999999997)"/><use xlink:href="#p" transform="matrix(1,0,0,1,708,80) translate(83.15 44.4)"/><use xlink:href="#b" transform="matrix(1,0,0,1,712,218.5170731707317) translate(0 59)"/><use xlink:href="#q" transform="matrix(1,0,0,1,712,218.5170731707317) translate(15.5 59)"/><use xlink:href="#f" transform="matrix(1,0,0,1,712,218.5170731707317) translate(132.4 59)"/><use xlink:href="#r" transform="matrix(1,0,0,1,712,218.5170731707317) translate(143.35 59)"/><use xlink:href="#g" transform="matrix(1,0,0,1,712,218.5170731707317) translate(340.04999999999995 59)"/><use xlink:href="#h" transform="matrix(1,0,0,1,712,218.5170731707317) translate(350.99999999999994 59)"/><use xlink:href="#s" transform="matrix(1,0,0,1,712,218.5170731707317) translate(360.99999999999994 59)"/><use xlink:href="#b" transform="matrix(1,0,0,1,712,218.5170731707317) translate(0 80.60000000000001)"/><use xlink:href="#t" transform="matrix(1,0,0,1,712,218.5170731707317) translate(15.5 80.60000000000001)"/><use xlink:href="#f" transform="matrix(1,0,0,1,712,218.5170731707317) translate(126.4 80.60000000000001)"/><use xlink:href="#u" transform="matrix(1,0,0,1,712,218.5170731707317) translate(137.35 80.60000000000001)"/><use xlink:href="#v" transform="matrix(1,0,0,1,712,218.5170731707317) translate(339.04999999999995 80.60000000000001)"/><use xlink:href="#w" transform="matrix(1,0,0,1,712,218.5170731707317) translate(395.99999999999994 80.60000000000001)"/><use xlink:href="#b" transform="matrix(1,0,0,1,712,218.5170731707317) translate(0 102.20000000000002)"/><use xlink:href="#x" transform="matrix(1,0,0,1,712,218.5170731707317) translate(15.5 102.20000000000002)"/><use xlink:href="#f" transform="matrix(1,0,0,1,712,218.5170731707317) translate(145.4 102.20000000000002)"/><use xlink:href="#r" transform="matrix(1,0,0,1,712,218.5170731707317) translate(156.35 102.20000000000002)"/><use xlink:href="#g" transform="matrix(1,0,0,1,712,218.5170731707317) translate(353.04999999999995 102.20000000000002)"/><use xlink:href="#h" transform="matrix(1,0,0,1,712,218.5170731707317) translate(363.99999999999994 102.20000000000002)"/><use xlink:href="#i" transform="matrix(1,0,0,1,712,218.5170731707317) translate(373.99999999999994 102.20000000000002)"/><path d="M460 460h400v340H460z" stroke="#000" stroke-width="2" fill="#fff"/><path d="M460 498h400m-400 66h400" stroke="#000" stroke-width="2" fill="none"/><g><use xlink:href="#y" transform="matrix(1,0,0,1,468,460) translate(129.1 22.6)"/></g><g><use xlink:href="#z" transform="matrix(1,0,0,1,472,505.6) translate(0 18.299999999999997)"/><use xlink:href="#A" transform="matrix(1,0,0,1,472,505.6) translate(15.5 18.299999999999997)"/><use xlink:href="#B" transform="matrix(1,0,0,1,472,505.6) translate(83.45 18.299999999999997)"/><use xlink:href="#C" transform="matrix(1,0,0,1,472,505.6) translate(93.45 18.299999999999997)"/><use xlink:href="#z" transform="matrix(1,0,0,1,472,505.6) translate(0 39.9)"/><use xlink:href="#D" transform="matrix(1,0,0,1,472,505.6) translate(15.5 39.9)"/><use xlink:href="#B" transform="matrix(1,0,0,1,472,505.6) translate(62.4 39.9)"/><use xlink:href="#E" transform="matrix(1,0,0,1,472,505.6) translate(72.4 39.9)"/></g><g><use xlink:href="#F" transform="matrix(1,0,0,1,472,572.0023738872404) translate(0 27.20000000000001)"/><use xlink:href="#G" transform="matrix(1,0,0,1,472,572.0023738872404) translate(15.5 27.20000000000001)"/><use xlink:href="#H" transform="matrix(1,0,0,1,472,572.0023738872404) translate(70.35000000000001 27.20000000000001)"/><use xlink:href="#I" transform="matrix(1,0,0,1,472,572.0023738872404) translate(122.25 27.20000000000001)"/><use xlink:href="#J" transform="matrix(1,0,0,1,472,572.0023738872404) translate(132.25 27.20000000000001)"/><use xlink:href="#K" transform="matrix(1,0,0,1,472,572.0023738872404) translate(142.25 27.20000000000001)"/><use xlink:href="#g" transform="matrix(1,0,0,1,472,572.0023738872404) translate(182.2 27.20000000000001)"/><use xlink:href="#h" transform="matrix(1,0,0,1,472,572.0023738872404) translate(193.14999999999998 27.20000000000001)"/><use xlink:href="#s" transform="matrix(1,0,0,1,472,572.0023738872404) translate(203.14999999999998 27.20000000000001)"/><use xlink:href="#z" transform="matrix(1,0,0,1,472,572.0023738872404) translate(0 48.80000000000001)"/><use xlink:href="#L" transform="matrix(1,0,0,1,472,572.0023738872404) translate(15.5 48.80000000000001)"/><use xlink:href="#M" transform="matrix(1,0,0,1,472,572.0023738872404) translate(58.4 48.80000000000001)"/><use xlink:href="#N" transform="matrix(1,0,0,1,472,572.0023738872404) translate(69.35 48.80000000000001)"/><use xlink:href="#N" transform="matrix(1,0,0,1,472,572.0023738872404) translate(126.25 48.80000000000001)"/><use xlink:href="#N" transform="matrix(1,0,0,1,472,572.0023738872404) translate(183.15 48.80000000000001)"/><use xlink:href="#O" transform="matrix(1,0,0,1,472,572.0023738872404) translate(240.05 48.80000000000001)"/><use xlink:href="#P" transform="matrix(1,0,0,1,472,572.0023738872404) translate(291.95 48.80000000000001)"/><use xlink:href="#B" transform="matrix(1,0,0,1,472,572.0023738872404) translate(302.9 48.80000000000001)"/><use xlink:href="#Q" transform="matrix(1,0,0,1,472,572.0023738872404) translate(312.9 48.80000000000001)"/><use xlink:href="#z" transform="matrix(1,0,0,1,472,572.0023738872404) translate(0 70.40000000000002)"/><use xlink:href="#R" transform="matrix(1,0,0,1,472,572.0023738872404) translate(15.5 70.40000000000002)"/><use xlink:href="#M" transform="matrix(1,0,0,1,472,572.0023738872404) translate(80.35 70.40000000000002)"/><use xlink:href="#N" transform="matrix(1,0,0,1,472,572.0023738872404) translate(91.3 70.40000000000002)"/><use xlink:href="#N" transform="matrix(1,0,0,1,472,572.0023738872404) translate(148.2 70.40000000000002)"/><use xlink:href="#N" transform="matrix(1,0,0,1,472,572.0023738872404) translate(205.1 70.40000000000002)"/><use xlink:href="#O" transform="matrix(1,0,0,1,472,572.0023738872404) translate(262 70.40000000000002)"/><use xlink:href="#P" transform="matrix(1,0,0,1,472,572.0023738872404) translate(313.9 70.40000000000002)"/><use xlink:href="#B" transform="matrix(1,0,0,1,472,572.0023738872404) translate(324.84999999999997 70.40000000000002)"/><use xlink:href="#Q" transform="matrix(1,0,0,1,472,572.0023738872404) translate(334.84999999999997 70.40000000000002)"/><use xlink:href="#z" transform="matrix(1,0,0,1,472,572.0023738872404) translate(0 92.00000000000003)"/><use xlink:href="#S" transform="matrix(1,0,0,1,472,572.0023738872404) translate(15.5 92.00000000000003)"/><use xlink:href="#M" transform="matrix(1,0,0,1,472,572.0023738872404) translate(181.35000000000002 92.00000000000003)"/><use xlink:href="#O" transform="matrix(1,0,0,1,472,572.0023738872404) translate(192.3 92.00000000000003)"/><use xlink:href="#P" transform="matrix(1,0,0,1,472,572.0023738872404) translate(244.20000000000002 92.00000000000003)"/><use xlink:href="#B" transform="matrix(1,0,0,1,472,572.0023738872404) translate(255.15 92.00000000000003)"/><use xlink:href="#Q" transform="matrix(1,0,0,1,472,572.0023738872404) translate(265.15 92.00000000000003)"/><use xlink:href="#z" transform="matrix(1,0,0,1,472,572.0023738872404) translate(0 113.60000000000002)"/><use xlink:href="#T" transform="matrix(1,0,0,1,472,572.0023738872404) translate(15.5 113.60000000000002)"/><use xlink:href="#M" transform="matrix(1,0,0,1,472,572.0023738872404) translate(188.35000000000002 113.60000000000002)"/><use xlink:href="#N" transform="matrix(1,0,0,1,472,572.0023738872404) translate(199.3 113.60000000000002)"/><use xlink:href="#O" transform="matrix(1,0,0,1,472,572.0023738872404) translate(256.2 113.60000000000002)"/><use xlink:href="#P" transform="matrix(1,0,0,1,472,572.0023738872404) translate(308.09999999999997 113.60000000000002)"/><use xlink:href="#B" transform="matrix(1,0,0,1,472,572.0023738872404) translate(319.04999999999995 113.60000000000002)"/><use xlink:href="#Q" transform="matrix(1,0,0,1,472,572.0023738872404) translate(329.04999999999995 113.60000000000002)"/><use xlink:href="#z" transform="matrix(1,0,0,1,472,572.0023738872404) translate(0 135.20000000000002)"/><use xlink:href="#U" transform="matrix(1,0,0,1,472,572.0023738872404) translate(15.5 135.20000000000002)"/><use xlink:href="#M" transform="matrix(1,0,0,1,472,572.0023738872404) translate(69.45 135.20000000000002)"/><use xlink:href="#P" transform="matrix(1,0,0,1,472,572.0023738872404) translate(80.4 135.20000000000002)"/><use xlink:href="#B" transform="matrix(1,0,0,1,472,572.0023738872404) translate(91.35000000000001 135.20000000000002)"/><use xlink:href="#Q" transform="matrix(1,0,0,1,472,572.0023738872404) translate(101.35000000000001 135.20000000000002)"/><use xlink:href="#z" transform="matrix(1,0,0,1,472,572.0023738872404) translate(0 156.8)"/><use xlink:href="#V" transform="matrix(1,0,0,1,472,572.0023738872404) translate(15.5 156.8)"/><use xlink:href="#M" transform="matrix(1,0,0,1,472,572.0023738872404) translate(134.45 156.8)"/><use xlink:href="#P" transform="matrix(1,0,0,1,472,572.0023738872404) translate(145.39999999999998 156.8)"/><use xlink:href="#B" transform="matrix(1,0,0,1,472,572.0023738872404) translate(156.34999999999997 156.8)"/><use xlink:href="#Q" transform="matrix(1,0,0,1,472,572.0023738872404) translate(166.34999999999997 156.8)"/><use xlink:href="#z" transform="matrix(1,0,0,1,472,572.0023738872404) translate(0 178.4)"/><use xlink:href="#W" transform="matrix(1,0,0,1,472,572.0023738872404) translate(15.5 178.4)"/><use xlink:href="#M" transform="matrix(1,0,0,1,472,572.0023738872404) translate(136.3 178.4)"/><use xlink:href="#P" transform="matrix(1,0,0,1,472,572.0023738872404) translate(147.25 178.4)"/><use xlink:href="#B" transform="matrix(1,0,0,1,472,572.0023738872404) translate(158.2 178.4)"/><use xlink:href="#Q" transform="matrix(1,0,0,1,472,572.0023738872404) translate(168.2 178.4)"/><use xlink:href="#z" transform="matrix(1,0,0,1,472,572.0023738872404) translate(0 200)"/><use xlink:href="#X" transform="matrix(1,0,0,1,472,572.0023738872404) translate(15.5 200)"/><use xlink:href="#M" transform="matrix(1,0,0,1,472,572.0023738872404) translate(156.4 200)"/><use xlink:href="#O" transform="matrix(1,0,0,1,472,572.0023738872404) translate(167.35 200)"/><use xlink:href="#P" transform="matrix(1,0,0,1,472,572.0023738872404) translate(219.25 200)"/><use xlink:href="#B" transform="matrix(1,0,0,1,472,572.0023738872404) translate(230.2 200)"/><use xlink:href="#Y" transform="matrix(1,0,0,1,472,572.0023738872404) translate(240.2 200)"/></g><path d="M580 860h160v120H580z" stroke="#000" stroke-width="2" fill="#fff"/><g><use xlink:href="#Z" transform="matrix(1,0,0,1,588,868) translate(5.549999999999997 34)"/><use xlink:href="#aa" transform="matrix(1,0,0,1,588,868) translate(68.5 34)"/><use xlink:href="#ab" transform="matrix(1,0,0,1,588,868) translate(10.024999999999999 55.6)"/><use xlink:href="#ac" transform="matrix(1,0,0,1,588,868) translate(39.05 77.2)"/></g><path d="M620 260h78.78" stroke="#000" stroke-width="2" fill="none"/><path d="M700 259.56v.88l-17.93 10.6-1.02-1.72L696.8 260l-15.75-9.32 1.02-1.72z"/><path d="M660 460v-40H440v-40" stroke="#000" stroke-width="2" fill="none"/><path d="M451.04 396.7l-1.72 1.02-9.32-15.76-9.32 15.76-1.72-1 9.88-16.72h2.32z"/><path d="M660 460v-40h260v-40" stroke="#000" stroke-width="2" fill="none"/><path d="M931.04 396.7l-1.72 1.02-9.32-15.76-9.32 15.76-1.72-1 9.88-16.72h2.32z"/><path d="M940 520h-39.44v3.75H861.1" stroke="#000" stroke-width="2" fill="none"/><path d="M861.1 524.75H860v-2h1.1z"/><path d="M940 720h-39.44v16.25H861.1" stroke="#000" stroke-width="2" fill="none"/><path d="M861.1 737.25H860v-2h1.1z"/><path d="M660 860v-58.94" stroke="#000" stroke-width="2" fill="none"/><path d="M671.04 843.3l-9.88 16.7h-2.32l-9.88-16.7 1.72-1.02 9.32 15.76 9.32-15.76zM661 801.06h-2V800h2z"/><path d="M380 720h39.44v16.25h39.45" stroke="#000" stroke-width="2" fill="none"/><path d="M460 737.25h-1.1v-2h1.1z"/><path d="M380 520h39.44v3.75h39.45" stroke="#000" stroke-width="2" fill="none"/><path d="M460 524.75h-1.1v-2h1.1z"/><defs><path d="M212-179c-10-28-35-45-73-45-59 0-87 40-87 99 0 60 29 101 89 101 43 0 62-24 78-52l27 14C228-24 195 4 139 4 59 4 22-46 18-125c-6-104 99-153 187-111 19 9 31 26 39 46" id="ad"/><path d="M106-169C34-169 62-67 57 0H25v-261h32l-1 103c12-21 28-36 61-36 89 0 53 116 60 194h-32v-121c2-32-8-49-39-48" id="ae"/><path d="M141-36C126-15 110 5 73 4 37 3 15-17 15-53c-1-64 63-63 125-63 3-35-9-54-41-54-24 1-41 7-42 31l-33-3c5-37 33-52 76-52 45 0 72 20 72 64v82c-1 20 7 32 28 27v20c-31 9-61-2-59-35zM48-53c0 20 12 33 32 33 41-3 63-29 60-74-43 2-92-5-92 41" id="af"/><path d="M59-47c-2 24 18 29 38 22v24C64 9 27 4 27-40v-127H5v-23h24l9-43h21v43h35v23H59v120" id="ag"/><path d="M24 0v-261h32V0H24" id="ah"/><path d="M24-231v-30h32v30H24zM24 0v-190h32V0H24" id="ai"/><path d="M100-194c63 0 86 42 84 106H49c0 40 14 67 53 68 26 1 43-12 49-29l28 8c-11 28-37 45-77 45C44 4 14-33 15-96c1-61 26-98 85-98zm52 81c6-60-76-77-97-28-3 7-6 17-6 28h103" id="aj"/><path d="M117-194c89-4 53 116 60 194h-32v-121c0-31-8-49-39-48C34-167 62-67 57 0H25l-1-190h30c1 10-1 24 2 32 11-22 29-35 61-36" id="ak"/><g id="a"><use transform="matrix(0.05,0,0,0.05,0,0)" xlink:href="#ad"/><use transform="matrix(0.05,0,0,0.05,12.950000000000001,0)" xlink:href="#ae"/><use transform="matrix(0.05,0,0,0.05,22.950000000000003,0)" xlink:href="#af"/><use transform="matrix(0.05,0,0,0.05,32.95,0)" xlink:href="#ag"/><use transform="matrix(0.05,0,0,0.05,37.95,0)" xlink:href="#ad"/><use transform="matrix(0.05,0,0,0.05,50.900000000000006,0)" xlink:href="#ah"/><use transform="matrix(0.05,0,0,0.05,54.85,0)" xlink:href="#ai"/><use transform="matrix(0.05,0,0,0.05,58.80000000000001,0)" xlink:href="#aj"/><use transform="matrix(0.05,0,0,0.05,68.80000000000001,0)" xlink:href="#ak"/><use transform="matrix(0.05,0,0,0.05,78.80000000000001,0)" xlink:href="#ag"/></g><path d="M118-107v75H92v-75H18v-26h74v-75h26v75h74v26h-74" id="al"/><use transform="matrix(0.05,0,0,0.05,0,0)" xlink:href="#al" id="b"/><path d="M100-194c62-1 85 37 85 99 1 63-27 99-86 99S16-35 15-95c0-66 28-99 85-99zM99-20c44 1 53-31 53-75 0-43-8-75-51-75s-53 32-53 75 10 74 51 75" id="am"/><path d="M135-143c-3-34-86-38-87 0 15 53 115 12 119 90S17 21 10-45l28-5c4 36 97 45 98 0-10-56-113-15-118-90-4-57 82-63 122-42 12 7 21 19 24 35" id="an"/><g id="c"><use transform="matrix(0.05,0,0,0.05,0,0)" xlink:href="#ae"/><use transform="matrix(0.05,0,0,0.05,10,0)" xlink:href="#am"/><use transform="matrix(0.05,0,0,0.05,20,0)" xlink:href="#an"/><use transform="matrix(0.05,0,0,0.05,29,0)" xlink:href="#ag"/></g><path d="M115-194c55 1 70 41 70 98S169 2 115 4C84 4 66-9 55-30l1 105H24l-1-265h31l2 30c10-21 28-34 59-34zm-8 174c40 0 45-34 45-75s-6-73-45-74c-42 0-51 32-51 76 0 43 10 73 51 73" id="ao"/><path d="M114-163C36-179 61-72 57 0H25l-1-190h30c1 12-1 29 2 39 6-27 23-49 58-41v29" id="ap"/><g id="d"><use transform="matrix(0.05,0,0,0.05,0,0)" xlink:href="#ao"/><use transform="matrix(0.05,0,0,0.05,10,0)" xlink:href="#am"/><use transform="matrix(0.05,0,0,0.05,20,0)" xlink:href="#ap"/><use transform="matrix(0.05,0,0,0.05,25.950000000000003,0)" xlink:href="#ag"/></g><path d="M84 4C-5 8 30-112 23-190h32v120c0 31 7 50 39 49 72-2 45-101 50-169h31l1 190h-30c-1-10 1-25-2-33-11 22-28 36-60 37" id="aq"/><g id="e"><use transform="matrix(0.05,0,0,0.05,0,0)" xlink:href="#ap"/><use transform="matrix(0.05,0,0,0.05,5.95,0)" xlink:href="#aq"/><use transform="matrix(0.05,0,0,0.05,15.949999999999998,0)" xlink:href="#ak"/></g><path d="M87 75C49 33 22-17 22-94c0-76 28-126 65-167h31c-38 41-64 92-64 168S80 34 118 75H87" id="ar"/><use transform="matrix(0.05,0,0,0.05,0,0)" xlink:href="#ar" id="f"/><path d="M33-261c38 41 65 92 65 168S71 34 33 75H2C39 34 66-17 66-93S39-220 2-261h31" id="as"/><use transform="matrix(0.05,0,0,0.05,0,0)" xlink:href="#as" id="g"/><path d="M33-154v-36h34v36H33zM33 0v-36h34V0H33" id="at"/><use transform="matrix(0.05,0,0,0.05,0,0)" xlink:href="#at" id="h"/><path d="M108 0H70L1-190h34L89-25l56-165h34" id="au"/><path d="M85-194c31 0 48 13 60 33l-1-100h32l1 261h-30c-2-10 0-23-3-31C134-8 116 4 85 4 32 4 16-35 15-94c0-66 23-100 70-100zm9 24c-40 0-46 34-46 75 0 40 6 74 45 74 42 0 51-32 51-76 0-42-9-74-50-73" id="av"/><g id="i"><use transform="matrix(0.05,0,0,0.05,0,0)" xlink:href="#au"/><use transform="matrix(0.05,0,0,0.05,9,0)" xlink:href="#am"/><use transform="matrix(0.05,0,0,0.05,19,0)" xlink:href="#ai"/><use transform="matrix(0.05,0,0,0.05,22.95,0)" xlink:href="#av"/></g><path d="M30 0v-248h33v221h125V0H30" id="aw"/><path d="M177-190C167-65 218 103 67 71c-23-6-38-20-44-43l32-5c15 47 100 32 89-28v-30C133-14 115 1 83 1 29 1 15-40 15-95c0-56 16-97 71-98 29-1 48 16 59 35 1-10 0-23 2-32h30zM94-22c36 0 50-32 50-73 0-42-14-75-50-75-39 0-46 34-46 75s6 73 46 73" id="ax"/><path d="M185-189c-5-48-123-54-124 2 14 75 158 14 163 119 3 78-121 87-175 55-17-10-28-26-33-46l33-7c5 56 141 63 141-1 0-78-155-14-162-118-5-82 145-84 179-34 5 7 8 16 11 25" id="ay"/><path d="M96-169c-40 0-48 33-48 73s9 75 48 75c24 0 41-14 43-38l32 2c-6 37-31 61-74 61-59 0-76-41-82-99-10-93 101-131 147-64 4 7 5 14 7 22l-32 3c-4-21-16-35-41-35" id="az"/><g id="j"><use transform="matrix(0.05,0,0,0.05,0,0)" xlink:href="#aw"/><use transform="matrix(0.05,0,0,0.05,10,0)" xlink:href="#am"/><use transform="matrix(0.05,0,0,0.05,20,0)" xlink:href="#ax"/><use transform="matrix(0.05,0,0,0.05,30,0)" xlink:href="#ai"/><use transform="matrix(0.05,0,0,0.05,33.95,0)" xlink:href="#ak"/><use transform="matrix(0.05,0,0,0.05,43.95,0)" xlink:href="#ay"/><use transform="matrix(0.05,0,0,0.05,55.95,0)" xlink:href="#az"/><use transform="matrix(0.05,0,0,0.05,64.95,0)" xlink:href="#ap"/><use transform="matrix(0.05,0,0,0.05,70.9,0)" xlink:href="#aj"/><use transform="matrix(0.05,0,0,0.05,80.9,0)" xlink:href="#aj"/><use transform="matrix(0.05,0,0,0.05,90.9,0)" xlink:href="#ak"/></g><path d="M233-177c-1 41-23 64-60 70L243 0h-38l-65-103H63V0H30v-248c88 3 205-21 203 71zM63-129c60-2 137 13 137-47 0-61-80-42-137-45v92" id="aA"/><g id="k"><use transform="matrix(0.05,0,0,0.05,0,0)" xlink:href="#aA"/><use transform="matrix(0.05,0,0,0.05,12.950000000000001,0)" xlink:href="#aj"/><use transform="matrix(0.05,0,0,0.05,22.950000000000003,0)" xlink:href="#ax"/><use transform="matrix(0.05,0,0,0.05,32.95,0)" xlink:href="#ai"/><use transform="matrix(0.05,0,0,0.05,36.900000000000006,0)" xlink:href="#an"/><use transform="matrix(0.05,0,0,0.05,45.900000000000006,0)" xlink:href="#ag"/><use transform="matrix(0.05,0,0,0.05,50.900000000000006,0)" xlink:href="#ap"/><use transform="matrix(0.05,0,0,0.05,56.85,0)" xlink:href="#af"/><use transform="matrix(0.05,0,0,0.05,66.85000000000001,0)" xlink:href="#ag"/><use transform="matrix(0.05,0,0,0.05,71.85000000000001,0)" xlink:href="#ai"/><use transform="matrix(0.05,0,0,0.05,75.80000000000001,0)" xlink:href="#am"/><use transform="matrix(0.05,0,0,0.05,85.80000000000001,0)" xlink:href="#ak"/><use transform="matrix(0.05,0,0,0.05,95.80000000000001,0)" xlink:href="#ay"/><use transform="matrix(0.05,0,0,0.05,107.80000000000001,0)" xlink:href="#az"/><use transform="matrix(0.05,0,0,0.05,116.80000000000001,0)" xlink:href="#ap"/><use transform="matrix(0.05,0,0,0.05,122.75,0)" xlink:href="#aj"/><use transform="matrix(0.05,0,0,0.05,132.75,0)" xlink:href="#aj"/><use transform="matrix(0.05,0,0,0.05,142.75,0)" xlink:href="#ak"/></g><g id="l"><use transform="matrix(0.05,0,0,0.05,0,0)" xlink:href="#ad"/><use transform="matrix(0.05,0,0,0.05,12.950000000000001,0)" xlink:href="#ae"/><use transform="matrix(0.05,0,0,0.05,22.950000000000003,0)" xlink:href="#af"/><use transform="matrix(0.05,0,0,0.05,32.95,0)" xlink:href="#ag"/><use transform="matrix(0.05,0,0,0.05,37.95,0)" xlink:href="#ay"/><use transform="matrix(0.05,0,0,0.05,49.95,0)" xlink:href="#az"/><use transform="matrix(0.05,0,0,0.05,58.95,0)" xlink:href="#ap"/><use transform="matrix(0.05,0,0,0.05,64.9,0)" xlink:href="#aj"/><use transform="matrix(0.05,0,0,0.05,74.9,0)" xlink:href="#aj"/><use transform="matrix(0.05,0,0,0.05,84.9,0)" xlink:href="#ak"/></g><path d="M197 0v-115H63V0H30v-248h33v105h134v-105h34V0h-34" id="aB"/><path d="M179-190L93 31C79 59 56 82 12 73V49c39 6 53-20 64-50L1-190h34L92-34l54-156h33" id="aC"/><g id="m"><use transform="matrix(0.05,0,0,0.05,0,0)" xlink:href="#ad"/><use transform="matrix(0.05,0,0,0.05,12.950000000000001,0)" xlink:href="#ae"/><use transform="matrix(0.05,0,0,0.05,22.950000000000003,0)" xlink:href="#af"/><use transform="matrix(0.05,0,0,0.05,32.95,0)" xlink:href="#ag"/><use transform="matrix(0.05,0,0,0.05,37.95,0)" xlink:href="#aB"/><use transform="matrix(0.05,0,0,0.05,50.900000000000006,0)" xlink:href="#ai"/><use transform="matrix(0.05,0,0,0.05,54.85,0)" xlink:href="#an"/><use transform="matrix(0.05,0,0,0.05,63.85,0)" xlink:href="#ag"/><use transform="matrix(0.05,0,0,0.05,68.85000000000001,0)" xlink:href="#am"/><use transform="matrix(0.05,0,0,0.05,78.85000000000001,0)" xlink:href="#ap"/><use transform="matrix(0.05,0,0,0.05,84.80000000000001,0)" xlink:href="#aC"/><use transform="matrix(0.05,0,0,0.05,93.80000000000001,0)" xlink:href="#ay"/><use transform="matrix(0.05,0,0,0.05,105.80000000000001,0)" xlink:href="#az"/><use transform="matrix(0.05,0,0,0.05,114.80000000000001,0)" xlink:href="#ap"/><use transform="matrix(0.05,0,0,0.05,120.75,0)" xlink:href="#aj"/><use transform="matrix(0.05,0,0,0.05,130.75,0)" xlink:href="#aj"/><use transform="matrix(0.05,0,0,0.05,140.75,0)" xlink:href="#ak"/></g><g id="n"><use transform="matrix(0.05,0,0,0.05,0,0)" xlink:href="#ad"/><use transform="matrix(0.05,0,0,0.05,12.950000000000001,0)" xlink:href="#ae"/><use transform="matrix(0.05,0,0,0.05,22.950000000000003,0)" xlink:href="#af"/><use transform="matrix(0.05,0,0,0.05,32.95,0)" xlink:href="#ag"/><use transform="matrix(0.05,0,0,0.05,37.95,0)" xlink:href="#aB"/><use transform="matrix(0.05,0,0,0.05,50.900000000000006,0)" xlink:href="#af"/><use transform="matrix(0.05,0,0,0.05,60.900000000000006,0)" xlink:href="#ak"/><use transform="matrix(0.05,0,0,0.05,70.9,0)" xlink:href="#av"/><use transform="matrix(0.05,0,0,0.05,80.9,0)" xlink:href="#ah"/><use transform="matrix(0.05,0,0,0.05,84.85000000000001,0)" xlink:href="#aj"/><use transform="matrix(0.05,0,0,0.05,94.85000000000001,0)" xlink:href="#ap"/></g><path d="M141 0L90-78 38 0H4l68-98-65-92h35l48 74 47-74h35l-64 92 68 98h-35" id="aD"/><g id="o"><use transform="matrix(0.05,0,0,0.05,0,0)" xlink:href="#aj"/><use transform="matrix(0.05,0,0,0.05,10,0)" xlink:href="#aD"/><use transform="matrix(0.05,0,0,0.05,19,0)" xlink:href="#ag"/><use transform="matrix(0.05,0,0,0.05,24,0)" xlink:href="#aj"/><use transform="matrix(0.05,0,0,0.05,34,0)" xlink:href="#ak"/><use transform="matrix(0.05,0,0,0.05,44,0)" xlink:href="#av"/><use transform="matrix(0.05,0,0,0.05,54,0)" xlink:href="#an"/></g><path d="M33 0v-248h34V0H33" id="aE"/><path d="M115-194c53 0 69 39 70 98 0 66-23 100-70 100C84 3 66-7 56-30L54 0H23l1-261h32v101c10-23 28-34 59-34zm-8 174c40 0 45-34 45-75 0-40-5-75-45-74-42 0-51 32-51 76 0 43 10 73 51 73" id="aF"/><path d="M205 0l-28-72H64L36 0H1l101-248h38L239 0h-34zm-38-99l-47-123c-12 45-31 82-46 123h93" id="aG"/><g id="p"><use transform="matrix(0.05,0,0,0.05,0,0)" xlink:href="#ad"/><use transform="matrix(0.05,0,0,0.05,12.950000000000001,0)" xlink:href="#ae"/><use transform="matrix(0.05,0,0,0.05,22.950000000000003,0)" xlink:href="#af"/><use transform="matrix(0.05,0,0,0.05,32.95,0)" xlink:href="#ak"/><use transform="matrix(0.05,0,0,0.05,42.95,0)" xlink:href="#ak"/><use transform="matrix(0.05,0,0,0.05,52.95,0)" xlink:href="#aj"/><use transform="matrix(0.05,0,0,0.05,62.95,0)" xlink:href="#ah"/><use transform="matrix(0.05,0,0,0.05,66.9,0)" xlink:href="#aE"/><use transform="matrix(0.05,0,0,0.05,71.9,0)" xlink:href="#ak"/><use transform="matrix(0.05,0,0,0.05,81.9,0)" xlink:href="#aF"/><use transform="matrix(0.05,0,0,0.05,91.9,0)" xlink:href="#am"/><use transform="matrix(0.05,0,0,0.05,101.9,0)" xlink:href="#aq"/><use transform="matrix(0.05,0,0,0.05,111.9,0)" xlink:href="#ak"/><use transform="matrix(0.05,0,0,0.05,121.9,0)" xlink:href="#av"/><use transform="matrix(0.05,0,0,0.05,131.9,0)" xlink:href="#aB"/><use transform="matrix(0.05,0,0,0.05,144.85,0)" xlink:href="#af"/><use transform="matrix(0.05,0,0,0.05,154.85,0)" xlink:href="#ak"/><use transform="matrix(0.05,0,0,0.05,164.85,0)" xlink:href="#av"/><use transform="matrix(0.05,0,0,0.05,174.85,0)" xlink:href="#ah"/><use transform="matrix(0.05,0,0,0.05,178.79999999999998,0)" xlink:href="#aj"/><use transform="matrix(0.05,0,0,0.05,188.79999999999998,0)" xlink:href="#ap"/><use transform="matrix(0.05,0,0,0.05,194.74999999999997,0)" xlink:href="#aG"/><use transform="matrix(0.05,0,0,0.05,206.74999999999997,0)" xlink:href="#av"/><use transform="matrix(0.05,0,0,0.05,216.74999999999997,0)" xlink:href="#af"/><use transform="matrix(0.05,0,0,0.05,226.74999999999997,0)" xlink:href="#ao"/><use transform="matrix(0.05,0,0,0.05,236.74999999999997,0)" xlink:href="#ag"/><use transform="matrix(0.05,0,0,0.05,241.74999999999997,0)" xlink:href="#aj"/><use transform="matrix(0.05,0,0,0.05,251.74999999999997,0)" xlink:href="#ap"/></g><g id="q"><use transform="matrix(0.05,0,0,0.05,0,0)" xlink:href="#az"/><use transform="matrix(0.05,0,0,0.05,9,0)" xlink:href="#ae"/><use transform="matrix(0.05,0,0,0.05,19,0)" xlink:href="#af"/><use transform="matrix(0.05,0,0,0.05,29,0)" xlink:href="#ak"/><use transform="matrix(0.05,0,0,0.05,39,0)" xlink:href="#ak"/><use transform="matrix(0.05,0,0,0.05,49,0)" xlink:href="#aj"/><use transform="matrix(0.05,0,0,0.05,59,0)" xlink:href="#ah"/><use transform="matrix(0.05,0,0,0.05,62.95,0)" xlink:href="#aG"/><use transform="matrix(0.05,0,0,0.05,74.95,0)" xlink:href="#az"/><use transform="matrix(0.05,0,0,0.05,83.95,0)" xlink:href="#ag"/><use transform="matrix(0.05,0,0,0.05,88.95,0)" xlink:href="#ai"/><use transform="matrix(0.05,0,0,0.05,92.9,0)" xlink:href="#au"/><use transform="matrix(0.05,0,0,0.05,101.9,0)" xlink:href="#aj"/></g><g id="r"><use transform="matrix(0.05,0,0,0.05,0,0)" xlink:href="#ad"/><use transform="matrix(0.05,0,0,0.05,12.950000000000001,0)" xlink:href="#ae"/><use transform="matrix(0.05,0,0,0.05,22.950000000000003,0)" xlink:href="#af"/><use transform="matrix(0.05,0,0,0.05,32.95,0)" xlink:href="#ak"/><use transform="matrix(0.05,0,0,0.05,42.95,0)" xlink:href="#ak"/><use transform="matrix(0.05,0,0,0.05,52.95,0)" xlink:href="#aj"/><use transform="matrix(0.05,0,0,0.05,62.95,0)" xlink:href="#ah"/><use transform="matrix(0.05,0,0,0.05,66.9,0)" xlink:href="#aB"/><use transform="matrix(0.05,0,0,0.05,79.85000000000001,0)" xlink:href="#af"/><use transform="matrix(0.05,0,0,0.05,89.85000000000001,0)" xlink:href="#ak"/><use transform="matrix(0.05,0,0,0.05,99.85000000000001,0)" xlink:href="#av"/><use transform="matrix(0.05,0,0,0.05,109.85000000000001,0)" xlink:href="#ah"/><use transform="matrix(0.05,0,0,0.05,113.80000000000001,0)" xlink:href="#aj"/><use transform="matrix(0.05,0,0,0.05,123.80000000000001,0)" xlink:href="#ap"/><use transform="matrix(0.05,0,0,0.05,129.75,0)" xlink:href="#ad"/><use transform="matrix(0.05,0,0,0.05,142.7,0)" xlink:href="#am"/><use transform="matrix(0.05,0,0,0.05,152.7,0)" xlink:href="#ak"/><use transform="matrix(0.05,0,0,0.05,162.7,0)" xlink:href="#ag"/><use transform="matrix(0.05,0,0,0.05,167.7,0)" xlink:href="#aj"/><use transform="matrix(0.05,0,0,0.05,177.7,0)" xlink:href="#aD"/><use transform="matrix(0.05,0,0,0.05,186.7,0)" xlink:href="#ag"/></g><g id="s"><use transform="matrix(0.05,0,0,0.05,0,0)" xlink:href="#au"/><use transform="matrix(0.05,0,0,0.05,9,0)" xlink:href="#am"/><use transform="matrix(0.05,0,0,0.05,19,0)" xlink:href="#ai"/><use transform="matrix(0.05,0,0,0.05,22.95,0)" xlink:href="#av"/></g><g id="t"><use transform="matrix(0.05,0,0,0.05,0,0)" xlink:href="#az"/><use transform="matrix(0.05,0,0,0.05,9,0)" xlink:href="#ae"/><use transform="matrix(0.05,0,0,0.05,19,0)" xlink:href="#af"/><use transform="matrix(0.05,0,0,0.05,29,0)" xlink:href="#ak"/><use transform="matrix(0.05,0,0,0.05,39,0)" xlink:href="#ak"/><use transform="matrix(0.05,0,0,0.05,49,0)" xlink:href="#aj"/><use transform="matrix(0.05,0,0,0.05,59,0)" xlink:href="#ah"/><use transform="matrix(0.05,0,0,0.05,62.95,0)" xlink:href="#aA"/><use transform="matrix(0.05,0,0,0.05,75.9,0)" xlink:href="#aj"/><use transform="matrix(0.05,0,0,0.05,85.9,0)" xlink:href="#af"/><use transform="matrix(0.05,0,0,0.05,95.9,0)" xlink:href="#av"/></g><path d="M68-38c1 34 0 65-14 84H32c9-13 17-26 17-46H33v-38h35" id="aH"/><g id="u"><use transform="matrix(0.05,0,0,0.05,0,0)" xlink:href="#ad"/><use transform="matrix(0.05,0,0,0.05,12.950000000000001,0)" xlink:href="#ae"/><use transform="matrix(0.05,0,0,0.05,22.950000000000003,0)" xlink:href="#af"/><use transform="matrix(0.05,0,0,0.05,32.95,0)" xlink:href="#ak"/><use transform="matrix(0.05,0,0,0.05,42.95,0)" xlink:href="#ak"/><use transform="matrix(0.05,0,0,0.05,52.95,0)" xlink:href="#aj"/><use transform="matrix(0.05,0,0,0.05,62.95,0)" xlink:href="#ah"/><use transform="matrix(0.05,0,0,0.05,66.9,0)" xlink:href="#aB"/><use transform="matrix(0.05,0,0,0.05,79.85000000000001,0)" xlink:href="#af"/><use transform="matrix(0.05,0,0,0.05,89.85000000000001,0)" xlink:href="#ak"/><use transform="matrix(0.05,0,0,0.05,99.85000000000001,0)" xlink:href="#av"/><use transform="matrix(0.05,0,0,0.05,109.85000000000001,0)" xlink:href="#ah"/><use transform="matrix(0.05,0,0,0.05,113.80000000000001,0)" xlink:href="#aj"/><use transform="matrix(0.05,0,0,0.05,123.80000000000001,0)" xlink:href="#ap"/><use transform="matrix(0.05,0,0,0.05,129.75,0)" xlink:href="#ad"/><use transform="matrix(0.05,0,0,0.05,142.7,0)" xlink:href="#am"/><use transform="matrix(0.05,0,0,0.05,152.7,0)" xlink:href="#ak"/><use transform="matrix(0.05,0,0,0.05,162.7,0)" xlink:href="#ag"/><use transform="matrix(0.05,0,0,0.05,167.7,0)" xlink:href="#aj"/><use transform="matrix(0.05,0,0,0.05,177.7,0)" xlink:href="#aD"/><use transform="matrix(0.05,0,0,0.05,186.7,0)" xlink:href="#ag"/><use transform="matrix(0.05,0,0,0.05,191.7,0)" xlink:href="#aH"/></g><path d="M140-251c81 0 123 46 123 126C263-46 219 4 140 4 59 4 17-45 17-125s42-126 123-126zm0 227c63 0 89-41 89-101s-29-99-89-99c-61 0-89 39-89 99S79-25 140-24" id="aI"/><path d="M24-231v-30h32v30H24zM-9 49c24 4 33-6 33-30v-209h32V24c2 40-23 58-65 49V49" id="aJ"/><g id="v"><use transform="matrix(0.05,0,0,0.05,0,0)" xlink:href="#aI"/><use transform="matrix(0.05,0,0,0.05,14,0)" xlink:href="#aF"/><use transform="matrix(0.05,0,0,0.05,24,0)" xlink:href="#aJ"/><use transform="matrix(0.05,0,0,0.05,27.950000000000003,0)" xlink:href="#aj"/><use transform="matrix(0.05,0,0,0.05,37.95,0)" xlink:href="#az"/><use transform="matrix(0.05,0,0,0.05,46.95,0)" xlink:href="#ag"/></g><use transform="matrix(0.05,0,0,0.05,0,0)" xlink:href="#as" id="w"/><g id="x"><use transform="matrix(0.05,0,0,0.05,0,0)" xlink:href="#az"/><use transform="matrix(0.05,0,0,0.05,9,0)" xlink:href="#ae"/><use transform="matrix(0.05,0,0,0.05,19,0)" xlink:href="#af"/><use transform="matrix(0.05,0,0,0.05,29,0)" xlink:href="#ak"/><use transform="matrix(0.05,0,0,0.05,39,0)" xlink:href="#ak"/><use transform="matrix(0.05,0,0,0.05,49,0)" xlink:href="#aj"/><use transform="matrix(0.05,0,0,0.05,59,0)" xlink:href="#ah"/><use transform="matrix(0.05,0,0,0.05,62.95,0)" xlink:href="#aE"/><use transform="matrix(0.05,0,0,0.05,67.95,0)" xlink:href="#ak"/><use transform="matrix(0.05,0,0,0.05,77.95,0)" xlink:href="#af"/><use transform="matrix(0.05,0,0,0.05,87.95,0)" xlink:href="#az"/><use transform="matrix(0.05,0,0,0.05,96.95,0)" xlink:href="#ag"/><use transform="matrix(0.05,0,0,0.05,101.95,0)" xlink:href="#ai"/><use transform="matrix(0.05,0,0,0.05,105.9,0)" xlink:href="#au"/><use transform="matrix(0.05,0,0,0.05,114.9,0)" xlink:href="#aj"/></g><g id="y"><use transform="matrix(0.05,0,0,0.05,0,0)" xlink:href="#ad"/><use transform="matrix(0.05,0,0,0.05,12.950000000000001,0)" xlink:href="#ae"/><use transform="matrix(0.05,0,0,0.05,22.950000000000003,0)" xlink:href="#af"/><use transform="matrix(0.05,0,0,0.05,32.95,0)" xlink:href="#ag"/><use transform="matrix(0.05,0,0,0.05,37.95,0)" xlink:href="#aG"/><use transform="matrix(0.05,0,0,0.05,49.95,0)" xlink:href="#ao"/><use transform="matrix(0.05,0,0,0.05,59.95,0)" xlink:href="#ao"/><use transform="matrix(0.05,0,0,0.05,69.95,0)" xlink:href="#ah"/><use transform="matrix(0.05,0,0,0.05,73.9,0)" xlink:href="#ai"/><use transform="matrix(0.05,0,0,0.05,77.85000000000001,0)" xlink:href="#az"/><use transform="matrix(0.05,0,0,0.05,86.85000000000001,0)" xlink:href="#af"/><use transform="matrix(0.05,0,0,0.05,96.85000000000001,0)" xlink:href="#ag"/><use transform="matrix(0.05,0,0,0.05,101.85000000000001,0)" xlink:href="#ai"/><use transform="matrix(0.05,0,0,0.05,105.80000000000001,0)" xlink:href="#am"/><use transform="matrix(0.05,0,0,0.05,115.80000000000001,0)" xlink:href="#ak"/></g><use transform="matrix(0.05,0,0,0.05,0,0)" xlink:href="#al" id="z"/><g id="A"><use transform="matrix(0.05,0,0,0.05,0,0)" xlink:href="#az"/><use transform="matrix(0.05,0,0,0.05,9,0)" xlink:href="#ae"/><use transform="matrix(0.05,0,0,0.05,19,0)" xlink:href="#af"/><use transform="matrix(0.05,0,0,0.05,29,0)" xlink:href="#ak"/><use transform="matrix(0.05,0,0,0.05,39,0)" xlink:href="#ak"/><use transform="matrix(0.05,0,0,0.05,49,0)" xlink:href="#aj"/><use transform="matrix(0.05,0,0,0.05,59,0)" xlink:href="#ah"/><path d="M-.9 1.25h64.75v1.32H-.9z"/></g><use transform="matrix(0.05,0,0,0.05,0,0)" xlink:href="#at" id="B"/><g id="C"><use transform="matrix(0.05,0,0,0.05,0,0)" xlink:href="#ad"/><use transform="matrix(0.05,0,0,0.05,12.950000000000001,0)" xlink:href="#ae"/><use transform="matrix(0.05,0,0,0.05,22.950000000000003,0)" xlink:href="#af"/><use transform="matrix(0.05,0,0,0.05,32.95,0)" xlink:href="#ak"/><use transform="matrix(0.05,0,0,0.05,42.95,0)" xlink:href="#ak"/><use transform="matrix(0.05,0,0,0.05,52.95,0)" xlink:href="#aj"/><use transform="matrix(0.05,0,0,0.05,62.95,0)" xlink:href="#ah"/></g><g id="D"><use transform="matrix(0.05,0,0,0.05,0,0)" xlink:href="#az"/><use transform="matrix(0.05,0,0,0.05,9,0)" xlink:href="#ah"/><use transform="matrix(0.05,0,0,0.05,12.949999999999998,0)" xlink:href="#ai"/><use transform="matrix(0.05,0,0,0.05,16.9,0)" xlink:href="#aj"/><use transform="matrix(0.05,0,0,0.05,26.899999999999995,0)" xlink:href="#ak"/><use transform="matrix(0.05,0,0,0.05,36.9,0)" xlink:href="#ag"/><path d="M-.9 1.25h43.7v1.32H-.9z"/></g><g id="E"><use transform="matrix(0.05,0,0,0.05,0,0)" xlink:href="#ad"/><use transform="matrix(0.05,0,0,0.05,12.950000000000001,0)" xlink:href="#ae"/><use transform="matrix(0.05,0,0,0.05,22.950000000000003,0)" xlink:href="#af"/><use transform="matrix(0.05,0,0,0.05,32.95,0)" xlink:href="#ag"/><use transform="matrix(0.05,0,0,0.05,37.95,0)" xlink:href="#ad"/><use transform="matrix(0.05,0,0,0.05,50.900000000000006,0)" xlink:href="#ah"/><use transform="matrix(0.05,0,0,0.05,54.85,0)" xlink:href="#ai"/><use transform="matrix(0.05,0,0,0.05,58.80000000000001,0)" xlink:href="#aj"/><use transform="matrix(0.05,0,0,0.05,68.80000000000001,0)" xlink:href="#ak"/><use transform="matrix(0.05,0,0,0.05,78.80000000000001,0)" xlink:href="#ag"/></g><use transform="matrix(0.05,0,0,0.05,0,0)" xlink:href="#al" id="F"/><path d="M210-169c-67 3-38 105-44 169h-31v-121c0-29-5-50-35-48C34-165 62-65 56 0H25l-1-190h30c1 10-1 24 2 32 10-44 99-50 107 0 11-21 27-35 58-36 85-2 47 119 55 194h-31v-121c0-29-5-49-35-48" id="aK"/><g id="G"><use transform="matrix(0.05,0,0,0.05,0,0)" xlink:href="#aK"/><use transform="matrix(0.05,0,0,0.05,14.950000000000001,0)" xlink:href="#af"/><use transform="matrix(0.05,0,0,0.05,24.950000000000003,0)" xlink:href="#ai"/><use transform="matrix(0.05,0,0,0.05,28.900000000000002,0)" xlink:href="#ak"/><path d="M-.9 1.25h40.7v1.32H-.9z"/><use transform="matrix(0.05,0,0,0.05,43.900000000000006,0)" xlink:href="#ar"/></g><g id="H"><use transform="matrix(0.05,0,0,0.05,0,0)" xlink:href="#ay"/><use transform="matrix(0.05,0,0,0.05,12,0)" xlink:href="#ag"/><use transform="matrix(0.05,0,0,0.05,17,0)" xlink:href="#ap"/><use transform="matrix(0.05,0,0,0.05,22.95,0)" xlink:href="#ai"/><use transform="matrix(0.05,0,0,0.05,26.899999999999995,0)" xlink:href="#ak"/><use transform="matrix(0.05,0,0,0.05,36.9,0)" xlink:href="#ax"/></g><path d="M26 75v-336h71v23H56V52h41v23H26" id="aL"/><use transform="matrix(0.05,0,0,0.05,0,0)" xlink:href="#aL" id="I"/><path d="M3 75V52h41v-290H3v-23h71V75H3" id="aM"/><use transform="matrix(0.05,0,0,0.05,0,0)" xlink:href="#aM" id="J"/><g id="K"><use transform="matrix(0.05,0,0,0.05,0,0)" xlink:href="#af"/><use transform="matrix(0.05,0,0,0.05,10,0)" xlink:href="#ap"/><use transform="matrix(0.05,0,0,0.05,15.949999999999998,0)" xlink:href="#ax"/><use transform="matrix(0.05,0,0,0.05,25.950000000000003,0)" xlink:href="#an"/></g><g id="L"><use transform="matrix(0.05,0,0,0.05,0,0)" xlink:href="#ah"/><use transform="matrix(0.05,0,0,0.05,3.95,0)" xlink:href="#am"/><use transform="matrix(0.05,0,0,0.05,13.949999999999998,0)" xlink:href="#ax"/><use transform="matrix(0.05,0,0,0.05,23.95,0)" xlink:href="#ai"/><use transform="matrix(0.05,0,0,0.05,27.899999999999995,0)" xlink:href="#ak"/><path d="M-.9 1.25h39.7v1.32H-.9z"/></g><use transform="matrix(0.05,0,0,0.05,0,0)" xlink:href="#ar" id="M"/><g id="N"><use transform="matrix(0.05,0,0,0.05,0,0)" xlink:href="#ay"/><use transform="matrix(0.05,0,0,0.05,12,0)" xlink:href="#ag"/><use transform="matrix(0.05,0,0,0.05,17,0)" xlink:href="#ap"/><use transform="matrix(0.05,0,0,0.05,22.95,0)" xlink:href="#ai"/><use transform="matrix(0.05,0,0,0.05,26.899999999999995,0)" xlink:href="#ak"/><use transform="matrix(0.05,0,0,0.05,36.9,0)" xlink:href="#ax"/><use transform="matrix(0.05,0,0,0.05,46.9,0)" xlink:href="#aH"/></g><g id="O"><use transform="matrix(0.05,0,0,0.05,0,0)" xlink:href="#ay"/><use transform="matrix(0.05,0,0,0.05,12,0)" xlink:href="#ag"/><use transform="matrix(0.05,0,0,0.05,17,0)" xlink:href="#ap"/><use transform="matrix(0.05,0,0,0.05,22.95,0)" xlink:href="#ai"/><use transform="matrix(0.05,0,0,0.05,26.899999999999995,0)" xlink:href="#ak"/><use transform="matrix(0.05,0,0,0.05,36.9,0)" xlink:href="#ax"/></g><use transform="matrix(0.05,0,0,0.05,0,0)" xlink:href="#as" id="P"/><g id="Q"><use transform="matrix(0.05,0,0,0.05,0,0)" xlink:href="#au"/><use transform="matrix(0.05,0,0,0.05,9,0)" xlink:href="#am"/><use transform="matrix(0.05,0,0,0.05,19,0)" xlink:href="#ai"/><use transform="matrix(0.05,0,0,0.05,22.95,0)" xlink:href="#av"/></g><g id="R"><use transform="matrix(0.05,0,0,0.05,0,0)" xlink:href="#ap"/><use transform="matrix(0.05,0,0,0.05,5.95,0)" xlink:href="#aj"/><use transform="matrix(0.05,0,0,0.05,15.949999999999998,0)" xlink:href="#ax"/><use transform="matrix(0.05,0,0,0.05,25.950000000000003,0)" xlink:href="#ai"/><use transform="matrix(0.05,0,0,0.05,29.899999999999995,0)" xlink:href="#an"/><use transform="matrix(0.05,0,0,0.05,38.9,0)" xlink:href="#ag"/><use transform="matrix(0.05,0,0,0.05,43.9,0)" xlink:href="#aj"/><use transform="matrix(0.05,0,0,0.05,53.900000000000006,0)" xlink:href="#ap"/><path d="M-.9 1.25h61.65v1.32H-.9z"/></g><path d="M30-248c87 1 191-15 191 75 0 78-77 80-158 76V0H30v-248zm33 125c57 0 124 11 124-50 0-59-68-47-124-48v98" id="aN"/><path d="M240 0l2-218c-23 76-54 145-80 218h-23L58-218 59 0H30v-248h44l77 211c21-75 51-140 76-211h43V0h-30" id="aO"/><g id="S"><use transform="matrix(0.05,0,0,0.05,0,0)" xlink:href="#an"/><use transform="matrix(0.05,0,0,0.05,9,0)" xlink:href="#aj"/><use transform="matrix(0.05,0,0,0.05,19,0)" xlink:href="#ak"/><use transform="matrix(0.05,0,0,0.05,29,0)" xlink:href="#av"/><use transform="matrix(0.05,0,0,0.05,39,0)" xlink:href="#aN"/><use transform="matrix(0.05,0,0,0.05,51,0)" xlink:href="#aq"/><use transform="matrix(0.05,0,0,0.05,61,0)" xlink:href="#aF"/><use transform="matrix(0.05,0,0,0.05,71,0)" xlink:href="#ah"/><use transform="matrix(0.05,0,0,0.05,74.95,0)" xlink:href="#ai"/><use transform="matrix(0.05,0,0,0.05,78.9,0)" xlink:href="#az"/><use transform="matrix(0.05,0,0,0.05,87.9,0)" xlink:href="#aO"/><use transform="matrix(0.05,0,0,0.05,102.85000000000001,0)" xlink:href="#aj"/><use transform="matrix(0.05,0,0,0.05,112.85000000000001,0)" xlink:href="#an"/><use transform="matrix(0.05,0,0,0.05,121.85000000000001,0)" xlink:href="#an"/><use transform="matrix(0.05,0,0,0.05,130.85000000000002,0)" xlink:href="#af"/><use transform="matrix(0.05,0,0,0.05,140.85000000000002,0)" xlink:href="#ax"/><use transform="matrix(0.05,0,0,0.05,150.85000000000002,0)" xlink:href="#aj"/><path d="M-.9 1.25h162.65v1.32H-.9z"/></g><g id="T"><use transform="matrix(0.05,0,0,0.05,0,0)" xlink:href="#an"/><use transform="matrix(0.05,0,0,0.05,9,0)" xlink:href="#aj"/><use transform="matrix(0.05,0,0,0.05,19,0)" xlink:href="#ak"/><use transform="matrix(0.05,0,0,0.05,29,0)" xlink:href="#av"/><use transform="matrix(0.05,0,0,0.05,39,0)" xlink:href="#aN"/><use transform="matrix(0.05,0,0,0.05,51,0)" xlink:href="#ap"/><use transform="matrix(0.05,0,0,0.05,56.95,0)" xlink:href="#ai"/><use transform="matrix(0.05,0,0,0.05,60.900000000000006,0)" xlink:href="#au"/><use transform="matrix(0.05,0,0,0.05,69.9,0)" xlink:href="#af"/><use transform="matrix(0.05,0,0,0.05,79.9,0)" xlink:href="#ag"/><use transform="matrix(0.05,0,0,0.05,84.9,0)" xlink:href="#aj"/><use transform="matrix(0.05,0,0,0.05,94.9,0)" xlink:href="#aO"/><use transform="matrix(0.05,0,0,0.05,109.85000000000001,0)" xlink:href="#aj"/><use transform="matrix(0.05,0,0,0.05,119.85000000000001,0)" xlink:href="#an"/><use transform="matrix(0.05,0,0,0.05,128.85000000000002,0)" xlink:href="#an"/><use transform="matrix(0.05,0,0,0.05,137.85000000000002,0)" xlink:href="#af"/><use transform="matrix(0.05,0,0,0.05,147.85000000000002,0)" xlink:href="#ax"/><use transform="matrix(0.05,0,0,0.05,157.85000000000002,0)" xlink:href="#aj"/><path d="M-.9 1.25h169.65v1.32H-.9z"/></g><g id="U"><use transform="matrix(0.05,0,0,0.05,0,0)" xlink:href="#ah"/><use transform="matrix(0.05,0,0,0.05,3.95,0)" xlink:href="#am"/><use transform="matrix(0.05,0,0,0.05,13.949999999999998,0)" xlink:href="#ax"/><use transform="matrix(0.05,0,0,0.05,23.95,0)" xlink:href="#am"/><use transform="matrix(0.05,0,0,0.05,33.95,0)" xlink:href="#aq"/><use transform="matrix(0.05,0,0,0.05,43.95,0)" xlink:href="#ag"/><path d="M-.9 1.25h50.75v1.32H-.9z"/></g><g id="V"><use transform="matrix(0.05,0,0,0.05,0,0)" xlink:href="#av"/><use transform="matrix(0.05,0,0,0.05,10,0)" xlink:href="#aj"/><use transform="matrix(0.05,0,0,0.05,20,0)" xlink:href="#ah"/><use transform="matrix(0.05,0,0,0.05,23.95,0)" xlink:href="#aj"/><use transform="matrix(0.05,0,0,0.05,33.95,0)" xlink:href="#ag"/><use transform="matrix(0.05,0,0,0.05,38.95,0)" xlink:href="#aj"/><use transform="matrix(0.05,0,0,0.05,48.95,0)" xlink:href="#aG"/><use transform="matrix(0.05,0,0,0.05,60.95,0)" xlink:href="#az"/><use transform="matrix(0.05,0,0,0.05,69.95,0)" xlink:href="#az"/><use transform="matrix(0.05,0,0,0.05,78.95,0)" xlink:href="#am"/><use transform="matrix(0.05,0,0,0.05,88.95,0)" xlink:href="#aq"/><use transform="matrix(0.05,0,0,0.05,98.95,0)" xlink:href="#ak"/><use transform="matrix(0.05,0,0,0.05,108.95,0)" xlink:href="#ag"/><path d="M-.9 1.25h115.75v1.32H-.9z"/></g><path d="M145-31C134-9 116 4 85 4 32 4 16-35 15-94c0-59 17-99 70-100 32-1 48 14 60 33 0-11-1-24 2-32h30l-1 268h-32zM93-21c41 0 51-33 51-76s-8-73-50-73c-40 0-46 35-46 75s5 74 45 74" id="aP"/><g id="W"><use transform="matrix(0.05,0,0,0.05,0,0)" xlink:href="#ap"/><use transform="matrix(0.05,0,0,0.05,5.95,0)" xlink:href="#aj"/><use transform="matrix(0.05,0,0,0.05,15.949999999999998,0)" xlink:href="#aP"/><use transform="matrix(0.05,0,0,0.05,25.950000000000003,0)" xlink:href="#aq"/><use transform="matrix(0.05,0,0,0.05,35.95,0)" xlink:href="#aj"/><use transform="matrix(0.05,0,0,0.05,45.95,0)" xlink:href="#an"/><use transform="matrix(0.05,0,0,0.05,54.95,0)" xlink:href="#ag"/><use transform="matrix(0.05,0,0,0.05,59.95,0)" xlink:href="#aB"/><use transform="matrix(0.05,0,0,0.05,72.9,0)" xlink:href="#ai"/><use transform="matrix(0.05,0,0,0.05,76.85000000000001,0)" xlink:href="#an"/><use transform="matrix(0.05,0,0,0.05,85.85000000000001,0)" xlink:href="#ag"/><use transform="matrix(0.05,0,0,0.05,90.85000000000001,0)" xlink:href="#am"/><use transform="matrix(0.05,0,0,0.05,100.85000000000001,0)" xlink:href="#ap"/><use transform="matrix(0.05,0,0,0.05,106.80000000000001,0)" xlink:href="#aC"/><path d="M-.9 1.25h117.6v1.32H-.9z"/></g><g id="X"><use transform="matrix(0.05,0,0,0.05,0,0)" xlink:href="#ao"/><use transform="matrix(0.05,0,0,0.05,10,0)" xlink:href="#ap"/><use transform="matrix(0.05,0,0,0.05,15.949999999999998,0)" xlink:href="#am"/><use transform="matrix(0.05,0,0,0.05,25.950000000000003,0)" xlink:href="#az"/><use transform="matrix(0.05,0,0,0.05,34.95,0)" xlink:href="#aj"/><use transform="matrix(0.05,0,0,0.05,44.95,0)" xlink:href="#an"/><use transform="matrix(0.05,0,0,0.05,53.95,0)" xlink:href="#an"/><use transform="matrix(0.05,0,0,0.05,62.95,0)" xlink:href="#aO"/><use transform="matrix(0.05,0,0,0.05,77.9,0)" xlink:href="#aj"/><use transform="matrix(0.05,0,0,0.05,87.9,0)" xlink:href="#an"/><use transform="matrix(0.05,0,0,0.05,96.9,0)" xlink:href="#an"/><use transform="matrix(0.05,0,0,0.05,105.9,0)" xlink:href="#af"/><use transform="matrix(0.05,0,0,0.05,115.9,0)" xlink:href="#ax"/><use transform="matrix(0.05,0,0,0.05,125.9,0)" xlink:href="#aj"/><path d="M-.9 1.25h137.7v1.32H-.9z"/></g><g id="Y"><use transform="matrix(0.05,0,0,0.05,0,0)" xlink:href="#au"/><use transform="matrix(0.05,0,0,0.05,9,0)" xlink:href="#am"/><use transform="matrix(0.05,0,0,0.05,19,0)" xlink:href="#ai"/><use transform="matrix(0.05,0,0,0.05,22.95,0)" xlink:href="#av"/></g><path d="M143 4C61 4 22-44 18-125c-5-107 100-154 193-111 17 8 29 25 37 43l-32 9c-13-25-37-40-76-40-61 0-88 39-88 99 0 61 29 100 91 101 35 0 62-11 79-27v-45h-74v-28h105v86C228-13 192 4 143 4" id="aQ"/><g id="Z"><use transform="matrix(0.05,0,0,0.05,0,0)" xlink:href="#aQ"/><use transform="matrix(0.05,0,0,0.05,14,0)" xlink:href="#am"/><use transform="matrix(0.05,0,0,0.05,24,0)" xlink:href="#am"/><use transform="matrix(0.05,0,0,0.05,34,0)" xlink:href="#ax"/><use transform="matrix(0.05,0,0,0.05,44,0)" xlink:href="#ah"/><use transform="matrix(0.05,0,0,0.05,47.95,0)" xlink:href="#aj"/></g><path d="M160-131c35 5 61 23 61 61C221 17 115-2 30 0v-248c76 3 177-17 177 60 0 33-19 50-47 57zm-97-11c50-1 110 9 110-42 0-47-63-36-110-37v79zm0 115c55-2 124 14 124-45 0-56-70-42-124-44v89" id="aR"/><path d="M101-234c-31-9-42 10-38 44h38v23H63V0H32v-167H5v-23h27c-7-52 17-82 69-68v24" id="aS"/><g id="aa"><use transform="matrix(0.05,0,0,0.05,0,0)" xlink:href="#aN"/><use transform="matrix(0.05,0,0,0.05,12,0)" xlink:href="#ap"/><use transform="matrix(0.05,0,0,0.05,17.95,0)" xlink:href="#am"/><use transform="matrix(0.05,0,0,0.05,27.950000000000003,0)" xlink:href="#ag"/><use transform="matrix(0.05,0,0,0.05,32.95,0)" xlink:href="#am"/><use transform="matrix(0.05,0,0,0.05,42.95,0)" xlink:href="#aR"/><use transform="matrix(0.05,0,0,0.05,54.95,0)" xlink:href="#aq"/><use transform="matrix(0.05,0,0,0.05,64.95,0)" xlink:href="#aS"/></g><path d="M0 4l72-265h28L28 4H0" id="aT"/><path d="M30 0v-248h187v28H63v79h144v27H63v87h162V0H30" id="aU"/><g id="ab"><use transform="matrix(0.05,0,0,0.05,0,0)" xlink:href="#aO"/><use transform="matrix(0.05,0,0,0.05,14.950000000000001,0)" xlink:href="#aj"/><use transform="matrix(0.05,0,0,0.05,24.950000000000003,0)" xlink:href="#an"/><use transform="matrix(0.05,0,0,0.05,33.95,0)" xlink:href="#an"/><use transform="matrix(0.05,0,0,0.05,42.95,0)" xlink:href="#af"/><use transform="matrix(0.05,0,0,0.05,52.95,0)" xlink:href="#ax"/><use transform="matrix(0.05,0,0,0.05,62.95,0)" xlink:href="#aj"/><use transform="matrix(0.05,0,0,0.05,72.95,0)" xlink:href="#aT"/><use transform="matrix(0.05,0,0,0.05,77.95,0)" xlink:href="#aU"/><use transform="matrix(0.05,0,0,0.05,89.95,0)" xlink:href="#au"/><use transform="matrix(0.05,0,0,0.05,98.95,0)" xlink:href="#aj"/><use transform="matrix(0.05,0,0,0.05,108.95,0)" xlink:href="#ak"/><use transform="matrix(0.05,0,0,0.05,118.95,0)" xlink:href="#ag"/></g><g id="ac"><use transform="matrix(0.05,0,0,0.05,0,0)" xlink:href="#aN"/><use transform="matrix(0.05,0,0,0.05,12,0)" xlink:href="#ap"/><use transform="matrix(0.05,0,0,0.05,17.95,0)" xlink:href="#am"/><use transform="matrix(0.05,0,0,0.05,27.950000000000003,0)" xlink:href="#ag"/><use transform="matrix(0.05,0,0,0.05,32.95,0)" xlink:href="#am"/><use transform="matrix(0.05,0,0,0.05,42.95,0)" xlink:href="#az"/><use transform="matrix(0.05,0,0,0.05,51.95,0)" xlink:href="#am"/><use transform="matrix(0.05,0,0,0.05,61.95,0)" xlink:href="#ah"/></g></defs></g></svg>