<svg xmlns="http://www.w3.org/2000/svg" xmlns:xlink="http://www.w3.org/1999/xlink" width="995" height="1100"><g transform="translate(-175 -60)"><path d="M210 900h440v240H210z" stroke="#000" stroke-width="2" fill="#fff"/><path d="M210 938h440m-440 78h440" stroke="#000" stroke-width="2" fill="none"/><use xlink:href="#a" transform="matrix(1,0,0,1,218,900) translate(166.575 22.6)"/><use xlink:href="#b" transform="matrix(1,0,0,1,222,945.6) translate(0 35.1)"/><use xlink:href="#c" transform="matrix(1,0,0,1,222,945.6) translate(10.95 35.1)"/><use xlink:href="#d" transform="matrix(1,0,0,1,222,945.6) translate(46.900000000000006 35.1)"/><use xlink:href="#e" transform="matrix(1,0,0,1,222,945.6) translate(56.900000000000006 35.1)"/><use xlink:href="#f" transform="matrix(1,0,0,1,222,1024.2181818181818) translate(0 46.8)"/><use xlink:href="#g" transform="matrix(1,0,0,1,222,1024.2181818181818) translate(15.5 46.8)"/><use xlink:href="#h" transform="matrix(1,0,0,1,222,1024.2181818181818) translate(59.400000000000006 46.8)"/><use xlink:href="#i" transform="matrix(1,0,0,1,222,1024.2181818181818) translate(70.35000000000001 46.8)"/><use xlink:href="#d" transform="matrix(1,0,0,1,222,1024.2181818181818) translate(110.30000000000001 46.8)"/><use xlink:href="#j" transform="matrix(1,0,0,1,222,1024.2181818181818) translate(120.30000000000001 46.8)"/><use xlink:href="#k" transform="matrix(1,0,0,1,222,1024.2181818181818) translate(172.20000000000002 46.8)"/><use xlink:href="#l" transform="matrix(1,0,0,1,222,1024.2181818181818) translate(182.20000000000002 46.8)"/><use xlink:href="#m" transform="matrix(1,0,0,1,222,1024.2181818181818) translate(192.20000000000002 46.8)"/><use xlink:href="#d" transform="matrix(1,0,0,1,222,1024.2181818181818) translate(203.15 46.8)"/><use xlink:href="#n" transform="matrix(1,0,0,1,222,1024.2181818181818) translate(213.15 46.8)"/><use xlink:href="#o" transform="matrix(1,0,0,1,222,1024.2181818181818) translate(0 68.4)"/><use xlink:href="#p" transform="matrix(1,0,0,1,222,1024.2181818181818) translate(15.5 68.4)"/><use xlink:href="#h" transform="matrix(1,0,0,1,222,1024.2181818181818) translate(111.35000000000001 68.4)"/><use xlink:href="#c" transform="matrix(1,0,0,1,222,1024.2181818181818) translate(122.30000000000001 68.4)"/><use xlink:href="#d" transform="matrix(1,0,0,1,222,1024.2181818181818) translate(158.25 68.4)"/><use xlink:href="#q" transform="matrix(1,0,0,1,222,1024.2181818181818) translate(168.25 68.4)"/><use xlink:href="#r" transform="matrix(1,0,0,1,222,1024.2181818181818) translate(192.2 68.4)"/><path d="M195 80h470v400H195z" stroke="#000" stroke-width="2" fill="#fff"/><path d="M195 118h470M195 252h470" stroke="#000" stroke-width="2" fill="none"/><use xlink:href="#s" transform="matrix(1,0,0,1,203,80) translate(208.05 22.6)"/><use xlink:href="#b" transform="matrix(1,0,0,1,207,125.6) translate(0 19.89999999999999)"/><use xlink:href="#t" transform="matrix(1,0,0,1,207,125.6) translate(10.95 19.89999999999999)"/><use xlink:href="#d" transform="matrix(1,0,0,1,207,125.6) translate(60.900000000000006 19.89999999999999)"/><use xlink:href="#u" transform="matrix(1,0,0,1,207,125.6) translate(70.9 19.89999999999999)"/><use xlink:href="#b" transform="matrix(1,0,0,1,207,125.6) translate(0 41.49999999999999)"/><use xlink:href="#v" transform="matrix(1,0,0,1,207,125.6) translate(10.95 41.49999999999999)"/><use xlink:href="#d" transform="matrix(1,0,0,1,207,125.6) translate(92.85000000000001 41.49999999999999)"/><use xlink:href="#u" transform="matrix(1,0,0,1,207,125.6) translate(102.85000000000001 41.49999999999999)"/><use xlink:href="#b" transform="matrix(1,0,0,1,207,125.6) translate(0 63.099999999999994)"/><use xlink:href="#w" transform="matrix(1,0,0,1,207,125.6) translate(10.95 63.099999999999994)"/><use xlink:href="#d" transform="matrix(1,0,0,1,207,125.6) translate(68.85000000000001 63.099999999999994)"/><use xlink:href="#u" transform="matrix(1,0,0,1,207,125.6) translate(78.85000000000001 63.099999999999994)"/><use xlink:href="#o" transform="matrix(1,0,0,1,207,125.6) translate(0 84.70000000000002)"/><use xlink:href="#x" transform="matrix(1,0,0,1,207,125.6) translate(15.5 84.70000000000002)"/><use xlink:href="#d" transform="matrix(1,0,0,1,207,125.6) translate(83.45 84.70000000000002)"/><use xlink:href="#y" transform="matrix(1,0,0,1,207,125.6) translate(93.45 84.70000000000002)"/><use xlink:href="#o" transform="matrix(1,0,0,1,207,125.6) translate(0 106.30000000000001)"/><use xlink:href="#z" transform="matrix(1,0,0,1,207,125.6) translate(15.5 106.30000000000001)"/><use xlink:href="#d" transform="matrix(1,0,0,1,207,125.6) translate(99.45 106.30000000000001)"/><use xlink:href="#A" transform="matrix(1,0,0,1,207,125.6) translate(109.45 106.30000000000001)"/><g><use xlink:href="#f" transform="matrix(1,0,0,1,207,259.98277511961726) translate(0 34.50000000000001)"/><use xlink:href="#B" transform="matrix(1,0,0,1,207,259.98277511961726) translate(15.5 34.50000000000001)"/><use xlink:href="#h" transform="matrix(1,0,0,1,207,259.98277511961726) translate(98.4 34.50000000000001)"/><use xlink:href="#C" transform="matrix(1,0,0,1,207,259.98277511961726) translate(109.35000000000001 34.50000000000001)"/><use xlink:href="#j" transform="matrix(1,0,0,1,207,259.98277511961726) translate(166.25 34.50000000000001)"/><use xlink:href="#m" transform="matrix(1,0,0,1,207,259.98277511961726) translate(218.15 34.50000000000001)"/><use xlink:href="#d" transform="matrix(1,0,0,1,207,259.98277511961726) translate(229.1 34.50000000000001)"/><use xlink:href="#D" transform="matrix(1,0,0,1,207,259.98277511961726) translate(239.1 34.50000000000001)"/><use xlink:href="#f" transform="matrix(1,0,0,1,207,259.98277511961726) translate(0 56.10000000000001)"/><use xlink:href="#E" transform="matrix(1,0,0,1,207,259.98277511961726) translate(15.5 56.10000000000001)"/><use xlink:href="#h" transform="matrix(1,0,0,1,207,259.98277511961726) translate(94.30000000000001 56.10000000000001)"/><use xlink:href="#C" transform="matrix(1,0,0,1,207,259.98277511961726) translate(105.25000000000001 56.10000000000001)"/><use xlink:href="#j" transform="matrix(1,0,0,1,207,259.98277511961726) translate(162.15 56.10000000000001)"/><use xlink:href="#m" transform="matrix(1,0,0,1,207,259.98277511961726) translate(214.05 56.10000000000001)"/><use xlink:href="#d" transform="matrix(1,0,0,1,207,259.98277511961726) translate(225 56.10000000000001)"/><use xlink:href="#D" transform="matrix(1,0,0,1,207,259.98277511961726) translate(235 56.10000000000001)"/><use xlink:href="#f" transform="matrix(1,0,0,1,207,259.98277511961726) translate(0 77.70000000000002)"/><use xlink:href="#F" transform="matrix(1,0,0,1,207,259.98277511961726) translate(15.5 77.70000000000002)"/><use xlink:href="#h" transform="matrix(1,0,0,1,207,259.98277511961726) translate(110.30000000000001 77.70000000000002)"/><use xlink:href="#G" transform="matrix(1,0,0,1,207,259.98277511961726) translate(121.25000000000001 77.70000000000002)"/><use xlink:href="#m" transform="matrix(1,0,0,1,207,259.98277511961726) translate(164.15000000000003 77.70000000000002)"/><use xlink:href="#d" transform="matrix(1,0,0,1,207,259.98277511961726) translate(175.10000000000002 77.70000000000002)"/><use xlink:href="#H" transform="matrix(1,0,0,1,207,259.98277511961726) translate(185.10000000000002 77.70000000000002)"/><use xlink:href="#o" transform="matrix(1,0,0,1,207,259.98277511961726) translate(0 99.30000000000003)"/><use xlink:href="#I" transform="matrix(1,0,0,1,207,259.98277511961726) translate(15.5 99.30000000000003)"/><use xlink:href="#J" transform="matrix(1,0,0,1,207,259.98277511961726) translate(93.4 99.30000000000003)"/><use xlink:href="#d" transform="matrix(1,0,0,1,207,259.98277511961726) translate(110.30000000000001 99.30000000000003)"/><use xlink:href="#u" transform="matrix(1,0,0,1,207,259.98277511961726) translate(120.30000000000001 99.30000000000003)"/><use xlink:href="#o" transform="matrix(1,0,0,1,207,259.98277511961726) translate(0 120.90000000000002)"/><use xlink:href="#K" transform="matrix(1,0,0,1,207,259.98277511961726) translate(15.5 120.90000000000002)"/><use xlink:href="#J" transform="matrix(1,0,0,1,207,259.98277511961726) translate(101.35000000000001 120.90000000000002)"/><use xlink:href="#d" transform="matrix(1,0,0,1,207,259.98277511961726) translate(118.25 120.90000000000002)"/><use xlink:href="#u" transform="matrix(1,0,0,1,207,259.98277511961726) translate(128.25 120.90000000000002)"/><use xlink:href="#o" transform="matrix(1,0,0,1,207,259.98277511961726) translate(0 142.50000000000003)"/><use xlink:href="#L" transform="matrix(1,0,0,1,207,259.98277511961726) translate(15.5 142.50000000000003)"/><use xlink:href="#h" transform="matrix(1,0,0,1,207,259.98277511961726) translate(193.25 142.50000000000003)"/><use xlink:href="#M" transform="matrix(1,0,0,1,207,259.98277511961726) translate(204.2 142.50000000000003)"/><use xlink:href="#j" transform="matrix(1,0,0,1,207,259.98277511961726) translate(251.1 142.50000000000003)"/><use xlink:href="#m" transform="matrix(1,0,0,1,207,259.98277511961726) translate(303 142.50000000000003)"/><use xlink:href="#d" transform="matrix(1,0,0,1,207,259.98277511961726) translate(313.95 142.50000000000003)"/><use xlink:href="#H" transform="matrix(1,0,0,1,207,259.98277511961726) translate(323.95 142.50000000000003)"/><use xlink:href="#o" transform="matrix(1,0,0,1,207,259.98277511961726) translate(0 164.1)"/><use xlink:href="#N" transform="matrix(1,0,0,1,207,259.98277511961726) translate(15.5 164.1)"/><use xlink:href="#h" transform="matrix(1,0,0,1,207,259.98277511961726) translate(200.25 164.1)"/><use xlink:href="#M" transform="matrix(1,0,0,1,207,259.98277511961726) translate(211.2 164.1)"/><use xlink:href="#M" transform="matrix(1,0,0,1,207,259.98277511961726) translate(258.1 164.1)"/><use xlink:href="#j" transform="matrix(1,0,0,1,207,259.98277511961726) translate(305 164.1)"/><use xlink:href="#m" transform="matrix(1,0,0,1,207,259.98277511961726) translate(356.9 164.1)"/><use xlink:href="#d" transform="matrix(1,0,0,1,207,259.98277511961726) translate(367.84999999999997 164.1)"/><use xlink:href="#H" transform="matrix(1,0,0,1,207,259.98277511961726) translate(377.84999999999997 164.1)"/><use xlink:href="#o" transform="matrix(1,0,0,1,207,259.98277511961726) translate(0 185.70000000000002)"/><use xlink:href="#O" transform="matrix(1,0,0,1,207,259.98277511961726) translate(15.5 185.70000000000002)"/><use xlink:href="#h" transform="matrix(1,0,0,1,207,259.98277511961726) translate(117.4 185.70000000000002)"/><use xlink:href="#j" transform="matrix(1,0,0,1,207,259.98277511961726) translate(128.35 185.70000000000002)"/><use xlink:href="#m" transform="matrix(1,0,0,1,207,259.98277511961726) translate(180.25 185.70000000000002)"/><use xlink:href="#d" transform="matrix(1,0,0,1,207,259.98277511961726) translate(191.2 185.70000000000002)"/><use xlink:href="#P" transform="matrix(1,0,0,1,207,259.98277511961726) translate(201.2 185.70000000000002)"/></g><path d="M210 560h440v260H210z" stroke="#000" stroke-width="2" fill="#fff"/><path d="M210 619h440m-440 41h440" stroke="#000" stroke-width="2" fill="none"/><g><use xlink:href="#Q" transform="matrix(1,0,0,1,218,560) translate(113.57499999999999 22.799999999999997)"/><use xlink:href="#R" transform="matrix(1,0,0,1,218,560) translate(247.425 22.799999999999997)"/><use xlink:href="#S" transform="matrix(1,0,0,1,218,560) translate(83.15 44.4)"/></g><g><use xlink:href="#o" transform="matrix(1,0,0,1,222,627.2) translate(0 16.6)"/><use xlink:href="#T" transform="matrix(1,0,0,1,222,627.2) translate(15.5 16.6)"/><use xlink:href="#d" transform="matrix(1,0,0,1,222,627.2) translate(55.45 16.6)"/><use xlink:href="#U" transform="matrix(1,0,0,1,222,627.2) translate(65.45 16.6)"/></g><g><use xlink:href="#o" transform="matrix(1,0,0,1,222,668.4122270742358) translate(0 54)"/><use xlink:href="#V" transform="matrix(1,0,0,1,222,668.4122270742358) translate(15.5 54)"/><use xlink:href="#h" transform="matrix(1,0,0,1,222,668.4122270742358) translate(132.4 54)"/><use xlink:href="#W" transform="matrix(1,0,0,1,222,668.4122270742358) translate(143.35 54)"/><use xlink:href="#m" transform="matrix(1,0,0,1,222,668.4122270742358) translate(340.04999999999995 54)"/><use xlink:href="#d" transform="matrix(1,0,0,1,222,668.4122270742358) translate(350.99999999999994 54)"/><use xlink:href="#n" transform="matrix(1,0,0,1,222,668.4122270742358) translate(360.99999999999994 54)"/><use xlink:href="#o" transform="matrix(1,0,0,1,222,668.4122270742358) translate(0 75.60000000000001)"/><use xlink:href="#X" transform="matrix(1,0,0,1,222,668.4122270742358) translate(15.5 75.60000000000001)"/><use xlink:href="#h" transform="matrix(1,0,0,1,222,668.4122270742358) translate(126.4 75.60000000000001)"/><use xlink:href="#Y" transform="matrix(1,0,0,1,222,668.4122270742358) translate(137.35 75.60000000000001)"/><use xlink:href="#Z" transform="matrix(1,0,0,1,222,668.4122270742358) translate(339.04999999999995 75.60000000000001)"/><use xlink:href="#aa" transform="matrix(1,0,0,1,222,668.4122270742358) translate(395.99999999999994 75.60000000000001)"/><use xlink:href="#o" transform="matrix(1,0,0,1,222,668.4122270742358) translate(0 97.20000000000002)"/><use xlink:href="#ab" transform="matrix(1,0,0,1,222,668.4122270742358) translate(15.5 97.20000000000002)"/><use xlink:href="#h" transform="matrix(1,0,0,1,222,668.4122270742358) translate(145.4 97.20000000000002)"/><use xlink:href="#W" transform="matrix(1,0,0,1,222,668.4122270742358) translate(156.35 97.20000000000002)"/><use xlink:href="#m" transform="matrix(1,0,0,1,222,668.4122270742358) translate(353.04999999999995 97.20000000000002)"/><use xlink:href="#d" transform="matrix(1,0,0,1,222,668.4122270742358) translate(363.99999999999994 97.20000000000002)"/><use xlink:href="#ac" transform="matrix(1,0,0,1,222,668.4122270742358) translate(373.99999999999994 97.20000000000002)"/></g><path d="M430 560v-80" stroke="#000" stroke-width="2" fill="none"/><path d="M441.04 496.7l-1.72 1.02-9.32-15.76-9.32 15.76-1.72-1 9.88-16.72h2.32z"/><path d="M730 480h420v340H730z" stroke="#000" stroke-width="2" fill="#fff"/><path d="M730 518h420m-420 72h420" stroke="#000" stroke-width="2" fill="none"/><g><use xlink:href="#ad" transform="matrix(1,0,0,1,738,480) translate(136.675 22.6)"/></g><g><use xlink:href="#ae" transform="matrix(1,0,0,1,742,525.6) translate(0 21.299999999999997)"/><use xlink:href="#af" transform="matrix(1,0,0,1,742,525.6) translate(10.95 21.299999999999997)"/><use xlink:href="#d" transform="matrix(1,0,0,1,742,525.6) translate(59.900000000000006 21.299999999999997)"/><use xlink:href="#ag" transform="matrix(1,0,0,1,742,525.6) translate(69.9 21.299999999999997)"/><use xlink:href="#ah" transform="matrix(1,0,0,1,742,525.6) translate(271.7 21.299999999999997)"/><use xlink:href="#ai" transform="matrix(1,0,0,1,742,525.6) translate(339.1 21.299999999999997)"/><use xlink:href="#ae" transform="matrix(1,0,0,1,742,525.6) translate(0 42.9)"/><use xlink:href="#aj" transform="matrix(1,0,0,1,742,525.6) translate(10.95 42.9)"/><use xlink:href="#d" transform="matrix(1,0,0,1,742,525.6) translate(87.9 42.9)"/><use xlink:href="#A" transform="matrix(1,0,0,1,742,525.6) translate(97.9 42.9)"/></g><g><use xlink:href="#f" transform="matrix(1,0,0,1,742,597.7858064516129) translate(0 35.50000000000001)"/><use xlink:href="#ak" transform="matrix(1,0,0,1,742,597.7858064516129) translate(15.5 35.50000000000001)"/><use xlink:href="#h" transform="matrix(1,0,0,1,742,597.7858064516129) translate(83.45 35.50000000000001)"/><use xlink:href="#M" transform="matrix(1,0,0,1,742,597.7858064516129) translate(94.4 35.50000000000001)"/><use xlink:href="#C" transform="matrix(1,0,0,1,742,597.7858064516129) translate(141.3 35.50000000000001)"/><use xlink:href="#al" transform="matrix(1,0,0,1,742,597.7858064516129) translate(198.20000000000002 35.50000000000001)"/><use xlink:href="#m" transform="matrix(1,0,0,1,742,597.7858064516129) translate(270.1 35.50000000000001)"/><use xlink:href="#d" transform="matrix(1,0,0,1,742,597.7858064516129) translate(281.05 35.50000000000001)"/><use xlink:href="#D" transform="matrix(1,0,0,1,742,597.7858064516129) translate(291.05 35.50000000000001)"/><use xlink:href="#ae" transform="matrix(1,0,0,1,742,597.7858064516129) translate(0 57.10000000000001)"/><use xlink:href="#am" transform="matrix(1,0,0,1,742,597.7858064516129) translate(10.95 57.10000000000001)"/><use xlink:href="#h" transform="matrix(1,0,0,1,742,597.7858064516129) translate(53.849999999999994 57.10000000000001)"/><use xlink:href="#C" transform="matrix(1,0,0,1,742,597.7858064516129) translate(64.8 57.10000000000001)"/><use xlink:href="#C" transform="matrix(1,0,0,1,742,597.7858064516129) translate(121.69999999999999 57.10000000000001)"/><use xlink:href="#al" transform="matrix(1,0,0,1,742,597.7858064516129) translate(178.6 57.10000000000001)"/><use xlink:href="#m" transform="matrix(1,0,0,1,742,597.7858064516129) translate(250.5 57.10000000000001)"/><use xlink:href="#d" transform="matrix(1,0,0,1,742,597.7858064516129) translate(261.45 57.10000000000001)"/><use xlink:href="#D" transform="matrix(1,0,0,1,742,597.7858064516129) translate(271.45 57.10000000000001)"/><use xlink:href="#ae" transform="matrix(1,0,0,1,742,597.7858064516129) translate(0 78.70000000000002)"/><use xlink:href="#an" transform="matrix(1,0,0,1,742,597.7858064516129) translate(10.95 78.70000000000002)"/><use xlink:href="#h" transform="matrix(1,0,0,1,742,597.7858064516129) translate(75.8 78.70000000000002)"/><use xlink:href="#C" transform="matrix(1,0,0,1,742,597.7858064516129) translate(86.75 78.70000000000002)"/><use xlink:href="#C" transform="matrix(1,0,0,1,742,597.7858064516129) translate(143.65 78.70000000000002)"/><use xlink:href="#al" transform="matrix(1,0,0,1,742,597.7858064516129) translate(200.55 78.70000000000002)"/><use xlink:href="#m" transform="matrix(1,0,0,1,742,597.7858064516129) translate(272.45000000000005 78.70000000000002)"/><use xlink:href="#d" transform="matrix(1,0,0,1,742,597.7858064516129) translate(283.40000000000003 78.70000000000002)"/><use xlink:href="#D" transform="matrix(1,0,0,1,742,597.7858064516129) translate(293.40000000000003 78.70000000000002)"/><use xlink:href="#ae" transform="matrix(1,0,0,1,742,597.7858064516129) translate(0 100.30000000000003)"/><use xlink:href="#ao" transform="matrix(1,0,0,1,742,597.7858064516129) translate(10.95 100.30000000000003)"/><use xlink:href="#h" transform="matrix(1,0,0,1,742,597.7858064516129) translate(135.8 100.30000000000003)"/><use xlink:href="#M" transform="matrix(1,0,0,1,742,597.7858064516129) translate(146.75 100.30000000000003)"/><use xlink:href="#j" transform="matrix(1,0,0,1,742,597.7858064516129) translate(193.65 100.30000000000003)"/><use xlink:href="#m" transform="matrix(1,0,0,1,742,597.7858064516129) translate(245.55 100.30000000000003)"/><use xlink:href="#d" transform="matrix(1,0,0,1,742,597.7858064516129) translate(256.5 100.30000000000003)"/><use xlink:href="#H" transform="matrix(1,0,0,1,742,597.7858064516129) translate(266.5 100.30000000000003)"/><use xlink:href="#ae" transform="matrix(1,0,0,1,742,597.7858064516129) translate(0 121.90000000000002)"/><use xlink:href="#ap" transform="matrix(1,0,0,1,742,597.7858064516129) translate(10.95 121.90000000000002)"/><use xlink:href="#h" transform="matrix(1,0,0,1,742,597.7858064516129) translate(142.79999999999998 121.90000000000002)"/><use xlink:href="#M" transform="matrix(1,0,0,1,742,597.7858064516129) translate(153.74999999999997 121.90000000000002)"/><use xlink:href="#M" transform="matrix(1,0,0,1,742,597.7858064516129) translate(200.64999999999998 121.90000000000002)"/><use xlink:href="#j" transform="matrix(1,0,0,1,742,597.7858064516129) translate(247.54999999999998 121.90000000000002)"/><use xlink:href="#m" transform="matrix(1,0,0,1,742,597.7858064516129) translate(299.45 121.90000000000002)"/><use xlink:href="#d" transform="matrix(1,0,0,1,742,597.7858064516129) translate(310.4 121.90000000000002)"/><use xlink:href="#H" transform="matrix(1,0,0,1,742,597.7858064516129) translate(320.4 121.90000000000002)"/><use xlink:href="#f" transform="matrix(1,0,0,1,742,597.7858064516129) translate(0 143.50000000000003)"/><use xlink:href="#aq" transform="matrix(1,0,0,1,742,597.7858064516129) translate(15.5 143.50000000000003)"/><use xlink:href="#h" transform="matrix(1,0,0,1,742,597.7858064516129) translate(69.45 143.50000000000003)"/><use xlink:href="#G" transform="matrix(1,0,0,1,742,597.7858064516129) translate(80.4 143.50000000000003)"/><use xlink:href="#m" transform="matrix(1,0,0,1,742,597.7858064516129) translate(123.30000000000001 143.50000000000003)"/><use xlink:href="#d" transform="matrix(1,0,0,1,742,597.7858064516129) translate(134.25 143.50000000000003)"/><use xlink:href="#ar" transform="matrix(1,0,0,1,742,597.7858064516129) translate(144.25 143.50000000000003)"/><use xlink:href="#ae" transform="matrix(1,0,0,1,742,597.7858064516129) translate(0 165.1)"/><use xlink:href="#as" transform="matrix(1,0,0,1,742,597.7858064516129) translate(10.95 165.1)"/><use xlink:href="#h" transform="matrix(1,0,0,1,742,597.7858064516129) translate(129.9 165.1)"/><use xlink:href="#G" transform="matrix(1,0,0,1,742,597.7858064516129) translate(140.85 165.1)"/><use xlink:href="#m" transform="matrix(1,0,0,1,742,597.7858064516129) translate(183.75 165.1)"/><use xlink:href="#d" transform="matrix(1,0,0,1,742,597.7858064516129) translate(194.7 165.1)"/><use xlink:href="#H" transform="matrix(1,0,0,1,742,597.7858064516129) translate(204.7 165.1)"/><use xlink:href="#ae" transform="matrix(1,0,0,1,742,597.7858064516129) translate(0 186.70000000000002)"/><use xlink:href="#at" transform="matrix(1,0,0,1,742,597.7858064516129) translate(10.95 186.70000000000002)"/><use xlink:href="#h" transform="matrix(1,0,0,1,742,597.7858064516129) translate(110.80000000000001 186.70000000000002)"/><use xlink:href="#G" transform="matrix(1,0,0,1,742,597.7858064516129) translate(121.75000000000001 186.70000000000002)"/><use xlink:href="#m" transform="matrix(1,0,0,1,742,597.7858064516129) translate(164.65000000000003 186.70000000000002)"/><use xlink:href="#d" transform="matrix(1,0,0,1,742,597.7858064516129) translate(175.60000000000002 186.70000000000002)"/><use xlink:href="#P" transform="matrix(1,0,0,1,742,597.7858064516129) translate(185.60000000000002 186.70000000000002)"/></g><path d="M650 690h79" stroke="#000" stroke-width="2" fill="none"/><path d="M730 689.43v1.14l-17.7 10.47-1.02-1.72 15.76-9.32-15.76-9.32 1-1.72z"/><path d="M940 480V280H665" stroke="#000" stroke-width="2" fill="none"/><path d="M682.72 270.68L666.96 280l15.76 9.32-1 1.72-16.72-9.88v-2.32l16.7-9.88z"/><path d="M970 80h160v120H970z" stroke="#000" stroke-width="2" fill="#fff"/><g><use xlink:href="#au" transform="matrix(1,0,0,1,978,88) translate(5.549999999999997 34)"/><use xlink:href="#av" transform="matrix(1,0,0,1,978,88) translate(68.5 34)"/><use xlink:href="#aw" transform="matrix(1,0,0,1,978,88) translate(10.024999999999999 55.6)"/><use xlink:href="#ax" transform="matrix(1,0,0,1,978,88) translate(39.05 77.2)"/></g><path d="M970 140H666.3" stroke="#000" stroke-width="2" fill="none"/><path d="M970 138.84v2.32l-16.7 9.88-1.02-1.72 15.76-9.32-15.76-9.32 1-1.72zM666.3 141H665v-2h1.3z"/><path d="M1050 200v279" stroke="#000" stroke-width="2" fill="none"/><path d="M1061.04 216.7l-1.72 1.02-9.32-15.76-9.32 15.76-1.72-1 9.88-16.72h2.32zM1051 480h-2v-1h2z"/><path d="M430 900v-80" stroke="#000" stroke-width="2" fill="none"/><path d="M441.04 836.7l-1.72 1.02-9.32-15.76-9.32 15.76-1.72-1 9.88-16.72h2.32z"/><defs><path d="M212-179c-10-28-35-45-73-45-59 0-87 40-87 99 0 60 29 101 89 101 43 0 62-24 78-52l27 14C228-24 195 4 139 4 59 4 22-46 18-125c-6-104 99-153 187-111 19 9 31 26 39 46" id="ay"/><path d="M106-169C34-169 62-67 57 0H25v-261h32l-1 103c12-21 28-36 61-36 89 0 53 116 60 194h-32v-121c2-32-8-49-39-48" id="az"/><path d="M141-36C126-15 110 5 73 4 37 3 15-17 15-53c-1-64 63-63 125-63 3-35-9-54-41-54-24 1-41 7-42 31l-33-3c5-37 33-52 76-52 45 0 72 20 72 64v82c-1 20 7 32 28 27v20c-31 9-61-2-59-35zM48-53c0 20 12 33 32 33 41-3 63-29 60-74-43 2-92-5-92 41" id="aA"/><path d="M59-47c-2 24 18 29 38 22v24C64 9 27 4 27-40v-127H5v-23h24l9-43h21v43h35v23H59v120" id="aB"/><path d="M185-189c-5-48-123-54-124 2 14 75 158 14 163 119 3 78-121 87-175 55-17-10-28-26-33-46l33-7c5 56 141 63 141-1 0-78-155-14-162-118-5-82 145-84 179-34 5 7 8 16 11 25" id="aC"/><path d="M100-194c63 0 86 42 84 106H49c0 40 14 67 53 68 26 1 43-12 49-29l28 8c-11 28-37 45-77 45C44 4 14-33 15-96c1-61 26-98 85-98zm52 81c6-60-76-77-97-28-3 7-6 17-6 28h103" id="aD"/><path d="M114-163C36-179 61-72 57 0H25l-1-190h30c1 12-1 29 2 39 6-27 23-49 58-41v29" id="aE"/><path d="M108 0H70L1-190h34L89-25l56-165h34" id="aF"/><g id="a"><use transform="matrix(0.05,0,0,0.05,0,0)" xlink:href="#ay"/><use transform="matrix(0.05,0,0,0.05,12.950000000000001,0)" xlink:href="#az"/><use transform="matrix(0.05,0,0,0.05,22.950000000000003,0)" xlink:href="#aA"/><use transform="matrix(0.05,0,0,0.05,32.95,0)" xlink:href="#aB"/><use transform="matrix(0.05,0,0,0.05,37.95,0)" xlink:href="#aC"/><use transform="matrix(0.05,0,0,0.05,49.95,0)" xlink:href="#aD"/><use transform="matrix(0.05,0,0,0.05,59.95,0)" xlink:href="#aE"/><use transform="matrix(0.05,0,0,0.05,65.9,0)" xlink:href="#aF"/><use transform="matrix(0.05,0,0,0.05,74.9,0)" xlink:href="#aD"/><use transform="matrix(0.05,0,0,0.05,84.9,0)" xlink:href="#aE"/></g><path d="M16-82v-28h88v28H16" id="aG"/><use transform="matrix(0.05,0,0,0.05,0,0)" xlink:href="#aG" id="b"/><path d="M115-194c55 1 70 41 70 98S169 2 115 4C84 4 66-9 55-30l1 105H24l-1-265h31l2 30c10-21 28-34 59-34zm-8 174c40 0 45-34 45-75s-6-73-45-74c-42 0-51 32-51 76 0 43 10 73 51 73" id="aH"/><path d="M100-194c62-1 85 37 85 99 1 63-27 99-86 99S16-35 15-95c0-66 28-99 85-99zM99-20c44 1 53-31 53-75 0-43-8-75-51-75s-53 32-53 75 10 74 51 75" id="aI"/><g id="c"><use transform="matrix(0.05,0,0,0.05,0,0)" xlink:href="#aH"/><use transform="matrix(0.05,0,0,0.05,10,0)" xlink:href="#aI"/><use transform="matrix(0.05,0,0,0.05,20,0)" xlink:href="#aE"/><use transform="matrix(0.05,0,0,0.05,25.950000000000003,0)" xlink:href="#aB"/></g><path d="M33-154v-36h34v36H33zM33 0v-36h34V0H33" id="aJ"/><use transform="matrix(0.05,0,0,0.05,0,0)" xlink:href="#aJ" id="d"/><path d="M24-231v-30h32v30H24zM24 0v-190h32V0H24" id="aK"/><path d="M117-194c89-4 53 116 60 194h-32v-121c0-31-8-49-39-48C34-167 62-67 57 0H25l-1-190h30c1 10-1 24 2 32 11-22 29-35 61-36" id="aL"/><g id="e"><use transform="matrix(0.05,0,0,0.05,0,0)" xlink:href="#aK"/><use transform="matrix(0.05,0,0,0.05,3.95,0)" xlink:href="#aL"/><use transform="matrix(0.05,0,0,0.05,13.949999999999998,0)" xlink:href="#aB"/></g><path d="M118-107v75H92v-75H18v-26h74v-75h26v75h74v26h-74" id="aM"/><use transform="matrix(0.05,0,0,0.05,0,0)" xlink:href="#aM" id="f"/><path d="M210-169c-67 3-38 105-44 169h-31v-121c0-29-5-50-35-48C34-165 62-65 56 0H25l-1-190h30c1 10-1 24 2 32 10-44 99-50 107 0 11-21 27-35 58-36 85-2 47 119 55 194h-31v-121c0-29-5-49-35-48" id="aN"/><g id="g"><use transform="matrix(0.05,0,0,0.05,0,0)" xlink:href="#aN"/><use transform="matrix(0.05,0,0,0.05,14.950000000000001,0)" xlink:href="#aA"/><use transform="matrix(0.05,0,0,0.05,24.950000000000003,0)" xlink:href="#aK"/><use transform="matrix(0.05,0,0,0.05,28.900000000000002,0)" xlink:href="#aL"/><path d="M-.9 1.25h40.7v1.32H-.9z"/></g><path d="M87 75C49 33 22-17 22-94c0-76 28-126 65-167h31c-38 41-64 92-64 168S80 34 118 75H87" id="aO"/><use transform="matrix(0.05,0,0,0.05,0,0)" xlink:href="#aO" id="h"/><path d="M177-190C167-65 218 103 67 71c-23-6-38-20-44-43l32-5c15 47 100 32 89-28v-30C133-14 115 1 83 1 29 1 15-40 15-95c0-56 16-97 71-98 29-1 48 16 59 35 1-10 0-23 2-32h30zM94-22c36 0 50-32 50-73 0-42-14-75-50-75-39 0-46 34-46 75s6 73 46 73" id="aP"/><path d="M135-143c-3-34-86-38-87 0 15 53 115 12 119 90S17 21 10-45l28-5c4 36 97 45 98 0-10-56-113-15-118-90-4-57 82-63 122-42 12 7 21 19 24 35" id="aQ"/><g id="i"><use transform="matrix(0.05,0,0,0.05,0,0)" xlink:href="#aA"/><use transform="matrix(0.05,0,0,0.05,10,0)" xlink:href="#aE"/><use transform="matrix(0.05,0,0,0.05,15.949999999999998,0)" xlink:href="#aP"/><use transform="matrix(0.05,0,0,0.05,25.950000000000003,0)" xlink:href="#aQ"/></g><g id="j"><use transform="matrix(0.05,0,0,0.05,0,0)" xlink:href="#aC"/><use transform="matrix(0.05,0,0,0.05,12,0)" xlink:href="#aB"/><use transform="matrix(0.05,0,0,0.05,17,0)" xlink:href="#aE"/><use transform="matrix(0.05,0,0,0.05,22.95,0)" xlink:href="#aK"/><use transform="matrix(0.05,0,0,0.05,26.899999999999995,0)" xlink:href="#aL"/><use transform="matrix(0.05,0,0,0.05,36.9,0)" xlink:href="#aP"/></g><path d="M26 75v-336h71v23H56V52h41v23H26" id="aR"/><use transform="matrix(0.05,0,0,0.05,0,0)" xlink:href="#aR" id="k"/><path d="M3 75V52h41v-290H3v-23h71V75H3" id="aS"/><use transform="matrix(0.05,0,0,0.05,0,0)" xlink:href="#aS" id="l"/><path d="M33-261c38 41 65 92 65 168S71 34 33 75H2C39 34 66-17 66-93S39-220 2-261h31" id="aT"/><use transform="matrix(0.05,0,0,0.05,0,0)" xlink:href="#aT" id="m"/><path d="M85-194c31 0 48 13 60 33l-1-100h32l1 261h-30c-2-10 0-23-3-31C134-8 116 4 85 4 32 4 16-35 15-94c0-66 23-100 70-100zm9 24c-40 0-46 34-46 75 0 40 6 74 45 74 42 0 51-32 51-76 0-42-9-74-50-73" id="aU"/><g id="n"><use transform="matrix(0.05,0,0,0.05,0,0)" xlink:href="#aF"/><use transform="matrix(0.05,0,0,0.05,9,0)" xlink:href="#aI"/><use transform="matrix(0.05,0,0,0.05,19,0)" xlink:href="#aK"/><use transform="matrix(0.05,0,0,0.05,22.95,0)" xlink:href="#aU"/></g><use transform="matrix(0.05,0,0,0.05,0,0)" xlink:href="#aM" id="o"/><g id="p"><use transform="matrix(0.05,0,0,0.05,0,0)" xlink:href="#ay"/><use transform="matrix(0.05,0,0,0.05,12.950000000000001,0)" xlink:href="#az"/><use transform="matrix(0.05,0,0,0.05,22.950000000000003,0)" xlink:href="#aA"/><use transform="matrix(0.05,0,0,0.05,32.95,0)" xlink:href="#aB"/><use transform="matrix(0.05,0,0,0.05,37.95,0)" xlink:href="#aC"/><use transform="matrix(0.05,0,0,0.05,49.95,0)" xlink:href="#aD"/><use transform="matrix(0.05,0,0,0.05,59.95,0)" xlink:href="#aE"/><use transform="matrix(0.05,0,0,0.05,65.9,0)" xlink:href="#aF"/><use transform="matrix(0.05,0,0,0.05,74.9,0)" xlink:href="#aD"/><use transform="matrix(0.05,0,0,0.05,84.9,0)" xlink:href="#aE"/></g><g id="q"><use transform="matrix(0.05,0,0,0.05,0,0)" xlink:href="#aK"/><use transform="matrix(0.05,0,0,0.05,3.95,0)" xlink:href="#aL"/><use transform="matrix(0.05,0,0,0.05,13.949999999999998,0)" xlink:href="#aB"/></g><use transform="matrix(0.05,0,0,0.05,0,0)" xlink:href="#aT" id="r"/><path d="M232-93c-1 65-40 97-104 97C67 4 28-28 28-90v-158h33c8 89-33 224 67 224 102 0 64-133 71-224h33v155" id="aV"/><g id="s"><use transform="matrix(0.05,0,0,0.05,0,0)" xlink:href="#aV"/><use transform="matrix(0.05,0,0,0.05,12.950000000000001,0)" xlink:href="#aQ"/><use transform="matrix(0.05,0,0,0.05,21.950000000000003,0)" xlink:href="#aD"/><use transform="matrix(0.05,0,0,0.05,31.950000000000003,0)" xlink:href="#aE"/></g><g id="t"><use transform="matrix(0.05,0,0,0.05,0,0)" xlink:href="#aL"/><use transform="matrix(0.05,0,0,0.05,10,0)" xlink:href="#aA"/><use transform="matrix(0.05,0,0,0.05,20,0)" xlink:href="#aN"/><use transform="matrix(0.05,0,0,0.05,34.95,0)" xlink:href="#aD"/></g><g id="u"><use transform="matrix(0.05,0,0,0.05,0,0)" xlink:href="#aC"/><use transform="matrix(0.05,0,0,0.05,12,0)" xlink:href="#aB"/><use transform="matrix(0.05,0,0,0.05,17,0)" xlink:href="#aE"/><use transform="matrix(0.05,0,0,0.05,22.95,0)" xlink:href="#aK"/><use transform="matrix(0.05,0,0,0.05,26.899999999999995,0)" xlink:href="#aL"/><use transform="matrix(0.05,0,0,0.05,36.9,0)" xlink:href="#aP"/></g><path d="M206 0h-36l-40-164L89 0H53L-1-190h32L70-26l43-164h34l41 164 42-164h31" id="aW"/><g id="v"><use transform="matrix(0.05,0,0,0.05,0,0)" xlink:href="#aH"/><use transform="matrix(0.05,0,0,0.05,10,0)" xlink:href="#aA"/><use transform="matrix(0.05,0,0,0.05,20,0)" xlink:href="#aQ"/><use transform="matrix(0.05,0,0,0.05,29,0)" xlink:href="#aQ"/><use transform="matrix(0.05,0,0,0.05,38,0)" xlink:href="#aW"/><use transform="matrix(0.05,0,0,0.05,50.95,0)" xlink:href="#aI"/><use transform="matrix(0.05,0,0,0.05,60.95,0)" xlink:href="#aE"/><use transform="matrix(0.05,0,0,0.05,66.9,0)" xlink:href="#aU"/></g><path d="M179-190L93 31C79 59 56 82 12 73V49c39 6 53-20 64-50L1-190h34L92-34l54-156h33" id="aX"/><g id="w"><use transform="matrix(0.05,0,0,0.05,0,0)" xlink:href="#az"/><use transform="matrix(0.05,0,0,0.05,10,0)" xlink:href="#aK"/><use transform="matrix(0.05,0,0,0.05,13.949999999999998,0)" xlink:href="#aQ"/><use transform="matrix(0.05,0,0,0.05,22.95,0)" xlink:href="#aB"/><use transform="matrix(0.05,0,0,0.05,27.950000000000003,0)" xlink:href="#aI"/><use transform="matrix(0.05,0,0,0.05,37.95,0)" xlink:href="#aE"/><use transform="matrix(0.05,0,0,0.05,43.900000000000006,0)" xlink:href="#aX"/></g><path d="M96-169c-40 0-48 33-48 73s9 75 48 75c24 0 41-14 43-38l32 2c-6 37-31 61-74 61-59 0-76-41-82-99-10-93 101-131 147-64 4 7 5 14 7 22l-32 3c-4-21-16-35-41-35" id="aY"/><path d="M24 0v-261h32V0H24" id="aZ"/><g id="x"><use transform="matrix(0.05,0,0,0.05,0,0)" xlink:href="#aY"/><use transform="matrix(0.05,0,0,0.05,9,0)" xlink:href="#az"/><use transform="matrix(0.05,0,0,0.05,19,0)" xlink:href="#aA"/><use transform="matrix(0.05,0,0,0.05,29,0)" xlink:href="#aL"/><use transform="matrix(0.05,0,0,0.05,39,0)" xlink:href="#aL"/><use transform="matrix(0.05,0,0,0.05,49,0)" xlink:href="#aD"/><use transform="matrix(0.05,0,0,0.05,59,0)" xlink:href="#aZ"/></g><g id="y"><use transform="matrix(0.05,0,0,0.05,0,0)" xlink:href="#ay"/><use transform="matrix(0.05,0,0,0.05,12.950000000000001,0)" xlink:href="#az"/><use transform="matrix(0.05,0,0,0.05,22.950000000000003,0)" xlink:href="#aA"/><use transform="matrix(0.05,0,0,0.05,32.95,0)" xlink:href="#aL"/><use transform="matrix(0.05,0,0,0.05,42.95,0)" xlink:href="#aL"/><use transform="matrix(0.05,0,0,0.05,52.95,0)" xlink:href="#aD"/><use transform="matrix(0.05,0,0,0.05,62.95,0)" xlink:href="#aZ"/></g><path d="M115-194c53 0 69 39 70 98 0 66-23 100-70 100C84 3 66-7 56-30L54 0H23l1-261h32v101c10-23 28-34 59-34zm-8 174c40 0 45-34 45-75 0-40-5-75-45-74-42 0-51 32-51 76 0 43 10 73 51 73" id="ba"/><g id="z"><use transform="matrix(0.05,0,0,0.05,0,0)" xlink:href="#ba"/><use transform="matrix(0.05,0,0,0.05,10,0)" xlink:href="#aE"/><use transform="matrix(0.05,0,0,0.05,15.949999999999998,0)" xlink:href="#aI"/><use transform="matrix(0.05,0,0,0.05,25.950000000000003,0)" xlink:href="#aA"/><use transform="matrix(0.05,0,0,0.05,35.95,0)" xlink:href="#aU"/><use transform="matrix(0.05,0,0,0.05,45.95,0)" xlink:href="#aY"/><use transform="matrix(0.05,0,0,0.05,54.95,0)" xlink:href="#aA"/><use transform="matrix(0.05,0,0,0.05,64.95,0)" xlink:href="#aQ"/><use transform="matrix(0.05,0,0,0.05,73.95,0)" xlink:href="#aB"/></g><path d="M143 4C61 4 22-44 18-125c-5-107 100-154 193-111 17 8 29 25 37 43l-32 9c-13-25-37-40-76-40-61 0-88 39-88 99 0 61 29 100 91 101 35 0 62-11 79-27v-45h-74v-28h105v86C228-13 192 4 143 4" id="bb"/><path d="M84 4C-5 8 30-112 23-190h32v120c0 31 7 50 39 49 72-2 45-101 50-169h31l1 190h-30c-1-10 1-25-2-33-11 22-28 36-60 37" id="bc"/><g id="A"><use transform="matrix(0.05,0,0,0.05,0,0)" xlink:href="#ay"/><use transform="matrix(0.05,0,0,0.05,12.950000000000001,0)" xlink:href="#az"/><use transform="matrix(0.05,0,0,0.05,22.950000000000003,0)" xlink:href="#aA"/><use transform="matrix(0.05,0,0,0.05,32.95,0)" xlink:href="#aL"/><use transform="matrix(0.05,0,0,0.05,42.95,0)" xlink:href="#aL"/><use transform="matrix(0.05,0,0,0.05,52.95,0)" xlink:href="#aD"/><use transform="matrix(0.05,0,0,0.05,62.95,0)" xlink:href="#aZ"/><use transform="matrix(0.05,0,0,0.05,66.9,0)" xlink:href="#bb"/><use transform="matrix(0.05,0,0,0.05,80.9,0)" xlink:href="#aE"/><use transform="matrix(0.05,0,0,0.05,86.85000000000001,0)" xlink:href="#aI"/><use transform="matrix(0.05,0,0,0.05,96.85000000000001,0)" xlink:href="#bc"/><use transform="matrix(0.05,0,0,0.05,106.85000000000001,0)" xlink:href="#aH"/></g><path d="M30 0v-248h33v221h125V0H30" id="bd"/><g id="B"><use transform="matrix(0.05,0,0,0.05,0,0)" xlink:href="#bd"/><use transform="matrix(0.05,0,0,0.05,10,0)" xlink:href="#aI"/><use transform="matrix(0.05,0,0,0.05,20,0)" xlink:href="#aA"/><use transform="matrix(0.05,0,0,0.05,30,0)" xlink:href="#aU"/><use transform="matrix(0.05,0,0,0.05,40,0)" xlink:href="#aV"/><use transform="matrix(0.05,0,0,0.05,52.95,0)" xlink:href="#aQ"/><use transform="matrix(0.05,0,0,0.05,61.95,0)" xlink:href="#aD"/><use transform="matrix(0.05,0,0,0.05,71.95,0)" xlink:href="#aE"/><path d="M-.9 1.25h79.7v1.32H-.9z"/></g><path d="M68-38c1 34 0 65-14 84H32c9-13 17-26 17-46H33v-38h35" id="be"/><g id="C"><use transform="matrix(0.05,0,0,0.05,0,0)" xlink:href="#aC"/><use transform="matrix(0.05,0,0,0.05,12,0)" xlink:href="#aB"/><use transform="matrix(0.05,0,0,0.05,17,0)" xlink:href="#aE"/><use transform="matrix(0.05,0,0,0.05,22.95,0)" xlink:href="#aK"/><use transform="matrix(0.05,0,0,0.05,26.899999999999995,0)" xlink:href="#aL"/><use transform="matrix(0.05,0,0,0.05,36.9,0)" xlink:href="#aP"/><use transform="matrix(0.05,0,0,0.05,46.9,0)" xlink:href="#be"/></g><g id="D"><use transform="matrix(0.05,0,0,0.05,0,0)" xlink:href="#aV"/><use transform="matrix(0.05,0,0,0.05,12.950000000000001,0)" xlink:href="#aQ"/><use transform="matrix(0.05,0,0,0.05,21.950000000000003,0)" xlink:href="#aD"/><use transform="matrix(0.05,0,0,0.05,31.950000000000003,0)" xlink:href="#aE"/></g><path d="M190 0L58-211 59 0H30v-248h39L202-35l-2-213h31V0h-41" id="bf"/><g id="E"><use transform="matrix(0.05,0,0,0.05,0,0)" xlink:href="#bf"/><use transform="matrix(0.05,0,0,0.05,12.950000000000001,0)" xlink:href="#aD"/><use transform="matrix(0.05,0,0,0.05,22.950000000000003,0)" xlink:href="#aW"/><use transform="matrix(0.05,0,0,0.05,35.900000000000006,0)" xlink:href="#aV"/><use transform="matrix(0.05,0,0,0.05,48.85000000000001,0)" xlink:href="#aQ"/><use transform="matrix(0.05,0,0,0.05,57.85,0)" xlink:href="#aD"/><use transform="matrix(0.05,0,0,0.05,67.85000000000001,0)" xlink:href="#aE"/><path d="M-.9 1.25h75.6v1.32H-.9z"/></g><path d="M30-248c118-7 216 8 213 122C240-48 200 0 122 0H30v-248zM63-27c89 8 146-16 146-99s-60-101-146-95v194" id="bg"/><g id="F"><use transform="matrix(0.05,0,0,0.05,0,0)" xlink:href="#bg"/><use transform="matrix(0.05,0,0,0.05,12.950000000000001,0)" xlink:href="#aD"/><use transform="matrix(0.05,0,0,0.05,22.950000000000003,0)" xlink:href="#aZ"/><use transform="matrix(0.05,0,0,0.05,26.900000000000002,0)" xlink:href="#aD"/><use transform="matrix(0.05,0,0,0.05,36.900000000000006,0)" xlink:href="#aB"/><use transform="matrix(0.05,0,0,0.05,41.900000000000006,0)" xlink:href="#aD"/><use transform="matrix(0.05,0,0,0.05,51.900000000000006,0)" xlink:href="#aV"/><use transform="matrix(0.05,0,0,0.05,64.85000000000001,0)" xlink:href="#aQ"/><use transform="matrix(0.05,0,0,0.05,73.85000000000001,0)" xlink:href="#aD"/><use transform="matrix(0.05,0,0,0.05,83.85000000000001,0)" xlink:href="#aE"/><path d="M-.9 1.25h91.6v1.32H-.9z"/></g><g id="G"><use transform="matrix(0.05,0,0,0.05,0,0)" xlink:href="#aV"/><use transform="matrix(0.05,0,0,0.05,12.950000000000001,0)" xlink:href="#aQ"/><use transform="matrix(0.05,0,0,0.05,21.950000000000003,0)" xlink:href="#aD"/><use transform="matrix(0.05,0,0,0.05,31.950000000000003,0)" xlink:href="#aE"/></g><g id="H"><use transform="matrix(0.05,0,0,0.05,0,0)" xlink:href="#ba"/><use transform="matrix(0.05,0,0,0.05,10,0)" xlink:href="#aI"/><use transform="matrix(0.05,0,0,0.05,20,0)" xlink:href="#aI"/><use transform="matrix(0.05,0,0,0.05,30,0)" xlink:href="#aZ"/><use transform="matrix(0.05,0,0,0.05,33.95,0)" xlink:href="#aD"/><use transform="matrix(0.05,0,0,0.05,43.95,0)" xlink:href="#aA"/><use transform="matrix(0.05,0,0,0.05,53.95,0)" xlink:href="#aL"/></g><g id="I"><use transform="matrix(0.05,0,0,0.05,0,0)" xlink:href="#aP"/><use transform="matrix(0.05,0,0,0.05,10,0)" xlink:href="#aD"/><use transform="matrix(0.05,0,0,0.05,20,0)" xlink:href="#aB"/><use transform="matrix(0.05,0,0,0.05,25,0)" xlink:href="#bf"/><use transform="matrix(0.05,0,0,0.05,37.95,0)" xlink:href="#aA"/><use transform="matrix(0.05,0,0,0.05,47.95,0)" xlink:href="#aN"/><use transform="matrix(0.05,0,0,0.05,62.900000000000006,0)" xlink:href="#aD"/></g><g id="J"><use transform="matrix(0.05,0,0,0.05,0,0)" xlink:href="#aO"/><use transform="matrix(0.05,0,0,0.05,5.95,0)" xlink:href="#aT"/></g><path d="M197 0v-115H63V0H30v-248h33v105h134v-105h34V0h-34" id="bh"/><g id="K"><use transform="matrix(0.05,0,0,0.05,0,0)" xlink:href="#aP"/><use transform="matrix(0.05,0,0,0.05,10,0)" xlink:href="#aD"/><use transform="matrix(0.05,0,0,0.05,20,0)" xlink:href="#aB"/><use transform="matrix(0.05,0,0,0.05,25,0)" xlink:href="#bh"/><use transform="matrix(0.05,0,0,0.05,37.95,0)" xlink:href="#aK"/><use transform="matrix(0.05,0,0,0.05,41.900000000000006,0)" xlink:href="#aQ"/><use transform="matrix(0.05,0,0,0.05,50.900000000000006,0)" xlink:href="#aB"/><use transform="matrix(0.05,0,0,0.05,55.900000000000006,0)" xlink:href="#aI"/><use transform="matrix(0.05,0,0,0.05,65.9,0)" xlink:href="#aE"/><use transform="matrix(0.05,0,0,0.05,71.85000000000001,0)" xlink:href="#aX"/></g><path d="M30-248c87 1 191-15 191 75 0 78-77 80-158 76V0H30v-248zm33 125c57 0 124 11 124-50 0-59-68-47-124-48v98" id="bi"/><path d="M240 0l2-218c-23 76-54 145-80 218h-23L58-218 59 0H30v-248h44l77 211c21-75 51-140 76-211h43V0h-30" id="bj"/><g id="L"><use transform="matrix(0.05,0,0,0.05,0,0)" xlink:href="#aE"/><use transform="matrix(0.05,0,0,0.05,5.95,0)" xlink:href="#aD"/><use transform="matrix(0.05,0,0,0.05,15.949999999999998,0)" xlink:href="#aY"/><use transform="matrix(0.05,0,0,0.05,24.95,0)" xlink:href="#aI"/><use transform="matrix(0.05,0,0,0.05,34.95,0)" xlink:href="#aE"/><use transform="matrix(0.05,0,0,0.05,40.900000000000006,0)" xlink:href="#aU"/><use transform="matrix(0.05,0,0,0.05,50.900000000000006,0)" xlink:href="#bi"/><use transform="matrix(0.05,0,0,0.05,62.900000000000006,0)" xlink:href="#bc"/><use transform="matrix(0.05,0,0,0.05,72.9,0)" xlink:href="#ba"/><use transform="matrix(0.05,0,0,0.05,82.9,0)" xlink:href="#aZ"/><use transform="matrix(0.05,0,0,0.05,86.85000000000001,0)" xlink:href="#aK"/><use transform="matrix(0.05,0,0,0.05,90.80000000000001,0)" xlink:href="#aY"/><use transform="matrix(0.05,0,0,0.05,99.80000000000001,0)" xlink:href="#bj"/><use transform="matrix(0.05,0,0,0.05,114.75,0)" xlink:href="#aD"/><use transform="matrix(0.05,0,0,0.05,124.75,0)" xlink:href="#aQ"/><use transform="matrix(0.05,0,0,0.05,133.75,0)" xlink:href="#aQ"/><use transform="matrix(0.05,0,0,0.05,142.75,0)" xlink:href="#aA"/><use transform="matrix(0.05,0,0,0.05,152.75,0)" xlink:href="#aP"/><use transform="matrix(0.05,0,0,0.05,162.75,0)" xlink:href="#aD"/></g><g id="M"><use transform="matrix(0.05,0,0,0.05,0,0)" xlink:href="#aV"/><use transform="matrix(0.05,0,0,0.05,12.950000000000001,0)" xlink:href="#aQ"/><use transform="matrix(0.05,0,0,0.05,21.950000000000003,0)" xlink:href="#aD"/><use transform="matrix(0.05,0,0,0.05,31.950000000000003,0)" xlink:href="#aE"/><use transform="matrix(0.05,0,0,0.05,36.900000000000006,0)" xlink:href="#be"/></g><g id="N"><use transform="matrix(0.05,0,0,0.05,0,0)" xlink:href="#aE"/><use transform="matrix(0.05,0,0,0.05,5.95,0)" xlink:href="#aD"/><use transform="matrix(0.05,0,0,0.05,15.949999999999998,0)" xlink:href="#aY"/><use transform="matrix(0.05,0,0,0.05,24.95,0)" xlink:href="#aI"/><use transform="matrix(0.05,0,0,0.05,34.95,0)" xlink:href="#aE"/><use transform="matrix(0.05,0,0,0.05,40.900000000000006,0)" xlink:href="#aU"/><use transform="matrix(0.05,0,0,0.05,50.900000000000006,0)" xlink:href="#bi"/><use transform="matrix(0.05,0,0,0.05,62.900000000000006,0)" xlink:href="#aE"/><use transform="matrix(0.05,0,0,0.05,68.85000000000001,0)" xlink:href="#aK"/><use transform="matrix(0.05,0,0,0.05,72.80000000000001,0)" xlink:href="#aF"/><use transform="matrix(0.05,0,0,0.05,81.80000000000001,0)" xlink:href="#aA"/><use transform="matrix(0.05,0,0,0.05,91.80000000000001,0)" xlink:href="#aB"/><use transform="matrix(0.05,0,0,0.05,96.80000000000001,0)" xlink:href="#aD"/><use transform="matrix(0.05,0,0,0.05,106.80000000000001,0)" xlink:href="#bj"/><use transform="matrix(0.05,0,0,0.05,121.75,0)" xlink:href="#aD"/><use transform="matrix(0.05,0,0,0.05,131.75,0)" xlink:href="#aQ"/><use transform="matrix(0.05,0,0,0.05,140.75,0)" xlink:href="#aQ"/><use transform="matrix(0.05,0,0,0.05,149.75,0)" xlink:href="#aA"/><use transform="matrix(0.05,0,0,0.05,159.75,0)" xlink:href="#aP"/><use transform="matrix(0.05,0,0,0.05,169.75,0)" xlink:href="#aD"/></g><path d="M30 0v-248h187v28H63v79h144v27H63v87h162V0H30" id="bk"/><g id="O"><use transform="matrix(0.05,0,0,0.05,0,0)" xlink:href="#aE"/><use transform="matrix(0.05,0,0,0.05,5.95,0)" xlink:href="#aD"/><use transform="matrix(0.05,0,0,0.05,15.949999999999998,0)" xlink:href="#aY"/><use transform="matrix(0.05,0,0,0.05,24.95,0)" xlink:href="#aI"/><use transform="matrix(0.05,0,0,0.05,34.95,0)" xlink:href="#aE"/><use transform="matrix(0.05,0,0,0.05,40.900000000000006,0)" xlink:href="#aU"/><use transform="matrix(0.05,0,0,0.05,50.900000000000006,0)" xlink:href="#bk"/><use transform="matrix(0.05,0,0,0.05,62.900000000000006,0)" xlink:href="#aF"/><use transform="matrix(0.05,0,0,0.05,71.9,0)" xlink:href="#aD"/><use transform="matrix(0.05,0,0,0.05,81.9,0)" xlink:href="#aL"/><use transform="matrix(0.05,0,0,0.05,91.9,0)" xlink:href="#aB"/></g><g id="P"><use transform="matrix(0.05,0,0,0.05,0,0)" xlink:href="#ba"/><use transform="matrix(0.05,0,0,0.05,10,0)" xlink:href="#aI"/><use transform="matrix(0.05,0,0,0.05,20,0)" xlink:href="#aI"/><use transform="matrix(0.05,0,0,0.05,30,0)" xlink:href="#aZ"/><use transform="matrix(0.05,0,0,0.05,33.95,0)" xlink:href="#aD"/><use transform="matrix(0.05,0,0,0.05,43.95,0)" xlink:href="#aA"/><use transform="matrix(0.05,0,0,0.05,53.95,0)" xlink:href="#aL"/></g><g id="Q"><use transform="matrix(0.05,0,0,0.05,0,0)" xlink:href="#ay"/><use transform="matrix(0.05,0,0,0.05,12.950000000000001,0)" xlink:href="#az"/><use transform="matrix(0.05,0,0,0.05,22.950000000000003,0)" xlink:href="#aA"/><use transform="matrix(0.05,0,0,0.05,32.95,0)" xlink:href="#aB"/><use transform="matrix(0.05,0,0,0.05,37.95,0)" xlink:href="#ay"/><use transform="matrix(0.05,0,0,0.05,50.900000000000006,0)" xlink:href="#aI"/><use transform="matrix(0.05,0,0,0.05,60.900000000000006,0)" xlink:href="#aL"/><use transform="matrix(0.05,0,0,0.05,70.9,0)" xlink:href="#aL"/><use transform="matrix(0.05,0,0,0.05,80.9,0)" xlink:href="#aD"/><use transform="matrix(0.05,0,0,0.05,90.9,0)" xlink:href="#aY"/><use transform="matrix(0.05,0,0,0.05,99.9,0)" xlink:href="#aB"/><use transform="matrix(0.05,0,0,0.05,104.9,0)" xlink:href="#aK"/><use transform="matrix(0.05,0,0,0.05,108.85000000000001,0)" xlink:href="#aI"/><use transform="matrix(0.05,0,0,0.05,118.85000000000001,0)" xlink:href="#aL"/></g><path d="M141 0L90-78 38 0H4l68-98-65-92h35l48 74 47-74h35l-64 92 68 98h-35" id="bl"/><g id="R"><use transform="matrix(0.05,0,0,0.05,0,0)" xlink:href="#aD"/><use transform="matrix(0.05,0,0,0.05,10,0)" xlink:href="#bl"/><use transform="matrix(0.05,0,0,0.05,19,0)" xlink:href="#aB"/><use transform="matrix(0.05,0,0,0.05,24,0)" xlink:href="#aD"/><use transform="matrix(0.05,0,0,0.05,34,0)" xlink:href="#aL"/><use transform="matrix(0.05,0,0,0.05,44,0)" xlink:href="#aU"/><use transform="matrix(0.05,0,0,0.05,54,0)" xlink:href="#aQ"/></g><path d="M33 0v-248h34V0H33" id="bm"/><path d="M205 0l-28-72H64L36 0H1l101-248h38L239 0h-34zm-38-99l-47-123c-12 45-31 82-46 123h93" id="bn"/><g id="S"><use transform="matrix(0.05,0,0,0.05,0,0)" xlink:href="#ay"/><use transform="matrix(0.05,0,0,0.05,12.950000000000001,0)" xlink:href="#az"/><use transform="matrix(0.05,0,0,0.05,22.950000000000003,0)" xlink:href="#aA"/><use transform="matrix(0.05,0,0,0.05,32.95,0)" xlink:href="#aL"/><use transform="matrix(0.05,0,0,0.05,42.95,0)" xlink:href="#aL"/><use transform="matrix(0.05,0,0,0.05,52.95,0)" xlink:href="#aD"/><use transform="matrix(0.05,0,0,0.05,62.95,0)" xlink:href="#aZ"/><use transform="matrix(0.05,0,0,0.05,66.9,0)" xlink:href="#bm"/><use transform="matrix(0.05,0,0,0.05,71.9,0)" xlink:href="#aL"/><use transform="matrix(0.05,0,0,0.05,81.9,0)" xlink:href="#ba"/><use transform="matrix(0.05,0,0,0.05,91.9,0)" xlink:href="#aI"/><use transform="matrix(0.05,0,0,0.05,101.9,0)" xlink:href="#bc"/><use transform="matrix(0.05,0,0,0.05,111.9,0)" xlink:href="#aL"/><use transform="matrix(0.05,0,0,0.05,121.9,0)" xlink:href="#aU"/><use transform="matrix(0.05,0,0,0.05,131.9,0)" xlink:href="#bh"/><use transform="matrix(0.05,0,0,0.05,144.85,0)" xlink:href="#aA"/><use transform="matrix(0.05,0,0,0.05,154.85,0)" xlink:href="#aL"/><use transform="matrix(0.05,0,0,0.05,164.85,0)" xlink:href="#aU"/><use transform="matrix(0.05,0,0,0.05,174.85,0)" xlink:href="#aZ"/><use transform="matrix(0.05,0,0,0.05,178.79999999999998,0)" xlink:href="#aD"/><use transform="matrix(0.05,0,0,0.05,188.79999999999998,0)" xlink:href="#aE"/><use transform="matrix(0.05,0,0,0.05,194.74999999999997,0)" xlink:href="#bn"/><use transform="matrix(0.05,0,0,0.05,206.74999999999997,0)" xlink:href="#aU"/><use transform="matrix(0.05,0,0,0.05,216.74999999999997,0)" xlink:href="#aA"/><use transform="matrix(0.05,0,0,0.05,226.74999999999997,0)" xlink:href="#aH"/><use transform="matrix(0.05,0,0,0.05,236.74999999999997,0)" xlink:href="#aB"/><use transform="matrix(0.05,0,0,0.05,241.74999999999997,0)" xlink:href="#aD"/><use transform="matrix(0.05,0,0,0.05,251.74999999999997,0)" xlink:href="#aE"/></g><g id="T"><use transform="matrix(0.05,0,0,0.05,0,0)" xlink:href="#bc"/><use transform="matrix(0.05,0,0,0.05,10,0)" xlink:href="#aQ"/><use transform="matrix(0.05,0,0,0.05,19,0)" xlink:href="#aD"/><use transform="matrix(0.05,0,0,0.05,29,0)" xlink:href="#aE"/></g><g id="U"><use transform="matrix(0.05,0,0,0.05,0,0)" xlink:href="#aV"/><use transform="matrix(0.05,0,0,0.05,12.950000000000001,0)" xlink:href="#aQ"/><use transform="matrix(0.05,0,0,0.05,21.950000000000003,0)" xlink:href="#aD"/><use transform="matrix(0.05,0,0,0.05,31.950000000000003,0)" xlink:href="#aE"/></g><g id="V"><use transform="matrix(0.05,0,0,0.05,0,0)" xlink:href="#aY"/><use transform="matrix(0.05,0,0,0.05,9,0)" xlink:href="#az"/><use transform="matrix(0.05,0,0,0.05,19,0)" xlink:href="#aA"/><use transform="matrix(0.05,0,0,0.05,29,0)" xlink:href="#aL"/><use transform="matrix(0.05,0,0,0.05,39,0)" xlink:href="#aL"/><use transform="matrix(0.05,0,0,0.05,49,0)" xlink:href="#aD"/><use transform="matrix(0.05,0,0,0.05,59,0)" xlink:href="#aZ"/><use transform="matrix(0.05,0,0,0.05,62.95,0)" xlink:href="#bn"/><use transform="matrix(0.05,0,0,0.05,74.95,0)" xlink:href="#aY"/><use transform="matrix(0.05,0,0,0.05,83.95,0)" xlink:href="#aB"/><use transform="matrix(0.05,0,0,0.05,88.95,0)" xlink:href="#aK"/><use transform="matrix(0.05,0,0,0.05,92.9,0)" xlink:href="#aF"/><use transform="matrix(0.05,0,0,0.05,101.9,0)" xlink:href="#aD"/></g><g id="W"><use transform="matrix(0.05,0,0,0.05,0,0)" xlink:href="#ay"/><use transform="matrix(0.05,0,0,0.05,12.950000000000001,0)" xlink:href="#az"/><use transform="matrix(0.05,0,0,0.05,22.950000000000003,0)" xlink:href="#aA"/><use transform="matrix(0.05,0,0,0.05,32.95,0)" xlink:href="#aL"/><use transform="matrix(0.05,0,0,0.05,42.95,0)" xlink:href="#aL"/><use transform="matrix(0.05,0,0,0.05,52.95,0)" xlink:href="#aD"/><use transform="matrix(0.05,0,0,0.05,62.95,0)" xlink:href="#aZ"/><use transform="matrix(0.05,0,0,0.05,66.9,0)" xlink:href="#bh"/><use transform="matrix(0.05,0,0,0.05,79.85000000000001,0)" xlink:href="#aA"/><use transform="matrix(0.05,0,0,0.05,89.85000000000001,0)" xlink:href="#aL"/><use transform="matrix(0.05,0,0,0.05,99.85000000000001,0)" xlink:href="#aU"/><use transform="matrix(0.05,0,0,0.05,109.85000000000001,0)" xlink:href="#aZ"/><use transform="matrix(0.05,0,0,0.05,113.80000000000001,0)" xlink:href="#aD"/><use transform="matrix(0.05,0,0,0.05,123.80000000000001,0)" xlink:href="#aE"/><use transform="matrix(0.05,0,0,0.05,129.75,0)" xlink:href="#ay"/><use transform="matrix(0.05,0,0,0.05,142.7,0)" xlink:href="#aI"/><use transform="matrix(0.05,0,0,0.05,152.7,0)" xlink:href="#aL"/><use transform="matrix(0.05,0,0,0.05,162.7,0)" xlink:href="#aB"/><use transform="matrix(0.05,0,0,0.05,167.7,0)" xlink:href="#aD"/><use transform="matrix(0.05,0,0,0.05,177.7,0)" xlink:href="#bl"/><use transform="matrix(0.05,0,0,0.05,186.7,0)" xlink:href="#aB"/></g><path d="M233-177c-1 41-23 64-60 70L243 0h-38l-65-103H63V0H30v-248c88 3 205-21 203 71zM63-129c60-2 137 13 137-47 0-61-80-42-137-45v92" id="bo"/><g id="X"><use transform="matrix(0.05,0,0,0.05,0,0)" xlink:href="#aY"/><use transform="matrix(0.05,0,0,0.05,9,0)" xlink:href="#az"/><use transform="matrix(0.05,0,0,0.05,19,0)" xlink:href="#aA"/><use transform="matrix(0.05,0,0,0.05,29,0)" xlink:href="#aL"/><use transform="matrix(0.05,0,0,0.05,39,0)" xlink:href="#aL"/><use transform="matrix(0.05,0,0,0.05,49,0)" xlink:href="#aD"/><use transform="matrix(0.05,0,0,0.05,59,0)" xlink:href="#aZ"/><use transform="matrix(0.05,0,0,0.05,62.95,0)" xlink:href="#bo"/><use transform="matrix(0.05,0,0,0.05,75.9,0)" xlink:href="#aD"/><use transform="matrix(0.05,0,0,0.05,85.9,0)" xlink:href="#aA"/><use transform="matrix(0.05,0,0,0.05,95.9,0)" xlink:href="#aU"/></g><g id="Y"><use transform="matrix(0.05,0,0,0.05,0,0)" xlink:href="#ay"/><use transform="matrix(0.05,0,0,0.05,12.950000000000001,0)" xlink:href="#az"/><use transform="matrix(0.05,0,0,0.05,22.950000000000003,0)" xlink:href="#aA"/><use transform="matrix(0.05,0,0,0.05,32.95,0)" xlink:href="#aL"/><use transform="matrix(0.05,0,0,0.05,42.95,0)" xlink:href="#aL"/><use transform="matrix(0.05,0,0,0.05,52.95,0)" xlink:href="#aD"/><use transform="matrix(0.05,0,0,0.05,62.95,0)" xlink:href="#aZ"/><use transform="matrix(0.05,0,0,0.05,66.9,0)" xlink:href="#bh"/><use transform="matrix(0.05,0,0,0.05,79.85000000000001,0)" xlink:href="#aA"/><use transform="matrix(0.05,0,0,0.05,89.85000000000001,0)" xlink:href="#aL"/><use transform="matrix(0.05,0,0,0.05,99.85000000000001,0)" xlink:href="#aU"/><use transform="matrix(0.05,0,0,0.05,109.85000000000001,0)" xlink:href="#aZ"/><use transform="matrix(0.05,0,0,0.05,113.80000000000001,0)" xlink:href="#aD"/><use transform="matrix(0.05,0,0,0.05,123.80000000000001,0)" xlink:href="#aE"/><use transform="matrix(0.05,0,0,0.05,129.75,0)" xlink:href="#ay"/><use transform="matrix(0.05,0,0,0.05,142.7,0)" xlink:href="#aI"/><use transform="matrix(0.05,0,0,0.05,152.7,0)" xlink:href="#aL"/><use transform="matrix(0.05,0,0,0.05,162.7,0)" xlink:href="#aB"/><use transform="matrix(0.05,0,0,0.05,167.7,0)" xlink:href="#aD"/><use transform="matrix(0.05,0,0,0.05,177.7,0)" xlink:href="#bl"/><use transform="matrix(0.05,0,0,0.05,186.7,0)" xlink:href="#aB"/><use transform="matrix(0.05,0,0,0.05,191.7,0)" xlink:href="#be"/></g><path d="M140-251c81 0 123 46 123 126C263-46 219 4 140 4 59 4 17-45 17-125s42-126 123-126zm0 227c63 0 89-41 89-101s-29-99-89-99c-61 0-89 39-89 99S79-25 140-24" id="bp"/><path d="M24-231v-30h32v30H24zM-9 49c24 4 33-6 33-30v-209h32V24c2 40-23 58-65 49V49" id="bq"/><g id="Z"><use transform="matrix(0.05,0,0,0.05,0,0)" xlink:href="#bp"/><use transform="matrix(0.05,0,0,0.05,14,0)" xlink:href="#ba"/><use transform="matrix(0.05,0,0,0.05,24,0)" xlink:href="#bq"/><use transform="matrix(0.05,0,0,0.05,27.950000000000003,0)" xlink:href="#aD"/><use transform="matrix(0.05,0,0,0.05,37.95,0)" xlink:href="#aY"/><use transform="matrix(0.05,0,0,0.05,46.95,0)" xlink:href="#aB"/></g><use transform="matrix(0.05,0,0,0.05,0,0)" xlink:href="#aT" id="aa"/><g id="ab"><use transform="matrix(0.05,0,0,0.05,0,0)" xlink:href="#aY"/><use transform="matrix(0.05,0,0,0.05,9,0)" xlink:href="#az"/><use transform="matrix(0.05,0,0,0.05,19,0)" xlink:href="#aA"/><use transform="matrix(0.05,0,0,0.05,29,0)" xlink:href="#aL"/><use transform="matrix(0.05,0,0,0.05,39,0)" xlink:href="#aL"/><use transform="matrix(0.05,0,0,0.05,49,0)" xlink:href="#aD"/><use transform="matrix(0.05,0,0,0.05,59,0)" xlink:href="#aZ"/><use transform="matrix(0.05,0,0,0.05,62.95,0)" xlink:href="#bm"/><use transform="matrix(0.05,0,0,0.05,67.95,0)" xlink:href="#aL"/><use transform="matrix(0.05,0,0,0.05,77.95,0)" xlink:href="#aA"/><use transform="matrix(0.05,0,0,0.05,87.95,0)" xlink:href="#aY"/><use transform="matrix(0.05,0,0,0.05,96.95,0)" xlink:href="#aB"/><use transform="matrix(0.05,0,0,0.05,101.95,0)" xlink:href="#aK"/><use transform="matrix(0.05,0,0,0.05,105.9,0)" xlink:href="#aF"/><use transform="matrix(0.05,0,0,0.05,114.9,0)" xlink:href="#aD"/></g><g id="ac"><use transform="matrix(0.05,0,0,0.05,0,0)" xlink:href="#aF"/><use transform="matrix(0.05,0,0,0.05,9,0)" xlink:href="#aI"/><use transform="matrix(0.05,0,0,0.05,19,0)" xlink:href="#aK"/><use transform="matrix(0.05,0,0,0.05,22.95,0)" xlink:href="#aU"/></g><g id="ad"><use transform="matrix(0.05,0,0,0.05,0,0)" xlink:href="#aC"/><use transform="matrix(0.05,0,0,0.05,12,0)" xlink:href="#aD"/><use transform="matrix(0.05,0,0,0.05,22,0)" xlink:href="#aE"/><use transform="matrix(0.05,0,0,0.05,27.950000000000003,0)" xlink:href="#aF"/><use transform="matrix(0.05,0,0,0.05,36.95,0)" xlink:href="#aD"/><use transform="matrix(0.05,0,0,0.05,46.95,0)" xlink:href="#aE"/><use transform="matrix(0.05,0,0,0.05,52.900000000000006,0)" xlink:href="#ay"/><use transform="matrix(0.05,0,0,0.05,65.85000000000001,0)" xlink:href="#aI"/><use transform="matrix(0.05,0,0,0.05,75.85000000000001,0)" xlink:href="#aL"/><use transform="matrix(0.05,0,0,0.05,85.85000000000001,0)" xlink:href="#aB"/><use transform="matrix(0.05,0,0,0.05,90.85000000000001,0)" xlink:href="#aE"/><use transform="matrix(0.05,0,0,0.05,96.80000000000001,0)" xlink:href="#aI"/><use transform="matrix(0.05,0,0,0.05,106.80000000000001,0)" xlink:href="#aZ"/><use transform="matrix(0.05,0,0,0.05,110.75,0)" xlink:href="#aZ"/><use transform="matrix(0.05,0,0,0.05,114.7,0)" xlink:href="#aD"/><use transform="matrix(0.05,0,0,0.05,124.7,0)" xlink:href="#aE"/></g><use transform="matrix(0.05,0,0,0.05,0,0)" xlink:href="#aG" id="ae"/><g id="af"><use transform="matrix(0.05,0,0,0.05,0,0)" xlink:href="#bc"/><use transform="matrix(0.05,0,0,0.05,10,0)" xlink:href="#aQ"/><use transform="matrix(0.05,0,0,0.05,19,0)" xlink:href="#aD"/><use transform="matrix(0.05,0,0,0.05,29,0)" xlink:href="#aE"/><use transform="matrix(0.05,0,0,0.05,34.95,0)" xlink:href="#aQ"/><path d="M-.9 1.25h45.75v1.32H-.9z"/></g><path d="M9 0v-24l116-142H16v-24h144v24L44-24h123V0H9" id="br"/><g id="ag"><use transform="matrix(0.05,0,0,0.05,0,0)" xlink:href="#aC"/><use transform="matrix(0.05,0,0,0.05,12,0)" xlink:href="#aX"/><use transform="matrix(0.05,0,0,0.05,21,0)" xlink:href="#aL"/><use transform="matrix(0.05,0,0,0.05,31,0)" xlink:href="#aY"/><use transform="matrix(0.05,0,0,0.05,40,0)" xlink:href="#az"/><use transform="matrix(0.05,0,0,0.05,50,0)" xlink:href="#aE"/><use transform="matrix(0.05,0,0,0.05,55.95,0)" xlink:href="#aI"/><use transform="matrix(0.05,0,0,0.05,65.95,0)" xlink:href="#aL"/><use transform="matrix(0.05,0,0,0.05,75.95,0)" xlink:href="#aK"/><use transform="matrix(0.05,0,0,0.05,79.9,0)" xlink:href="#br"/><use transform="matrix(0.05,0,0,0.05,88.9,0)" xlink:href="#aD"/><use transform="matrix(0.05,0,0,0.05,98.9,0)" xlink:href="#aU"/><use transform="matrix(0.05,0,0,0.05,108.9,0)" xlink:href="#aC"/><use transform="matrix(0.05,0,0,0.05,120.9,0)" xlink:href="#aI"/><use transform="matrix(0.05,0,0,0.05,130.9,0)" xlink:href="#aE"/><use transform="matrix(0.05,0,0,0.05,136.85,0)" xlink:href="#aB"/><use transform="matrix(0.05,0,0,0.05,141.85,0)" xlink:href="#aD"/><use transform="matrix(0.05,0,0,0.05,151.85,0)" xlink:href="#aU"/><use transform="matrix(0.05,0,0,0.05,161.85,0)" xlink:href="#bj"/><use transform="matrix(0.05,0,0,0.05,176.79999999999998,0)" xlink:href="#aA"/><use transform="matrix(0.05,0,0,0.05,186.79999999999998,0)" xlink:href="#aH"/></g><path d="M18-100v-36l175-74v27L42-118l151 64v27" id="bs"/><g id="ah"><use transform="matrix(0.05,0,0,0.05,0,0)" xlink:href="#bs"/><use transform="matrix(0.05,0,0,0.05,10.5,0)" xlink:href="#aC"/><use transform="matrix(0.05,0,0,0.05,22.5,0)" xlink:href="#aB"/><use transform="matrix(0.05,0,0,0.05,27.5,0)" xlink:href="#aE"/><use transform="matrix(0.05,0,0,0.05,33.45,0)" xlink:href="#aK"/><use transform="matrix(0.05,0,0,0.05,37.400000000000006,0)" xlink:href="#aL"/><use transform="matrix(0.05,0,0,0.05,47.400000000000006,0)" xlink:href="#aP"/><use transform="matrix(0.05,0,0,0.05,57.400000000000006,0)" xlink:href="#be"/></g><path d="M18-27v-27l151-64-151-65v-27l175 74v36" id="bt"/><g id="ai"><use transform="matrix(0.05,0,0,0.05,0,0)" xlink:href="#aV"/><use transform="matrix(0.05,0,0,0.05,12.950000000000001,0)" xlink:href="#aQ"/><use transform="matrix(0.05,0,0,0.05,21.950000000000003,0)" xlink:href="#aD"/><use transform="matrix(0.05,0,0,0.05,31.950000000000003,0)" xlink:href="#aE"/><use transform="matrix(0.05,0,0,0.05,37.900000000000006,0)" xlink:href="#bt"/></g><g id="aj"><use transform="matrix(0.05,0,0,0.05,0,0)" xlink:href="#aY"/><use transform="matrix(0.05,0,0,0.05,9,0)" xlink:href="#az"/><use transform="matrix(0.05,0,0,0.05,19,0)" xlink:href="#aA"/><use transform="matrix(0.05,0,0,0.05,29,0)" xlink:href="#aL"/><use transform="matrix(0.05,0,0,0.05,39,0)" xlink:href="#aL"/><use transform="matrix(0.05,0,0,0.05,49,0)" xlink:href="#aD"/><use transform="matrix(0.05,0,0,0.05,59,0)" xlink:href="#aZ"/><use transform="matrix(0.05,0,0,0.05,62.95,0)" xlink:href="#aQ"/><path d="M-.9 1.25h73.75v1.32H-.9z"/></g><g id="ak"><use transform="matrix(0.05,0,0,0.05,0,0)" xlink:href="#aH"/><use transform="matrix(0.05,0,0,0.05,10,0)" xlink:href="#aE"/><use transform="matrix(0.05,0,0,0.05,15.949999999999998,0)" xlink:href="#aI"/><use transform="matrix(0.05,0,0,0.05,25.950000000000003,0)" xlink:href="#aY"/><use transform="matrix(0.05,0,0,0.05,34.95,0)" xlink:href="#aD"/><use transform="matrix(0.05,0,0,0.05,44.95,0)" xlink:href="#aQ"/><use transform="matrix(0.05,0,0,0.05,53.95,0)" xlink:href="#aQ"/><path d="M-.9 1.25h64.75v1.32H-.9z"/></g><g id="al"><use transform="matrix(0.05,0,0,0.05,0,0)" xlink:href="#ay"/><use transform="matrix(0.05,0,0,0.05,12.950000000000001,0)" xlink:href="#az"/><use transform="matrix(0.05,0,0,0.05,22.950000000000003,0)" xlink:href="#aA"/><use transform="matrix(0.05,0,0,0.05,32.95,0)" xlink:href="#aL"/><use transform="matrix(0.05,0,0,0.05,42.95,0)" xlink:href="#aL"/><use transform="matrix(0.05,0,0,0.05,52.95,0)" xlink:href="#aD"/><use transform="matrix(0.05,0,0,0.05,62.95,0)" xlink:href="#aZ"/></g><g id="am"><use transform="matrix(0.05,0,0,0.05,0,0)" xlink:href="#aZ"/><use transform="matrix(0.05,0,0,0.05,3.95,0)" xlink:href="#aI"/><use transform="matrix(0.05,0,0,0.05,13.949999999999998,0)" xlink:href="#aP"/><use transform="matrix(0.05,0,0,0.05,23.95,0)" xlink:href="#aK"/><use transform="matrix(0.05,0,0,0.05,27.899999999999995,0)" xlink:href="#aL"/><path d="M-.9 1.25h39.7v1.32H-.9z"/></g><g id="an"><use transform="matrix(0.05,0,0,0.05,0,0)" xlink:href="#aE"/><use transform="matrix(0.05,0,0,0.05,5.95,0)" xlink:href="#aD"/><use transform="matrix(0.05,0,0,0.05,15.949999999999998,0)" xlink:href="#aP"/><use transform="matrix(0.05,0,0,0.05,25.950000000000003,0)" xlink:href="#aK"/><use transform="matrix(0.05,0,0,0.05,29.899999999999995,0)" xlink:href="#aQ"/><use transform="matrix(0.05,0,0,0.05,38.9,0)" xlink:href="#aB"/><use transform="matrix(0.05,0,0,0.05,43.9,0)" xlink:href="#aD"/><use transform="matrix(0.05,0,0,0.05,53.900000000000006,0)" xlink:href="#aE"/><path d="M-.9 1.25h61.65v1.32H-.9z"/></g><g id="ao"><use transform="matrix(0.05,0,0,0.05,0,0)" xlink:href="#aH"/><use transform="matrix(0.05,0,0,0.05,10,0)" xlink:href="#bc"/><use transform="matrix(0.05,0,0,0.05,20,0)" xlink:href="#ba"/><use transform="matrix(0.05,0,0,0.05,30,0)" xlink:href="#aZ"/><use transform="matrix(0.05,0,0,0.05,33.95,0)" xlink:href="#aK"/><use transform="matrix(0.05,0,0,0.05,37.900000000000006,0)" xlink:href="#aY"/><use transform="matrix(0.05,0,0,0.05,46.900000000000006,0)" xlink:href="#bj"/><use transform="matrix(0.05,0,0,0.05,61.85,0)" xlink:href="#aD"/><use transform="matrix(0.05,0,0,0.05,71.85000000000001,0)" xlink:href="#aQ"/><use transform="matrix(0.05,0,0,0.05,80.85000000000001,0)" xlink:href="#aQ"/><use transform="matrix(0.05,0,0,0.05,89.85000000000001,0)" xlink:href="#aA"/><use transform="matrix(0.05,0,0,0.05,99.85000000000001,0)" xlink:href="#aP"/><use transform="matrix(0.05,0,0,0.05,109.85000000000001,0)" xlink:href="#aD"/><path d="M-.9 1.25h121.65v1.32H-.9z"/></g><g id="ap"><use transform="matrix(0.05,0,0,0.05,0,0)" xlink:href="#aH"/><use transform="matrix(0.05,0,0,0.05,10,0)" xlink:href="#aE"/><use transform="matrix(0.05,0,0,0.05,15.949999999999998,0)" xlink:href="#aK"/><use transform="matrix(0.05,0,0,0.05,19.9,0)" xlink:href="#aF"/><use transform="matrix(0.05,0,0,0.05,28.899999999999995,0)" xlink:href="#aA"/><use transform="matrix(0.05,0,0,0.05,38.9,0)" xlink:href="#aB"/><use transform="matrix(0.05,0,0,0.05,43.9,0)" xlink:href="#aD"/><use transform="matrix(0.05,0,0,0.05,53.900000000000006,0)" xlink:href="#bj"/><use transform="matrix(0.05,0,0,0.05,68.85,0)" xlink:href="#aD"/><use transform="matrix(0.05,0,0,0.05,78.85,0)" xlink:href="#aQ"/><use transform="matrix(0.05,0,0,0.05,87.85,0)" xlink:href="#aQ"/><use transform="matrix(0.05,0,0,0.05,96.85,0)" xlink:href="#aA"/><use transform="matrix(0.05,0,0,0.05,106.84999999999998,0)" xlink:href="#aP"/><use transform="matrix(0.05,0,0,0.05,116.84999999999998,0)" xlink:href="#aD"/><path d="M-.9 1.25h128.65v1.32H-.9z"/></g><g id="aq"><use transform="matrix(0.05,0,0,0.05,0,0)" xlink:href="#aZ"/><use transform="matrix(0.05,0,0,0.05,3.95,0)" xlink:href="#aI"/><use transform="matrix(0.05,0,0,0.05,13.949999999999998,0)" xlink:href="#aP"/><use transform="matrix(0.05,0,0,0.05,23.95,0)" xlink:href="#aI"/><use transform="matrix(0.05,0,0,0.05,33.95,0)" xlink:href="#bc"/><use transform="matrix(0.05,0,0,0.05,43.95,0)" xlink:href="#aB"/><path d="M-.9 1.25h50.75v1.32H-.9z"/></g><g id="ar"><use transform="matrix(0.05,0,0,0.05,0,0)" xlink:href="#aF"/><use transform="matrix(0.05,0,0,0.05,9,0)" xlink:href="#aI"/><use transform="matrix(0.05,0,0,0.05,19,0)" xlink:href="#aK"/><use transform="matrix(0.05,0,0,0.05,22.95,0)" xlink:href="#aU"/><path d="M32.05 1.25h1.8v1.32h-1.8z"/></g><g id="as"><use transform="matrix(0.05,0,0,0.05,0,0)" xlink:href="#aU"/><use transform="matrix(0.05,0,0,0.05,10,0)" xlink:href="#aD"/><use transform="matrix(0.05,0,0,0.05,20,0)" xlink:href="#aZ"/><use transform="matrix(0.05,0,0,0.05,23.95,0)" xlink:href="#aD"/><use transform="matrix(0.05,0,0,0.05,33.95,0)" xlink:href="#aB"/><use transform="matrix(0.05,0,0,0.05,38.95,0)" xlink:href="#aD"/><use transform="matrix(0.05,0,0,0.05,48.95,0)" xlink:href="#bn"/><use transform="matrix(0.05,0,0,0.05,60.95,0)" xlink:href="#aY"/><use transform="matrix(0.05,0,0,0.05,69.95,0)" xlink:href="#aY"/><use transform="matrix(0.05,0,0,0.05,78.95,0)" xlink:href="#aI"/><use transform="matrix(0.05,0,0,0.05,88.95,0)" xlink:href="#bc"/><use transform="matrix(0.05,0,0,0.05,98.95,0)" xlink:href="#aL"/><use transform="matrix(0.05,0,0,0.05,108.95,0)" xlink:href="#aB"/><path d="M-.9 1.25h115.75v1.32H-.9z"/></g><g id="at"><use transform="matrix(0.05,0,0,0.05,0,0)" xlink:href="#aQ"/><use transform="matrix(0.05,0,0,0.05,9,0)" xlink:href="#aD"/><use transform="matrix(0.05,0,0,0.05,19,0)" xlink:href="#aL"/><use transform="matrix(0.05,0,0,0.05,29,0)" xlink:href="#aU"/><use transform="matrix(0.05,0,0,0.05,39,0)" xlink:href="#bh"/><use transform="matrix(0.05,0,0,0.05,51.95,0)" xlink:href="#aK"/><use transform="matrix(0.05,0,0,0.05,55.900000000000006,0)" xlink:href="#aQ"/><use transform="matrix(0.05,0,0,0.05,64.9,0)" xlink:href="#aB"/><use transform="matrix(0.05,0,0,0.05,69.9,0)" xlink:href="#aI"/><use transform="matrix(0.05,0,0,0.05,79.9,0)" xlink:href="#aE"/><use transform="matrix(0.05,0,0,0.05,85.85000000000001,0)" xlink:href="#aX"/><path d="M-.9 1.25h96.65v1.32H-.9z"/></g><g id="au"><use transform="matrix(0.05,0,0,0.05,0,0)" xlink:href="#bb"/><use transform="matrix(0.05,0,0,0.05,14,0)" xlink:href="#aI"/><use transform="matrix(0.05,0,0,0.05,24,0)" xlink:href="#aI"/><use transform="matrix(0.05,0,0,0.05,34,0)" xlink:href="#aP"/><use transform="matrix(0.05,0,0,0.05,44,0)" xlink:href="#aZ"/><use transform="matrix(0.05,0,0,0.05,47.95,0)" xlink:href="#aD"/></g><path d="M160-131c35 5 61 23 61 61C221 17 115-2 30 0v-248c76 3 177-17 177 60 0 33-19 50-47 57zm-97-11c50-1 110 9 110-42 0-47-63-36-110-37v79zm0 115c55-2 124 14 124-45 0-56-70-42-124-44v89" id="bu"/><path d="M101-234c-31-9-42 10-38 44h38v23H63V0H32v-167H5v-23h27c-7-52 17-82 69-68v24" id="bv"/><g id="av"><use transform="matrix(0.05,0,0,0.05,0,0)" xlink:href="#bi"/><use transform="matrix(0.05,0,0,0.05,12,0)" xlink:href="#aE"/><use transform="matrix(0.05,0,0,0.05,17.95,0)" xlink:href="#aI"/><use transform="matrix(0.05,0,0,0.05,27.950000000000003,0)" xlink:href="#aB"/><use transform="matrix(0.05,0,0,0.05,32.95,0)" xlink:href="#aI"/><use transform="matrix(0.05,0,0,0.05,42.95,0)" xlink:href="#bu"/><use transform="matrix(0.05,0,0,0.05,54.95,0)" xlink:href="#bc"/><use transform="matrix(0.05,0,0,0.05,64.95,0)" xlink:href="#bv"/></g><path d="M0 4l72-265h28L28 4H0" id="bw"/><g id="aw"><use transform="matrix(0.05,0,0,0.05,0,0)" xlink:href="#bj"/><use transform="matrix(0.05,0,0,0.05,14.950000000000001,0)" xlink:href="#aD"/><use transform="matrix(0.05,0,0,0.05,24.950000000000003,0)" xlink:href="#aQ"/><use transform="matrix(0.05,0,0,0.05,33.95,0)" xlink:href="#aQ"/><use transform="matrix(0.05,0,0,0.05,42.95,0)" xlink:href="#aA"/><use transform="matrix(0.05,0,0,0.05,52.95,0)" xlink:href="#aP"/><use transform="matrix(0.05,0,0,0.05,62.95,0)" xlink:href="#aD"/><use transform="matrix(0.05,0,0,0.05,72.95,0)" xlink:href="#bw"/><use transform="matrix(0.05,0,0,0.05,77.95,0)" xlink:href="#bk"/><use transform="matrix(0.05,0,0,0.05,89.95,0)" xlink:href="#aF"/><use transform="matrix(0.05,0,0,0.05,98.95,0)" xlink:href="#aD"/><use transform="matrix(0.05,0,0,0.05,108.95,0)" xlink:href="#aL"/><use transform="matrix(0.05,0,0,0.05,118.95,0)" xlink:href="#aB"/></g><g id="ax"><use transform="matrix(0.05,0,0,0.05,0,0)" xlink:href="#bi"/><use transform="matrix(0.05,0,0,0.05,12,0)" xlink:href="#aE"/><use transform="matrix(0.05,0,0,0.05,17.95,0)" xlink:href="#aI"/><use transform="matrix(0.05,0,0,0.05,27.950000000000003,0)" xlink:href="#aB"/><use transform="matrix(0.05,0,0,0.05,32.95,0)" xlink:href="#aI"/><use transform="matrix(0.05,0,0,0.05,42.95,0)" xlink:href="#aY"/><use transform="matrix(0.05,0,0,0.05,51.95,0)" xlink:href="#aI"/><use transform="matrix(0.05,0,0,0.05,61.95,0)" xlink:href="#aZ"/></g></defs></g></svg>