<svg xmlns="http://www.w3.org/2000/svg" xmlns:xlink="http://www.w3.org/1999/xlink" width="1080" height="160"><g transform="translate(-140 -140)"><path d="M260 210c0 27.6-22.4 50-50 50s-50-22.4-50-50 22.4-50 50-50 50 22.4 50 50z" stroke="#000" stroke-width="2" fill="#fff"/><path d="M220 154l-10 6 10 7.2" stroke="#000" stroke-width="2" fill="none"/><use xlink:href="#a" transform="matrix(1,0,0,1,120,260) translate(44.574999999999996 14.4)"/><path d="M690 210c0 27.6-22.4 50-50 50s-50-22.4-50-50 22.4-50 50-50 50 22.4 50 50z" stroke="#000" stroke-width="2" fill="#fff"/><path d="M650 154l-10 6 10 7.2" stroke="#000" stroke-width="2" fill="none"/><use xlink:href="#b" transform="matrix(1,0,0,1,550,260) translate(24.674999999999997 14.4)"/><path d="M490 210c0 27.6-22.4 50-50 50s-50-22.4-50-50 22.4-50 50-50 50 22.4 50 50z" stroke="#000" stroke-width="2" fill="#fff"/><path d="M370 160v100m0-50h20" stroke="#000" stroke-width="2" fill="none"/><use xlink:href="#c" transform="matrix(1,0,0,1,350,260) translate(25.57499999999999 14.4)"/><path d="M880 260c-27.6 0-50-22.4-50-50s22.4-50 50-50 50 22.4 50 50-22.4 50-50 50z" stroke="#000" stroke-width="2" fill="#fff"/><path d="M830 260h100" stroke="#000" stroke-width="2" fill="none"/><use xlink:href="#d" transform="matrix(1,0,0,1,790,260) translate(71.05 14.4)"/><path d="M259 220h111" stroke="#000" stroke-width="2" fill="none"/><path d="M259 221h-.26l.26-1zM371.96 220l-18.67 11.04-1.02-1.72 15.76-9.32-15.76-9.32 1-1.72z"/><path d="M260 160h110v60H260z" fill="none"/><use xlink:href="#e" transform="matrix(1,0,0,1,265,165) translate(8.524999999999999 17.799999999999997)"/><use xlink:href="#f" transform="matrix(1,0,0,1,265,165) translate(4.549999999999997 39.4)"/><path d="M490 160h100v60H490z" fill="none"/><use xlink:href="#g" transform="matrix(1,0,0,1,495,165) translate(2.5749999999999957 17.799999999999997)"/><use xlink:href="#h" transform="matrix(1,0,0,1,495,165) translate(70.525 17.799999999999997)"/><use xlink:href="#i" transform="matrix(1,0,0,1,495,165) translate(81.475 17.799999999999997)"/><use xlink:href="#j" transform="matrix(1,0,0,1,495,165) translate(9.574999999999996 39.4)"/><use xlink:href="#h" transform="matrix(1,0,0,1,495,165) translate(63.525 39.4)"/><use xlink:href="#k" transform="matrix(1,0,0,1,495,165) translate(74.475 39.4)"/><path d="M489 220h102.05" stroke="#000" stroke-width="2" fill="none"/><path d="M489 221h-.26l.26-1zM590.75 218.66l.53 2.37-16.93 10-1.02-1.7L589.1 220l-15.77-9.32 1.02-1.72z"/><path d="M689 220h141.03" stroke="#000" stroke-width="2" fill="none"/><path d="M689 221h-.26l.26-1zM830.9 219.36l.26 1.13-17.84 10.54-1.02-1.72 15.76-9.32-15.76-9.32 1.02-1.72z"/><path d="M689.67 160H830v60H689.67z" fill="none"/><use xlink:href="#l" transform="matrix(1,0,0,1,694.6666666666666,165) translate(0.674999999999983 17.799999999999997)"/><use xlink:href="#m" transform="matrix(1,0,0,1,694.6666666666666,165) translate(57.47499999999999 17.799999999999997)"/><use xlink:href="#n" transform="matrix(1,0,0,1,694.6666666666666,165) translate(74.475 17.799999999999997)"/><use xlink:href="#o" transform="matrix(1,0,0,1,694.6666666666666,165) translate(23.549999999999997 39.4)"/><path d="M1040 160h160v120h-160z" stroke="#000" stroke-width="2" fill="#fff"/><g><use xlink:href="#p" transform="matrix(1,0,0,1,1040,160) translate(11.579999999999993 63.15)"/><use xlink:href="#q" transform="matrix(1,0,0,1,1040,160) translate(54.529999999999994 63.15)"/></g><path d="M929 220h111" stroke="#000" stroke-width="2" fill="none"/><path d="M929 221h-.26l.26-1zM1040 218.84v2.32l-16.7 9.88-1.02-1.72 15.76-9.32-15.76-9.32 1-1.72z"/><path d="M930 160h110v60H930z" fill="none"/><g><use xlink:href="#r" transform="matrix(1,0,0,1,935,165) translate(22.074999999999996 17.799999999999997)"/><use xlink:href="#o" transform="matrix(1,0,0,1,935,165) translate(8.049999999999997 39.4)"/></g><defs><path d="M212-179c-10-28-35-45-73-45-59 0-87 40-87 99 0 60 29 101 89 101 43 0 62-24 78-52l27 14C228-24 195 4 139 4 59 4 22-46 18-125c-6-104 99-153 187-111 19 9 31 26 39 46" id="s"/><path d="M106-169C34-169 62-67 57 0H25v-261h32l-1 103c12-21 28-36 61-36 89 0 53 116 60 194h-32v-121c2-32-8-49-39-48" id="t"/><path d="M141-36C126-15 110 5 73 4 37 3 15-17 15-53c-1-64 63-63 125-63 3-35-9-54-41-54-24 1-41 7-42 31l-33-3c5-37 33-52 76-52 45 0 72 20 72 64v82c-1 20 7 32 28 27v20c-31 9-61-2-59-35zM48-53c0 20 12 33 32 33 41-3 63-29 60-74-43 2-92-5-92 41" id="u"/><path d="M59-47c-2 24 18 29 38 22v24C64 9 27 4 27-40v-127H5v-23h24l9-43h21v43h35v23H59v120" id="v"/><path d="M185-189c-5-48-123-54-124 2 14 75 158 14 163 119 3 78-121 87-175 55-17-10-28-26-33-46l33-7c5 56 141 63 141-1 0-78-155-14-162-118-5-82 145-84 179-34 5 7 8 16 11 25" id="w"/><path d="M100-194c63 0 86 42 84 106H49c0 40 14 67 53 68 26 1 43-12 49-29l28 8c-11 28-37 45-77 45C44 4 14-33 15-96c1-61 26-98 85-98zm52 81c6-60-76-77-97-28-3 7-6 17-6 28h103" id="x"/><path d="M114-163C36-179 61-72 57 0H25l-1-190h30c1 12-1 29 2 39 6-27 23-49 58-41v29" id="y"/><path d="M108 0H70L1-190h34L89-25l56-165h34" id="z"/><g id="a"><use transform="matrix(0.05,0,0,0.05,0,0)" xlink:href="#s"/><use transform="matrix(0.05,0,0,0.05,12.950000000000001,0)" xlink:href="#t"/><use transform="matrix(0.05,0,0,0.05,22.950000000000003,0)" xlink:href="#u"/><use transform="matrix(0.05,0,0,0.05,32.95,0)" xlink:href="#v"/><use transform="matrix(0.05,0,0,0.05,37.95,0)" xlink:href="#w"/><use transform="matrix(0.05,0,0,0.05,49.95,0)" xlink:href="#x"/><use transform="matrix(0.05,0,0,0.05,59.95,0)" xlink:href="#y"/><use transform="matrix(0.05,0,0,0.05,65.9,0)" xlink:href="#z"/><use transform="matrix(0.05,0,0,0.05,74.9,0)" xlink:href="#x"/><use transform="matrix(0.05,0,0,0.05,84.9,0)" xlink:href="#y"/></g><path d="M100-194c62-1 85 37 85 99 1 63-27 99-86 99S16-35 15-95c0-66 28-99 85-99zM99-20c44 1 53-31 53-75 0-43-8-75-51-75s-53 32-53 75 10 74 51 75" id="A"/><path d="M117-194c89-4 53 116 60 194h-32v-121c0-31-8-49-39-48C34-167 62-67 57 0H25l-1-190h30c1 10-1 24 2 32 11-22 29-35 61-36" id="B"/><path d="M24 0v-261h32V0H24" id="C"/><g id="b"><use transform="matrix(0.05,0,0,0.05,0,0)" xlink:href="#w"/><use transform="matrix(0.05,0,0,0.05,12,0)" xlink:href="#x"/><use transform="matrix(0.05,0,0,0.05,22,0)" xlink:href="#y"/><use transform="matrix(0.05,0,0,0.05,27.950000000000003,0)" xlink:href="#z"/><use transform="matrix(0.05,0,0,0.05,36.95,0)" xlink:href="#x"/><use transform="matrix(0.05,0,0,0.05,46.95,0)" xlink:href="#y"/><use transform="matrix(0.05,0,0,0.05,52.900000000000006,0)" xlink:href="#s"/><use transform="matrix(0.05,0,0,0.05,65.85000000000001,0)" xlink:href="#A"/><use transform="matrix(0.05,0,0,0.05,75.85000000000001,0)" xlink:href="#B"/><use transform="matrix(0.05,0,0,0.05,85.85000000000001,0)" xlink:href="#v"/><use transform="matrix(0.05,0,0,0.05,90.85000000000001,0)" xlink:href="#y"/><use transform="matrix(0.05,0,0,0.05,96.80000000000001,0)" xlink:href="#A"/><use transform="matrix(0.05,0,0,0.05,106.80000000000001,0)" xlink:href="#C"/><use transform="matrix(0.05,0,0,0.05,110.75,0)" xlink:href="#C"/><use transform="matrix(0.05,0,0,0.05,114.7,0)" xlink:href="#x"/><use transform="matrix(0.05,0,0,0.05,124.7,0)" xlink:href="#y"/></g><path d="M96-169c-40 0-48 33-48 73s9 75 48 75c24 0 41-14 43-38l32 2c-6 37-31 61-74 61-59 0-76-41-82-99-10-93 101-131 147-64 4 7 5 14 7 22l-32 3c-4-21-16-35-41-35" id="D"/><path d="M24-231v-30h32v30H24zM24 0v-190h32V0H24" id="E"/><g id="c"><use transform="matrix(0.05,0,0,0.05,0,0)" xlink:href="#s"/><use transform="matrix(0.05,0,0,0.05,12.950000000000001,0)" xlink:href="#t"/><use transform="matrix(0.05,0,0,0.05,22.950000000000003,0)" xlink:href="#u"/><use transform="matrix(0.05,0,0,0.05,32.95,0)" xlink:href="#v"/><use transform="matrix(0.05,0,0,0.05,37.95,0)" xlink:href="#s"/><use transform="matrix(0.05,0,0,0.05,50.900000000000006,0)" xlink:href="#A"/><use transform="matrix(0.05,0,0,0.05,60.900000000000006,0)" xlink:href="#B"/><use transform="matrix(0.05,0,0,0.05,70.9,0)" xlink:href="#B"/><use transform="matrix(0.05,0,0,0.05,80.9,0)" xlink:href="#x"/><use transform="matrix(0.05,0,0,0.05,90.9,0)" xlink:href="#D"/><use transform="matrix(0.05,0,0,0.05,99.9,0)" xlink:href="#v"/><use transform="matrix(0.05,0,0,0.05,104.9,0)" xlink:href="#E"/><use transform="matrix(0.05,0,0,0.05,108.85000000000001,0)" xlink:href="#A"/><use transform="matrix(0.05,0,0,0.05,118.85000000000001,0)" xlink:href="#B"/></g><path d="M232-93c-1 65-40 97-104 97C67 4 28-28 28-90v-158h33c8 89-33 224 67 224 102 0 64-133 71-224h33v155" id="F"/><path d="M135-143c-3-34-86-38-87 0 15 53 115 12 119 90S17 21 10-45l28-5c4 36 97 45 98 0-10-56-113-15-118-90-4-57 82-63 122-42 12 7 21 19 24 35" id="G"/><g id="d"><use transform="matrix(0.05,0,0,0.05,0,0)" xlink:href="#F"/><use transform="matrix(0.05,0,0,0.05,12.950000000000001,0)" xlink:href="#G"/><use transform="matrix(0.05,0,0,0.05,21.950000000000003,0)" xlink:href="#x"/><use transform="matrix(0.05,0,0,0.05,31.950000000000003,0)" xlink:href="#y"/></g><path d="M33 0v-248h34V0H33" id="H"/><g id="e"><use transform="matrix(0.05,0,0,0.05,0,0)" xlink:href="#H"/><use transform="matrix(0.05,0,0,0.05,5,0)" xlink:href="#B"/><use transform="matrix(0.05,0,0,0.05,15,0)" xlink:href="#G"/><use transform="matrix(0.05,0,0,0.05,24,0)" xlink:href="#v"/><use transform="matrix(0.05,0,0,0.05,29,0)" xlink:href="#u"/><use transform="matrix(0.05,0,0,0.05,39,0)" xlink:href="#B"/><use transform="matrix(0.05,0,0,0.05,49,0)" xlink:href="#v"/><use transform="matrix(0.05,0,0,0.05,54,0)" xlink:href="#E"/><use transform="matrix(0.05,0,0,0.05,57.95,0)" xlink:href="#u"/><use transform="matrix(0.05,0,0,0.05,67.95,0)" xlink:href="#v"/><use transform="matrix(0.05,0,0,0.05,72.95,0)" xlink:href="#x"/></g><g id="f"><use transform="matrix(0.05,0,0,0.05,0,0)" xlink:href="#s"/><use transform="matrix(0.05,0,0,0.05,12.950000000000001,0)" xlink:href="#A"/><use transform="matrix(0.05,0,0,0.05,22.950000000000003,0)" xlink:href="#B"/><use transform="matrix(0.05,0,0,0.05,32.95,0)" xlink:href="#B"/><use transform="matrix(0.05,0,0,0.05,42.95,0)" xlink:href="#x"/><use transform="matrix(0.05,0,0,0.05,52.95,0)" xlink:href="#D"/><use transform="matrix(0.05,0,0,0.05,61.95,0)" xlink:href="#v"/><use transform="matrix(0.05,0,0,0.05,66.95,0)" xlink:href="#E"/><use transform="matrix(0.05,0,0,0.05,70.9,0)" xlink:href="#A"/><use transform="matrix(0.05,0,0,0.05,80.9,0)" xlink:href="#B"/></g><path d="M115-194c55 1 70 41 70 98S169 2 115 4C84 4 66-9 55-30l1 105H24l-1-265h31l2 30c10-21 28-34 59-34zm-8 174c40 0 45-34 45-75s-6-73-45-74c-42 0-51 32-51 76 0 43 10 73 51 73" id="I"/><g id="g"><use transform="matrix(0.05,0,0,0.05,0,0)" xlink:href="#I"/><use transform="matrix(0.05,0,0,0.05,10,0)" xlink:href="#y"/><use transform="matrix(0.05,0,0,0.05,15.949999999999998,0)" xlink:href="#A"/><use transform="matrix(0.05,0,0,0.05,25.950000000000003,0)" xlink:href="#D"/><use transform="matrix(0.05,0,0,0.05,34.95,0)" xlink:href="#x"/><use transform="matrix(0.05,0,0,0.05,44.95,0)" xlink:href="#G"/><use transform="matrix(0.05,0,0,0.05,53.95,0)" xlink:href="#G"/></g><path d="M87 75C49 33 22-17 22-94c0-76 28-126 65-167h31c-38 41-64 92-64 168S80 34 118 75H87" id="J"/><use transform="matrix(0.05,0,0,0.05,0,0)" xlink:href="#J" id="h"/><path d="M33-261c38 41 65 92 65 168S71 34 33 75H2C39 34 66-17 66-93S39-220 2-261h31" id="K"/><use transform="matrix(0.05,0,0,0.05,0,0)" xlink:href="#K" id="i"/><path d="M177-190C167-65 218 103 67 71c-23-6-38-20-44-43l32-5c15 47 100 32 89-28v-30C133-14 115 1 83 1 29 1 15-40 15-95c0-56 16-97 71-98 29-1 48 16 59 35 1-10 0-23 2-32h30zM94-22c36 0 50-32 50-73 0-42-14-75-50-75-39 0-46 34-46 75s6 73 46 73" id="L"/><path d="M84 4C-5 8 30-112 23-190h32v120c0 31 7 50 39 49 72-2 45-101 50-169h31l1 190h-30c-1-10 1-25-2-33-11 22-28 36-60 37" id="M"/><g id="j"><use transform="matrix(0.05,0,0,0.05,0,0)" xlink:href="#C"/><use transform="matrix(0.05,0,0,0.05,3.95,0)" xlink:href="#A"/><use transform="matrix(0.05,0,0,0.05,13.949999999999998,0)" xlink:href="#L"/><use transform="matrix(0.05,0,0,0.05,23.95,0)" xlink:href="#A"/><use transform="matrix(0.05,0,0,0.05,33.95,0)" xlink:href="#M"/><use transform="matrix(0.05,0,0,0.05,43.95,0)" xlink:href="#v"/></g><use transform="matrix(0.05,0,0,0.05,0,0)" xlink:href="#K" id="k"/><path d="M233-177c-1 41-23 64-60 70L243 0h-38l-65-103H63V0H30v-248c88 3 205-21 203 71zM63-129c60-2 137 13 137-47 0-61-80-42-137-45v92" id="N"/><path d="M30-248c118-7 216 8 213 122C240-48 200 0 122 0H30v-248zM63-27c89 8 146-16 146-99s-60-101-146-95v194" id="O"/><g id="l"><use transform="matrix(0.05,0,0,0.05,0,0)" xlink:href="#s"/><use transform="matrix(0.05,0,0,0.05,12.950000000000001,0)" xlink:href="#N"/><use transform="matrix(0.05,0,0,0.05,25.900000000000002,0)" xlink:href="#F"/><use transform="matrix(0.05,0,0,0.05,38.85,0)" xlink:href="#O"/></g><path d="M234-2c-28 10-62 0-77-18C117 19 8 12 13-65c3-43 29-61 60-76-25-40-17-114 47-108 35 3 59 15 59 50 0 44-40 53-71 69 14 26 32 50 51 72 14-21 24-43 30-72l26 8c-9 33-21 57-38 82 13 13 33 22 57 15v23zM97-151c25-10 52-18 56-48-1-18-13-29-33-29-42 0-39 50-23 77zM42-66c-3 51 71 58 98 28-20-24-41-51-56-80-23 10-40 24-42 52" id="P"/><use transform="matrix(0.05,0,0,0.05,0,0)" xlink:href="#P" id="m"/><path d="M197 0v-115H63V0H30v-248h33v105h134v-105h34V0h-34" id="Q"/><path d="M179-190L93 31C79 59 56 82 12 73V49c39 6 53-20 64-50L1-190h34L92-34l54-156h33" id="R"/><g id="n"><use transform="matrix(0.05,0,0,0.05,0,0)" xlink:href="#Q"/><use transform="matrix(0.05,0,0,0.05,12.950000000000001,0)" xlink:href="#E"/><use transform="matrix(0.05,0,0,0.05,16.900000000000002,0)" xlink:href="#G"/><use transform="matrix(0.05,0,0,0.05,25.900000000000002,0)" xlink:href="#v"/><use transform="matrix(0.05,0,0,0.05,30.900000000000002,0)" xlink:href="#A"/><use transform="matrix(0.05,0,0,0.05,40.900000000000006,0)" xlink:href="#y"/><use transform="matrix(0.05,0,0,0.05,46.85000000000001,0)" xlink:href="#R"/></g><g id="o"><use transform="matrix(0.05,0,0,0.05,0,0)" xlink:href="#A"/><use transform="matrix(0.05,0,0,0.05,10,0)" xlink:href="#I"/><use transform="matrix(0.05,0,0,0.05,20,0)" xlink:href="#x"/><use transform="matrix(0.05,0,0,0.05,30,0)" xlink:href="#y"/><use transform="matrix(0.05,0,0,0.05,35.95,0)" xlink:href="#u"/><use transform="matrix(0.05,0,0,0.05,45.95,0)" xlink:href="#v"/><use transform="matrix(0.05,0,0,0.05,50.95,0)" xlink:href="#E"/><use transform="matrix(0.05,0,0,0.05,54.900000000000006,0)" xlink:href="#A"/><use transform="matrix(0.05,0,0,0.05,64.9,0)" xlink:href="#B"/><use transform="matrix(0.05,0,0,0.05,74.9,0)" xlink:href="#G"/></g><g id="p"><use transform="matrix(0.05,0,0,0.05,0,0)" xlink:href="#O"/><use transform="matrix(0.05,0,0,0.05,12.950000000000001,0)" xlink:href="#u"/><use transform="matrix(0.05,0,0,0.05,22.950000000000003,0)" xlink:href="#v"/><use transform="matrix(0.05,0,0,0.05,27.950000000000003,0)" xlink:href="#u"/></g><path d="M30-248c87 1 191-15 191 75 0 78-77 80-158 76V0H30v-248zm33 125c57 0 124 11 124-50 0-59-68-47-124-48v98" id="S"/><g id="q"><use transform="matrix(0.05,0,0,0.05,0,0)" xlink:href="#S"/><use transform="matrix(0.05,0,0,0.05,12,0)" xlink:href="#x"/><use transform="matrix(0.05,0,0,0.05,22,0)" xlink:href="#y"/><use transform="matrix(0.05,0,0,0.05,27.950000000000003,0)" xlink:href="#G"/><use transform="matrix(0.05,0,0,0.05,36.95,0)" xlink:href="#E"/><use transform="matrix(0.05,0,0,0.05,40.900000000000006,0)" xlink:href="#G"/><use transform="matrix(0.05,0,0,0.05,49.900000000000006,0)" xlink:href="#v"/><use transform="matrix(0.05,0,0,0.05,54.900000000000006,0)" xlink:href="#x"/><use transform="matrix(0.05,0,0,0.05,64.9,0)" xlink:href="#B"/><use transform="matrix(0.05,0,0,0.05,74.9,0)" xlink:href="#D"/><use transform="matrix(0.05,0,0,0.05,83.9,0)" xlink:href="#x"/></g><g id="r"><use transform="matrix(0.05,0,0,0.05,0,0)" xlink:href="#Q"/><use transform="matrix(0.05,0,0,0.05,12.950000000000001,0)" xlink:href="#E"/><use transform="matrix(0.05,0,0,0.05,16.900000000000002,0)" xlink:href="#G"/><use transform="matrix(0.05,0,0,0.05,25.900000000000002,0)" xlink:href="#v"/><use transform="matrix(0.05,0,0,0.05,30.900000000000002,0)" xlink:href="#A"/><use transform="matrix(0.05,0,0,0.05,40.900000000000006,0)" xlink:href="#y"/><use transform="matrix(0.05,0,0,0.05,46.85000000000001,0)" xlink:href="#R"/></g></defs></g></svg>