<svg xmlns="http://www.w3.org/2000/svg" xmlns:xlink="http://www.w3.org/1999/xlink" width="979.93" height="202.6"><g transform="translate(-200 -440)"><path d="M320 530c0 27.6-22.4 50-50 50s-50-22.4-50-50 22.4-50 50-50 50 22.4 50 50z" stroke="#000" stroke-width="2" fill="#fff"/><path d="M280 474l-10 6 10 7.2" stroke="#000" stroke-width="2" fill="none"/><use xlink:href="#a" transform="matrix(1,0,0,1,180,580) translate(48.099999999999994 14.4)"/><path d="M860 530c0 27.6-22.4 50-50 50s-50-22.4-50-50 22.4-50 50-50 50 22.4 50 50z" stroke="#000" stroke-width="2" fill="#fff"/><path d="M820 474l-10 6 10 7.2" stroke="#000" stroke-width="2" fill="none"/><use xlink:href="#b" transform="matrix(1,0,0,1,720,580) translate(24.674999999999997 14.4)"/><path d="M600 530c0 27.6-22.4 50-50 50s-50-22.4-50-50 22.4-50 50-50 50 22.4 50 50z" stroke="#000" stroke-width="2" fill="#fff"/><path d="M480 480v100m0-50h20" stroke="#000" stroke-width="2" fill="none"/><use xlink:href="#c" transform="matrix(1,0,0,1,460,580) translate(25.57499999999999 14.4)"/><path d="M319 540h161" stroke="#000" stroke-width="2" fill="none"/><path d="M319 541h-.26l.26-1zM481.96 540l-18.67 11.04-1.02-1.72 15.76-9.32-15.76-9.32 1-1.72z"/><path d="M320 480h160v60H320z" fill="none"/><use xlink:href="#d" transform="matrix(1,0,0,1,325,485) translate(51.075 28.6)"/><use xlink:href="#e" transform="matrix(1,0,0,1,325,485) translate(82.025 28.6)"/><use xlink:href="#f" transform="matrix(1,0,0,1,325,485) translate(92.975 28.6)"/><path d="M590 460h180v80H590z" fill="none"/><use xlink:href="#g" transform="matrix(1,0,0,1,595,465) translate(6.1000000000000085 38.6)"/><use xlink:href="#e" transform="matrix(1,0,0,1,595,465) translate(147 38.6)"/><use xlink:href="#f" transform="matrix(1,0,0,1,595,465) translate(157.95 38.6)"/><path d="M599 540h162.05" stroke="#000" stroke-width="2" fill="none"/><path d="M599 541h-.26l.26-1zM760.75 538.66l.53 2.37-16.93 10-1.02-1.7L759.1 540l-15.77-9.32 1.02-1.72z"/><path d="M859 540h161" stroke="#000" stroke-width="2" fill="none"/><path d="M859 541h-.26l.26-1zM1021.96 540l-18.67 11.04-1.02-1.72 15.76-9.32-15.76-9.32 1-1.72z"/><path d="M860 480h160v60H860z" fill="none"/><use xlink:href="#h" transform="matrix(1,0,0,1,865,485) translate(27.549999999999997 28.6)"/><use xlink:href="#i" transform="matrix(1,0,0,1,865,485) translate(90.5 28.6)"/><path d="M1140 530c0 27.6-22.4 50-50 50s-50-22.4-50-50 22.4-50 50-50 50 22.4 50 50z" stroke="#000" stroke-width="2" fill="#fff"/><path d="M1020 480v100m0-50h20" stroke="#000" stroke-width="2" fill="none"/><g><use xlink:href="#j" transform="matrix(1,0,0,1,1000,580) translate(22.07499999999999 14.4)"/><use xlink:href="#k" transform="matrix(1,0,0,1,1000,580) translate(59.02499999999999 14.4)"/><use xlink:href="#l" transform="matrix(1,0,0,1,1000,580) translate(127.925 14.4)"/><use xlink:href="#m" transform="matrix(1,0,0,1,1000,580) translate(59.525 36)"/></g><defs><path d="M212-179c-10-28-35-45-73-45-59 0-87 40-87 99 0 60 29 101 89 101 43 0 62-24 78-52l27 14C228-24 195 4 139 4 59 4 22-46 18-125c-6-104 99-153 187-111 19 9 31 26 39 46" id="n"/><path d="M106-169C34-169 62-67 57 0H25v-261h32l-1 103c12-21 28-36 61-36 89 0 53 116 60 194h-32v-121c2-32-8-49-39-48" id="o"/><path d="M141-36C126-15 110 5 73 4 37 3 15-17 15-53c-1-64 63-63 125-63 3-35-9-54-41-54-24 1-41 7-42 31l-33-3c5-37 33-52 76-52 45 0 72 20 72 64v82c-1 20 7 32 28 27v20c-31 9-61-2-59-35zM48-53c0 20 12 33 32 33 41-3 63-29 60-74-43 2-92-5-92 41" id="p"/><path d="M59-47c-2 24 18 29 38 22v24C64 9 27 4 27-40v-127H5v-23h24l9-43h21v43h35v23H59v120" id="q"/><path d="M24 0v-261h32V0H24" id="r"/><path d="M24-231v-30h32v30H24zM24 0v-190h32V0H24" id="s"/><path d="M100-194c63 0 86 42 84 106H49c0 40 14 67 53 68 26 1 43-12 49-29l28 8c-11 28-37 45-77 45C44 4 14-33 15-96c1-61 26-98 85-98zm52 81c6-60-76-77-97-28-3 7-6 17-6 28h103" id="t"/><path d="M117-194c89-4 53 116 60 194h-32v-121c0-31-8-49-39-48C34-167 62-67 57 0H25l-1-190h30c1 10-1 24 2 32 11-22 29-35 61-36" id="u"/><g id="a"><use transform="matrix(0.05,0,0,0.05,0,0)" xlink:href="#n"/><use transform="matrix(0.05,0,0,0.05,12.950000000000001,0)" xlink:href="#o"/><use transform="matrix(0.05,0,0,0.05,22.950000000000003,0)" xlink:href="#p"/><use transform="matrix(0.05,0,0,0.05,32.95,0)" xlink:href="#q"/><use transform="matrix(0.05,0,0,0.05,37.95,0)" xlink:href="#n"/><use transform="matrix(0.05,0,0,0.05,50.900000000000006,0)" xlink:href="#r"/><use transform="matrix(0.05,0,0,0.05,54.85,0)" xlink:href="#s"/><use transform="matrix(0.05,0,0,0.05,58.80000000000001,0)" xlink:href="#t"/><use transform="matrix(0.05,0,0,0.05,68.80000000000001,0)" xlink:href="#u"/><use transform="matrix(0.05,0,0,0.05,78.80000000000001,0)" xlink:href="#q"/></g><path d="M185-189c-5-48-123-54-124 2 14 75 158 14 163 119 3 78-121 87-175 55-17-10-28-26-33-46l33-7c5 56 141 63 141-1 0-78-155-14-162-118-5-82 145-84 179-34 5 7 8 16 11 25" id="v"/><path d="M114-163C36-179 61-72 57 0H25l-1-190h30c1 12-1 29 2 39 6-27 23-49 58-41v29" id="w"/><path d="M108 0H70L1-190h34L89-25l56-165h34" id="x"/><path d="M100-194c62-1 85 37 85 99 1 63-27 99-86 99S16-35 15-95c0-66 28-99 85-99zM99-20c44 1 53-31 53-75 0-43-8-75-51-75s-53 32-53 75 10 74 51 75" id="y"/><g id="b"><use transform="matrix(0.05,0,0,0.05,0,0)" xlink:href="#v"/><use transform="matrix(0.05,0,0,0.05,12,0)" xlink:href="#t"/><use transform="matrix(0.05,0,0,0.05,22,0)" xlink:href="#w"/><use transform="matrix(0.05,0,0,0.05,27.950000000000003,0)" xlink:href="#x"/><use transform="matrix(0.05,0,0,0.05,36.95,0)" xlink:href="#t"/><use transform="matrix(0.05,0,0,0.05,46.95,0)" xlink:href="#w"/><use transform="matrix(0.05,0,0,0.05,52.900000000000006,0)" xlink:href="#n"/><use transform="matrix(0.05,0,0,0.05,65.85000000000001,0)" xlink:href="#y"/><use transform="matrix(0.05,0,0,0.05,75.85000000000001,0)" xlink:href="#u"/><use transform="matrix(0.05,0,0,0.05,85.85000000000001,0)" xlink:href="#q"/><use transform="matrix(0.05,0,0,0.05,90.85000000000001,0)" xlink:href="#w"/><use transform="matrix(0.05,0,0,0.05,96.80000000000001,0)" xlink:href="#y"/><use transform="matrix(0.05,0,0,0.05,106.80000000000001,0)" xlink:href="#r"/><use transform="matrix(0.05,0,0,0.05,110.75,0)" xlink:href="#r"/><use transform="matrix(0.05,0,0,0.05,114.7,0)" xlink:href="#t"/><use transform="matrix(0.05,0,0,0.05,124.7,0)" xlink:href="#w"/></g><path d="M96-169c-40 0-48 33-48 73s9 75 48 75c24 0 41-14 43-38l32 2c-6 37-31 61-74 61-59 0-76-41-82-99-10-93 101-131 147-64 4 7 5 14 7 22l-32 3c-4-21-16-35-41-35" id="z"/><g id="c"><use transform="matrix(0.05,0,0,0.05,0,0)" xlink:href="#n"/><use transform="matrix(0.05,0,0,0.05,12.950000000000001,0)" xlink:href="#o"/><use transform="matrix(0.05,0,0,0.05,22.950000000000003,0)" xlink:href="#p"/><use transform="matrix(0.05,0,0,0.05,32.95,0)" xlink:href="#q"/><use transform="matrix(0.05,0,0,0.05,37.95,0)" xlink:href="#n"/><use transform="matrix(0.05,0,0,0.05,50.900000000000006,0)" xlink:href="#y"/><use transform="matrix(0.05,0,0,0.05,60.900000000000006,0)" xlink:href="#u"/><use transform="matrix(0.05,0,0,0.05,70.9,0)" xlink:href="#u"/><use transform="matrix(0.05,0,0,0.05,80.9,0)" xlink:href="#t"/><use transform="matrix(0.05,0,0,0.05,90.9,0)" xlink:href="#z"/><use transform="matrix(0.05,0,0,0.05,99.9,0)" xlink:href="#q"/><use transform="matrix(0.05,0,0,0.05,104.9,0)" xlink:href="#s"/><use transform="matrix(0.05,0,0,0.05,108.85000000000001,0)" xlink:href="#y"/><use transform="matrix(0.05,0,0,0.05,118.85000000000001,0)" xlink:href="#u"/></g><path d="M84 4C-5 8 30-112 23-190h32v120c0 31 7 50 39 49 72-2 45-101 50-169h31l1 190h-30c-1-10 1-25-2-33-11 22-28 36-60 37" id="A"/><g id="d"><use transform="matrix(0.05,0,0,0.05,0,0)" xlink:href="#w"/><use transform="matrix(0.05,0,0,0.05,5.95,0)" xlink:href="#A"/><use transform="matrix(0.05,0,0,0.05,15.949999999999998,0)" xlink:href="#u"/></g><path d="M87 75C49 33 22-17 22-94c0-76 28-126 65-167h31c-38 41-64 92-64 168S80 34 118 75H87" id="B"/><use transform="matrix(0.05,0,0,0.05,0,0)" xlink:href="#B" id="e"/><path d="M33-261c38 41 65 92 65 168S71 34 33 75H2C39 34 66-17 66-93S39-220 2-261h31" id="C"/><use transform="matrix(0.05,0,0,0.05,0,0)" xlink:href="#C" id="f"/><path d="M115-194c55 1 70 41 70 98S169 2 115 4C84 4 66-9 55-30l1 105H24l-1-265h31l2 30c10-21 28-34 59-34zm-8 174c40 0 45-34 45-75s-6-73-45-74c-42 0-51 32-51 76 0 43 10 73 51 73" id="D"/><path d="M135-143c-3-34-86-38-87 0 15 53 115 12 119 90S17 21 10-45l28-5c4 36 97 45 98 0-10-56-113-15-118-90-4-57 82-63 122-42 12 7 21 19 24 35" id="E"/><path d="M240 0l2-218c-23 76-54 145-80 218h-23L58-218 59 0H30v-248h44l77 211c21-75 51-140 76-211h43V0h-30" id="F"/><path d="M177-190C167-65 218 103 67 71c-23-6-38-20-44-43l32-5c15 47 100 32 89-28v-30C133-14 115 1 83 1 29 1 15-40 15-95c0-56 16-97 71-98 29-1 48 16 59 35 1-10 0-23 2-32h30zM94-22c36 0 50-32 50-73 0-42-14-75-50-75-39 0-46 34-46 75s6 73 46 73" id="G"/><g id="g"><use transform="matrix(0.05,0,0,0.05,0,0)" xlink:href="#D"/><use transform="matrix(0.05,0,0,0.05,10,0)" xlink:href="#w"/><use transform="matrix(0.05,0,0,0.05,15.949999999999998,0)" xlink:href="#y"/><use transform="matrix(0.05,0,0,0.05,25.950000000000003,0)" xlink:href="#z"/><use transform="matrix(0.05,0,0,0.05,34.95,0)" xlink:href="#t"/><use transform="matrix(0.05,0,0,0.05,44.95,0)" xlink:href="#E"/><use transform="matrix(0.05,0,0,0.05,53.95,0)" xlink:href="#E"/><use transform="matrix(0.05,0,0,0.05,62.95,0)" xlink:href="#F"/><use transform="matrix(0.05,0,0,0.05,77.9,0)" xlink:href="#t"/><use transform="matrix(0.05,0,0,0.05,87.9,0)" xlink:href="#E"/><use transform="matrix(0.05,0,0,0.05,96.9,0)" xlink:href="#E"/><use transform="matrix(0.05,0,0,0.05,105.9,0)" xlink:href="#p"/><use transform="matrix(0.05,0,0,0.05,115.9,0)" xlink:href="#G"/><use transform="matrix(0.05,0,0,0.05,125.9,0)" xlink:href="#t"/></g><path d="M232-93c-1 65-40 97-104 97C67 4 28-28 28-90v-158h33c8 89-33 224 67 224 102 0 64-133 71-224h33v155" id="H"/><path d="M85-194c31 0 48 13 60 33l-1-100h32l1 261h-30c-2-10 0-23-3-31C134-8 116 4 85 4 32 4 16-35 15-94c0-66 23-100 70-100zm9 24c-40 0-46 34-46 75 0 40 6 74 45 74 42 0 51-32 51-76 0-42-9-74-50-73" id="I"/><g id="h"><use transform="matrix(0.05,0,0,0.05,0,0)" xlink:href="#H"/><use transform="matrix(0.05,0,0,0.05,12.950000000000001,0)" xlink:href="#D"/><use transform="matrix(0.05,0,0,0.05,22.950000000000003,0)" xlink:href="#I"/><use transform="matrix(0.05,0,0,0.05,32.95,0)" xlink:href="#p"/><use transform="matrix(0.05,0,0,0.05,42.95,0)" xlink:href="#q"/><use transform="matrix(0.05,0,0,0.05,47.95,0)" xlink:href="#t"/></g><path d="M143 4C61 4 22-44 18-125c-5-107 100-154 193-111 17 8 29 25 37 43l-32 9c-13-25-37-40-76-40-61 0-88 39-88 99 0 61 29 100 91 101 35 0 62-11 79-27v-45h-74v-28h105v86C228-13 192 4 143 4" id="J"/><path d="M33 0v-248h34V0H33" id="K"/><g id="i"><use transform="matrix(0.05,0,0,0.05,0,0)" xlink:href="#J"/><use transform="matrix(0.05,0,0,0.05,14,0)" xlink:href="#H"/><use transform="matrix(0.05,0,0,0.05,26.950000000000003,0)" xlink:href="#K"/></g><g id="j"><use transform="matrix(0.05,0,0,0.05,0,0)" xlink:href="#J"/><use transform="matrix(0.05,0,0,0.05,14,0)" xlink:href="#H"/><use transform="matrix(0.05,0,0,0.05,26.950000000000003,0)" xlink:href="#K"/></g><g id="k"><use transform="matrix(0.05,0,0,0.05,0,0)" xlink:href="#n"/><use transform="matrix(0.05,0,0,0.05,12.950000000000001,0)" xlink:href="#r"/><use transform="matrix(0.05,0,0,0.05,16.900000000000002,0)" xlink:href="#p"/><use transform="matrix(0.05,0,0,0.05,26.900000000000002,0)" xlink:href="#E"/><use transform="matrix(0.05,0,0,0.05,35.900000000000006,0)" xlink:href="#E"/><use transform="matrix(0.05,0,0,0.05,44.900000000000006,0)" xlink:href="#t"/><use transform="matrix(0.05,0,0,0.05,54.900000000000006,0)" xlink:href="#E"/></g><g id="l"><use transform="matrix(0.05,0,0,0.05,0,0)" xlink:href="#p"/><use transform="matrix(0.05,0,0,0.05,10,0)" xlink:href="#u"/><use transform="matrix(0.05,0,0,0.05,20,0)" xlink:href="#I"/></g><path d="M140-251c81 0 123 46 123 126C263-46 219 4 140 4 59 4 17-45 17-125s42-126 123-126zm0 227c63 0 89-41 89-101s-29-99-89-99c-61 0-89 39-89 99S79-25 140-24" id="L"/><path d="M115-194c53 0 69 39 70 98 0 66-23 100-70 100C84 3 66-7 56-30L54 0H23l1-261h32v101c10-23 28-34 59-34zm-8 174c40 0 45-34 45-75 0-40-5-75-45-74-42 0-51 32-51 76 0 43 10 73 51 73" id="M"/><path d="M24-231v-30h32v30H24zM-9 49c24 4 33-6 33-30v-209h32V24c2 40-23 58-65 49V49" id="N"/><g id="m"><use transform="matrix(0.05,0,0,0.05,0,0)" xlink:href="#L"/><use transform="matrix(0.05,0,0,0.05,14,0)" xlink:href="#M"/><use transform="matrix(0.05,0,0,0.05,24,0)" xlink:href="#N"/><use transform="matrix(0.05,0,0,0.05,27.950000000000003,0)" xlink:href="#t"/><use transform="matrix(0.05,0,0,0.05,37.95,0)" xlink:href="#z"/><use transform="matrix(0.05,0,0,0.05,46.95,0)" xlink:href="#q"/><use transform="matrix(0.05,0,0,0.05,51.95,0)" xlink:href="#E"/></g></defs></g></svg>